<svg width="391" height="103" viewBox="0 0 391 103" fill="none" xmlns="http://www.w3.org/2000/svg">
<rect width="391" height="103" fill="#1E1E1E"/>
<rect width="391" height="103" fill="#F8F9FA"/>
<path d="M8.79236 89V22.3554H35.0857C40.1188 22.3554 44.4143 23.2557 47.9721 25.0563C51.5517 26.8352 54.2743 29.3626 56.14 32.6384C58.0274 35.8926 58.9711 39.7216 58.9711 44.1255C58.9711 48.5511 58.0165 52.3585 56.1074 55.5475C54.1983 58.7149 51.4323 61.1446 47.8094 62.8368C44.2082 64.5289 39.8476 65.375 34.7278 65.375H17.1229V54.0506H32.4499C35.14 54.0506 37.3745 53.6818 39.1534 52.9442C40.9323 52.2066 42.2557 51.1002 43.1234 49.625C44.0129 48.1498 44.4576 46.3166 44.4576 44.1255C44.4576 41.9127 44.0129 40.047 43.1234 38.5284C42.2557 37.0098 40.9215 35.86 39.1209 35.079C37.3419 34.2763 35.0966 33.875 32.3848 33.875H22.8827V89H8.79236ZM44.7831 58.6715L61.3466 89H45.7918L29.5863 58.6715H44.7831ZM90.4467 89.9762C85.3919 89.9762 81.0205 88.9024 77.3325 86.7546C73.6662 84.5852 70.8351 81.5697 68.8392 77.7082C66.8434 73.8249 65.8454 69.3233 65.8454 64.2035C65.8454 59.0403 66.8434 54.5279 68.8392 50.6663C70.8351 46.7831 73.6662 43.7676 77.3325 41.6198C81.0205 39.4504 85.3919 38.3657 90.4467 38.3657C95.5014 38.3657 99.862 39.4504 103.528 41.6198C107.216 43.7676 110.058 46.7831 112.054 50.6663C114.05 54.5279 115.048 59.0403 115.048 64.2035C115.048 69.3233 114.05 73.8249 112.054 77.7082C110.058 81.5697 107.216 84.5852 103.528 86.7546C99.862 88.9024 95.5014 89.9762 90.4467 89.9762ZM90.5117 79.2376C92.8113 79.2376 94.7313 78.5868 96.2716 77.2851C97.8119 75.9618 98.9725 74.1612 99.7535 71.8833C100.556 69.6054 100.958 67.0129 100.958 64.1059C100.958 61.1989 100.556 58.6064 99.7535 56.3285C98.9725 54.0506 97.8119 52.25 96.2716 50.9267C94.7313 49.6033 92.8113 48.9416 90.5117 48.9416C88.1905 48.9416 86.238 49.6033 84.6543 50.9267C83.0923 52.25 81.91 54.0506 81.1073 56.3285C80.3263 58.6064 79.9358 61.1989 79.9358 64.1059C79.9358 67.0129 80.3263 69.6054 81.1073 71.8833C81.91 74.1612 83.0923 75.9618 84.6543 77.2851C86.238 78.5868 88.1905 79.2376 90.5117 79.2376ZM146.646 89.9762C141.526 89.9762 137.122 88.8915 133.434 86.7221C129.767 84.531 126.947 81.4938 124.973 77.6105C123.021 73.7273 122.044 69.2583 122.044 64.2035C122.044 59.0837 123.031 54.593 125.006 50.7314C127.001 46.8481 129.833 43.8218 133.499 41.6524C137.165 39.4613 141.526 38.3657 146.58 38.3657C150.941 38.3657 154.759 39.1575 158.035 40.7412C161.311 42.3249 163.903 44.5486 165.812 47.4122C167.721 50.2758 168.774 53.6384 168.969 57.5H155.887C155.518 55.0052 154.542 52.9985 152.959 51.4799C151.397 49.9396 149.346 49.1694 146.808 49.1694C144.661 49.1694 142.784 49.7552 141.179 50.9267C139.595 52.0764 138.358 53.7577 137.469 55.9706C136.579 58.1834 136.135 60.8626 136.135 64.0083C136.135 67.1973 136.569 69.9091 137.436 72.1436C138.326 74.3781 139.573 76.0811 141.179 77.2526C142.784 78.4241 144.661 79.0098 146.808 79.0098C148.392 79.0098 149.813 78.6844 151.071 78.0336C152.351 77.3827 153.403 76.439 154.228 75.2025C155.074 73.9442 155.627 72.4365 155.887 70.6792H168.969C168.752 74.4974 167.711 77.86 165.845 80.767C164.001 83.6524 161.452 85.9086 158.198 87.5356C154.944 89.1627 151.093 89.9762 146.646 89.9762ZM190.405 74.6167L190.438 57.9881H192.456L208.466 39.0165H224.379L202.869 64.1384H199.582L190.405 74.6167ZM177.845 89V22.3554H191.707V89H177.845ZM209.084 89L194.376 67.2299L203.617 57.4349L225.322 89H209.084ZM251.9 89.9762C246.759 89.9762 242.333 88.9349 238.624 86.8523C234.936 84.7479 232.094 81.7758 230.098 77.936C228.102 74.0744 227.104 69.5077 227.104 64.2361C227.104 59.0945 228.102 54.5821 230.098 50.6989C232.094 46.8156 234.903 43.7893 238.526 41.6198C242.171 39.4504 246.444 38.3657 251.347 38.3657C254.645 38.3657 257.714 38.8972 260.556 39.9602C263.42 41.0016 265.915 42.5744 268.041 44.6787C270.189 46.7831 271.859 49.4298 273.052 52.6188C274.245 55.7862 274.842 59.4959 274.842 63.7479V67.5553H232.636V58.9644H261.793C261.793 56.9685 261.359 55.2004 260.491 53.6601C259.624 52.1198 258.42 50.9158 256.879 50.048C255.361 49.1586 253.593 48.7138 251.575 48.7138C249.471 48.7138 247.605 49.202 245.978 50.1782C244.373 51.1327 243.114 52.4236 242.203 54.0506C241.292 55.656 240.826 57.4458 240.804 59.4199V67.5878C240.804 70.061 241.259 72.1978 242.171 73.9985C243.103 75.7991 244.416 77.1875 246.108 78.1637C247.8 79.14 249.807 79.6281 252.128 79.6281C253.669 79.6281 255.079 79.4112 256.359 78.9773C257.639 78.5434 258.734 77.8926 259.645 77.0248C260.556 76.157 261.251 75.094 261.728 73.8357L274.549 74.6818C273.898 77.7624 272.564 80.4525 270.547 82.7521C268.551 85.03 265.969 86.8089 262.802 88.0888C259.656 89.3471 256.022 89.9762 251.9 89.9762ZM310.475 39.0165V49.4298H280.374V39.0165H310.475ZM287.208 27.0413H301.07V73.6405C301.07 74.9205 301.266 75.9184 301.656 76.6343C302.047 77.3285 302.589 77.8166 303.283 78.0987C303.999 78.3807 304.823 78.5217 305.756 78.5217C306.407 78.5217 307.058 78.4675 307.709 78.359C308.36 78.2288 308.859 78.1312 309.206 78.0661L311.386 88.3817C310.692 88.5987 309.715 88.8481 308.457 89.1302C307.199 89.4339 305.67 89.6183 303.869 89.6834C300.528 89.8135 297.599 89.3688 295.083 88.3492C292.588 87.3295 290.646 85.7459 289.258 83.5981C287.869 81.4504 287.186 78.7386 287.208 75.4628V27.0413Z" fill="#0044FF"/>
<path d="M323.895 85.9502C322.561 85.9502 321.414 85.4784 320.454 84.5347C319.494 83.5747 319.014 82.4195 319.014 81.069C319.014 79.7348 319.494 78.5959 320.454 77.6522C321.414 76.6922 322.561 76.2122 323.895 76.2122C325.23 76.2122 326.377 76.6922 327.337 77.6522C328.297 78.5959 328.777 79.7348 328.777 81.069C328.777 81.9639 328.549 82.7856 328.093 83.534C327.654 84.2662 327.068 84.8519 326.336 85.2912C325.604 85.7305 324.79 85.9502 323.895 85.9502ZM347.443 85.9909C345.024 85.9909 342.942 85.4431 341.195 84.3475C339.46 83.2411 338.125 81.7171 337.193 79.7755C336.26 77.8339 335.793 75.6102 335.793 73.1045C335.793 70.5663 336.271 68.3264 337.225 66.3847C338.18 64.4323 339.525 62.9082 341.26 61.8127C342.996 60.7171 345.04 60.1693 347.394 60.1693C349.293 60.1693 350.985 60.5219 352.471 61.2269C353.957 61.9211 355.155 62.8974 356.067 64.1557C356.989 65.4139 357.536 66.8837 357.71 68.565H352.975C352.715 67.3935 352.118 66.3847 351.185 65.5387C350.263 64.6926 349.027 64.2695 347.476 64.2695C346.12 64.2695 344.932 64.6275 343.912 65.3434C342.904 66.0485 342.117 67.0573 341.553 68.3698C340.989 69.6714 340.707 71.2117 340.707 72.9906C340.707 74.8129 340.984 76.3858 341.537 77.7091C342.09 79.0325 342.871 80.0575 343.88 80.7843C344.899 81.511 346.098 81.8744 347.476 81.8744C348.398 81.8744 349.233 81.7063 349.981 81.37C350.741 81.0229 351.375 80.5294 351.885 79.8894C352.406 79.2494 352.769 78.4793 352.975 77.5789H357.71C357.536 79.1952 357.01 80.6378 356.132 81.9069C355.253 83.1761 354.076 84.174 352.601 84.9007C351.137 85.6275 349.417 85.9909 347.443 85.9909ZM373.44 85.9909C371.097 85.9909 369.052 85.4539 367.306 84.3801C365.559 83.3062 364.203 81.8039 363.238 79.8731C362.272 77.9423 361.79 75.6861 361.79 73.1045C361.79 70.5121 362.272 68.245 363.238 66.3034C364.203 64.3617 365.559 62.854 367.306 61.7801C369.052 60.7063 371.097 60.1693 373.44 60.1693C375.783 60.1693 377.827 60.7063 379.574 61.7801C381.32 62.854 382.676 64.3617 383.641 66.3034C384.607 68.245 385.089 70.5121 385.089 73.1045C385.089 75.6861 384.607 77.9423 383.641 79.8731C382.676 81.8039 381.32 83.3062 379.574 84.3801C377.827 85.4539 375.783 85.9909 373.44 85.9909ZM373.456 81.9069C374.974 81.9069 376.233 81.5056 377.231 80.7029C378.229 79.9002 378.966 78.8318 379.443 77.4976C379.932 76.1634 380.176 74.6936 380.176 73.0882C380.176 71.4937 379.932 70.0294 379.443 68.6952C378.966 67.3501 378.229 66.2708 377.231 65.4573C376.233 64.6438 374.974 64.237 373.456 64.237C371.926 64.237 370.657 64.6438 369.649 65.4573C368.651 66.2708 367.908 67.3501 367.419 68.6952C366.942 70.0294 366.704 71.4937 366.704 73.0882C366.704 74.6936 366.942 76.1634 367.419 77.4976C367.908 78.8318 368.651 79.9002 369.649 80.7029C370.657 81.5056 371.926 81.9069 373.456 81.9069Z" fill="#0044FF"/>
</svg>
