<?xml version="1.0" encoding="utf-8"?>
<!-- Generator: Adobe Illustrator 27.5.0, SVG Export Plug-In . SVG Version: 6.00 Build 0)  -->
<svg version="1.1" xmlns="http://www.w3.org/2000/svg" xmlns:xlink="http://www.w3.org/1999/xlink" x="0px" y="0px"
	 viewBox="0 0 750 500" style="enable-background:new 0 0 750 500;" xml:space="preserve">
<g id="BACKGROUND">
	<rect style="fill:#FFFFFF;" width="750" height="500"/>
</g>
<g id="OBJECTS">
	<g>
		<g>
			<g>
				<g>
					<path style="fill:none;stroke:#B6C8EF;stroke-linecap:round;stroke-linejoin:round;stroke-dasharray:3.0032,3.0032;" d="
						M478.088,199.218c-12.703,0-23.001-10.298-23.001-23.001l0,0c0-12.703,10.298-23.001,23.001-23.001h50.936
						c12.742,0,23.594-9.908,24.047-22.642c0.475-13.369-10.221-24.356-23.484-24.356H228.693c-13.35,0-24.172,10.822-24.172,24.172
						v0c0,13.35,10.822,24.172,24.172,24.172h44.14c12.482,0,23.114,9.706,23.557,22.181c0.466,13.096-10.013,23.86-23.005,23.86
						H98.746c-20.76,0-37.589,16.829-37.589,37.589l0,0c0,20.76,16.829,37.589,37.589,37.589h284.883l155.743-0.426h107.341
						c21.024,0,38.068-17.044,38.068-38.068l0,0c0-21.024-17.044-38.068-38.068-38.068H478.088z"/>
				</g>
			</g>
			<g>
				<path style="fill:#FFFFFF;stroke:#B6C8EF;stroke-miterlimit:10;" d="M250.205,111.165c-4.523-4.321-7.345-10.408-7.345-17.157
					c0-13.107,10.625-23.732,23.732-23.732c13.107,0,23.732,10.625,23.732,23.732c0,13.107-10.625,23.732-23.732,23.732
					c-4.25,0-8.236-1.123-11.686-3.08l0.024,0.018l-7.108,3.959l2.36-7.489L250.205,111.165z"/>
				<g>
					<g>
						<polygon style="fill:#9FBDFD;" points="278.142,103.748 255.361,103.478 252.81,87.107 280.341,87.058 						"/>
						<polygon style="fill:#9FBDFD;" points="280.341,87.058 252.81,87.107 266.555,75.765 						"/>
						
							<rect x="256.991" y="85.466" transform="matrix(1 -0.0018 0.0018 1 -0.1641 0.4694)" style="fill:#FFFFFF;" width="18.789" height="15.871"/>
						<polygon style="fill:#E3F1FC;" points="252.81,87.107 252.842,105.006 266.592,96.664 						"/>
						<polygon style="fill:#E3F1FC;" points="280.341,87.058 280.372,104.957 266.592,96.664 						"/>
						<polygon style="fill:#E3F1FC;" points="280.372,104.957 252.842,105.006 266.587,93.664 						"/>
						<polyline style="fill:none;stroke:#9FBDFD;stroke-width:0.5;stroke-linejoin:round;stroke-miterlimit:10;" points="
							252.842,105.006 266.587,93.664 280.372,104.957 						"/>
						
							<line style="fill:none;stroke:#9FBDFD;stroke-width:0.5;stroke-linejoin:round;stroke-miterlimit:10;" x1="268.566" y1="95.285" x2="280.341" y2="87.058"/>
					</g>
					
						<line style="fill:none;stroke:#9FBDFD;stroke-width:0.5;stroke-linejoin:round;stroke-miterlimit:10;" x1="264.616" y1="95.294" x2="252.81" y2="87.107"/>
				</g>
				
					<line style="fill:#FFFFFF;stroke:#B6C8EF;stroke-linecap:round;stroke-linejoin:round;stroke-miterlimit:10;" x1="266.591" y1="55.502" x2="266.591" y2="63.843"/>
				
					<line style="fill:#FFFFFF;stroke:#B6C8EF;stroke-linecap:round;stroke-linejoin:round;stroke-miterlimit:10;" x1="228.321" y1="93.772" x2="236.662" y2="93.772"/>
				
					<line style="fill:#FFFFFF;stroke:#B6C8EF;stroke-linecap:round;stroke-linejoin:round;stroke-miterlimit:10;" x1="296.52" y1="93.772" x2="304.861" y2="93.772"/>
				
					<line style="fill:#FFFFFF;stroke:#B6C8EF;stroke-linecap:round;stroke-linejoin:round;stroke-miterlimit:10;" x1="245.428" y1="72.609" x2="239.53" y2="66.711"/>
				
					<line style="fill:#FFFFFF;stroke:#B6C8EF;stroke-linecap:round;stroke-linejoin:round;stroke-miterlimit:10;" x1="287.754" y1="72.609" x2="293.652" y2="66.711"/>
			</g>
			<g>
				<path style="fill:#FFFFFF;stroke:#B6C8EF;stroke-miterlimit:10;" d="M455.594,138.934c6.605-6.31,10.726-15.198,10.726-25.054
					c0-19.139-15.515-34.655-34.655-34.655c-19.139,0-34.655,15.515-34.655,34.655c0,19.139,15.515,34.655,34.655,34.655
					c6.206,0,12.026-1.639,17.065-4.497l-0.035,0.026l10.379,5.781l-3.446-10.936L455.594,138.934z"/>
				
					<line style="fill:#FFFFFF;stroke:#B6C8EF;stroke-linecap:round;stroke-linejoin:round;stroke-miterlimit:10;" x1="431.666" y1="57.651" x2="431.666" y2="69.831"/>
				
					<line style="fill:#FFFFFF;stroke:#B6C8EF;stroke-linecap:round;stroke-linejoin:round;stroke-miterlimit:10;" x1="487.549" y1="113.535" x2="475.369" y2="113.535"/>
				
					<line style="fill:#FFFFFF;stroke:#B6C8EF;stroke-linecap:round;stroke-linejoin:round;stroke-miterlimit:10;" x1="387.962" y1="113.535" x2="375.782" y2="113.535"/>
				
					<line style="fill:#FFFFFF;stroke:#B6C8EF;stroke-linecap:round;stroke-linejoin:round;stroke-miterlimit:10;" x1="462.569" y1="82.632" x2="471.181" y2="74.019"/>
				
					<line style="fill:#FFFFFF;stroke:#B6C8EF;stroke-linecap:round;stroke-linejoin:round;stroke-miterlimit:10;" x1="400.762" y1="82.632" x2="392.15" y2="74.019"/>
				<g>
					<g>
						<g>
							<path style="fill:#FFCD5C;" d="M414.569,107.411c0-9.442,7.655-17.097,17.097-17.097c9.442,0,17.097,7.654,17.097,17.097
								c0,3.764-1.217,7.243-3.278,10.067h0c-2.44,3.677-8.781,7.829-8.781,10.317v2.842c0,0.567-0.46,1.027-1.027,1.027h-2.747
								h-2.525h-2.748c-0.567,0-1.027-0.46-1.027-1.027v-2.842c0-2.488-6.341-6.639-8.781-10.317l0,0
								C415.786,114.654,414.569,111.174,414.569,107.411z"/>
						</g>
						<g>
							<path style="fill:#FFFFFF;" d="M433.607,131.38c-0.02-0.428-0.326-7.292,0.223-13.306c-0.673,0.08-1.394,0.122-2.165,0.122
								c-0.771,0-1.491-0.042-2.165-0.122c0.549,6.015,0.243,12.878,0.223,13.306l-0.301-0.014c0.005-0.106,0.322-7.204-0.24-13.333
								c-5.071-0.705-7.341-3.578-7.748-6.289c-0.238-1.585,0.303-3.162,1.287-3.75c0.597-0.357,1.318-0.429,2.086-0.209
								c1.208,0.346,2.355,1.387,3.07,2.784c0.825,1.613,1.313,4.29,1.595,7.197c0.68,0.084,1.41,0.128,2.194,0.128
								c0.783,0,1.514-0.045,2.194-0.128c0.281-2.907,0.769-5.585,1.595-7.197c0.715-1.396,1.862-2.437,3.07-2.784
								c0.767-0.22,1.489-0.148,2.085,0.209c0.984,0.588,1.525,2.165,1.287,3.75c-0.408,2.711-2.677,5.584-7.748,6.289
								c-0.562,6.129-0.245,13.227-0.24,13.333L433.607,131.38z M439.37,107.963c-0.245,0-0.5,0.037-0.763,0.113
								c-1.129,0.324-2.207,1.307-2.885,2.631c-0.794,1.551-1.268,4.163-1.545,7.017c4.857-0.7,7.032-3.439,7.421-6.024
								c0.217-1.445-0.274-2.926-1.143-3.446C440.132,108.06,439.765,107.963,439.37,107.963z M423.961,107.963
								c-0.395,0-0.762,0.097-1.085,0.29c-0.869,0.52-1.36,2.001-1.143,3.446c0.389,2.586,2.563,5.324,7.42,6.024
								c-0.277-2.854-0.751-5.466-1.545-7.017c-0.677-1.324-1.756-2.307-2.885-2.631C424.461,108,424.206,107.963,423.961,107.963z"
								/>
						</g>
						<g>
							<path style="fill:#FFEE99;" d="M445.916,108.392c-0.542,0-0.981-0.439-0.981-0.981c0-6.083-4.113-11.373-10.002-12.864
								c-0.525-0.133-0.843-0.667-0.71-1.192c0.133-0.525,0.666-0.844,1.192-0.71c6.761,1.712,11.482,7.784,11.482,14.766
								C446.897,107.952,446.458,108.392,445.916,108.392z"/>
						</g>
						<g>
							<path style="fill:#FFEE99;" d="M431.336,93.133c0,0.542,0.439,0.981,0.981,0.981c0.542,0,0.981-0.439,0.981-0.981
								c0-0.542-0.439-0.981-0.981-0.981C431.775,92.152,431.336,92.592,431.336,93.133z"/>
						</g>
						<g style="opacity:0.55;">
							<g>
								<path style="fill:#FFCD5C;" d="M448.729,108.422c-0.944,7.01-6.604,14.268-17.064,14.268s-15.909-7.597-17.064-14.268
									c0.197,3.375,1.37,6.487,3.245,9.056l0,0c2.44,3.677,8.781,7.829,8.781,10.317v2.842c0,0.567,0.46,1.027,1.027,1.027h2.748
									h2.525h2.747c0.567,0,1.027-0.46,1.027-1.027v-2.842c0-2.488,6.341-6.639,8.781-10.317h0
									C447.359,114.908,448.532,111.796,448.729,108.422z"/>
							</g>
						</g>
						<g>
							<path style="fill:#28364C;" d="M437.107,129.008h-10.882v5.186c0,0.847,0.241,1.676,0.695,2.391l0,0
								c0.858,1.352,2.348,2.171,3.949,2.171h1.595c1.601,0,3.091-0.819,3.949-2.171l0,0c0.454-0.715,0.695-1.544,0.695-2.391
								V129.008z"/>
						</g>
						<g>
							<g>
								<path style="fill:#475577;" d="M437.108,132.5c-0.031,0-0.063-0.002-0.094-0.007l-10.882-1.508
									c-0.371-0.051-0.631-0.394-0.579-0.766c0.052-0.371,0.395-0.631,0.766-0.579l10.882,1.508
									c0.371,0.051,0.631,0.394,0.579,0.766C437.732,132.254,437.441,132.5,437.108,132.5z"/>
							</g>
						</g>
						<g>
							<g>
								<path style="fill:#475577;" d="M437.108,134.874c-0.031,0-0.063-0.002-0.094-0.007l-10.882-1.508
									c-0.371-0.051-0.631-0.394-0.579-0.766c0.052-0.372,0.395-0.63,0.766-0.579l10.882,1.508
									c0.371,0.051,0.631,0.394,0.579,0.766C437.732,134.628,437.441,134.874,437.108,134.874z"/>
							</g>
						</g>
						<g>
							<g>
								<path style="fill:#475577;" d="M436.673,137.208c-0.031,0-0.062-0.002-0.094-0.007l-10.315-1.43
									c-0.371-0.051-0.631-0.394-0.579-0.766c0.052-0.371,0.396-0.631,0.766-0.579l10.315,1.43
									c0.372,0.051,0.631,0.394,0.579,0.766C437.298,136.962,437.007,137.208,436.673,137.208z"/>
							</g>
						</g>
					</g>
				</g>
			</g>
			<g>
				<path style="fill:none;stroke:#B6C8EF;stroke-linecap:round;stroke-linejoin:round;stroke-miterlimit:10;" d="M564.331,176.193
					c0,1.809-1.466,3.275-3.275,3.275c-1.808,0-3.275-1.466-3.275-3.275c0-1.809,1.466-3.275,3.275-3.275
					C562.865,172.919,564.331,174.385,564.331,176.193z"/>
				<path style="fill:none;stroke:#B6C8EF;stroke-linecap:round;stroke-linejoin:round;stroke-miterlimit:10;" d="M340.125,69.66
					c0,1.809-1.466,3.275-3.275,3.275c-1.809,0-3.275-1.466-3.275-3.275c0-1.809,1.466-3.275,3.275-3.275
					C338.659,66.385,340.125,67.851,340.125,69.66z"/>
				<path style="fill:none;stroke:#B6C8EF;stroke-linecap:round;stroke-linejoin:round;stroke-miterlimit:10;" d="M376.244,143.092
					c0,1.809-1.466,3.275-3.275,3.275c-1.809,0-3.275-1.466-3.275-3.275c0-1.809,1.466-3.275,3.275-3.275
					C374.778,139.817,376.244,141.283,376.244,143.092z"/>
				<path style="fill:none;stroke:#B6C8EF;stroke-linecap:round;stroke-linejoin:round;stroke-miterlimit:10;" d="M661.385,121.391
					c0,1.809-1.466,3.275-3.275,3.275c-1.808,0-3.275-1.466-3.275-3.275c0-1.809,1.466-3.275,3.275-3.275
					C659.919,118.117,661.385,119.583,661.385,121.391z"/>
				<path style="fill:none;stroke:#B6C8EF;stroke-linecap:round;stroke-linejoin:round;stroke-miterlimit:10;" d="M109.942,177.543
					c0,1.809-1.466,3.275-3.275,3.275c-1.809,0-3.275-1.466-3.275-3.275c0-1.809,1.466-3.275,3.275-3.275
					C108.476,174.268,109.942,175.734,109.942,177.543z"/>
				<path style="fill:none;stroke:#B6C8EF;stroke-linecap:round;stroke-linejoin:round;stroke-miterlimit:10;" d="M56.427,192.592
					l-8.145,2.176c-0.688,0.184-0.832,1.236-0.246,1.8l5.874,5.655c0.485,0.466,1.17,0.283,1.358-0.363l2.271-7.831
					C57.764,193.248,57.115,192.408,56.427,192.592z"/>
				<path style="fill:none;stroke:#B6C8EF;stroke-linecap:round;stroke-linejoin:round;stroke-miterlimit:10;" d="M667.168,226.712
					l-6.836-4.935c-0.578-0.417-1.484,0.137-1.55,0.947l-0.668,8.127c-0.055,0.67,0.521,1.086,1.139,0.823l7.504-3.192
					C667.505,228.163,667.746,227.129,667.168,226.712z"/>
				
					<line style="fill:none;stroke:#B6C8EF;stroke-linecap:round;stroke-linejoin:round;stroke-miterlimit:10;" x1="80.55" y1="244.849" x2="109.53" y2="244.849"/>
				
					<line style="fill:none;stroke:#B6C8EF;stroke-linecap:round;stroke-linejoin:round;stroke-miterlimit:10;" x1="410.543" y1="172.151" x2="436.002" y2="172.151"/>
				
					<line style="fill:none;stroke:#B6C8EF;stroke-linecap:round;stroke-linejoin:round;stroke-miterlimit:10;" x1="594.481" y1="212.289" x2="612.444" y2="212.289"/>
				
					<line style="fill:none;stroke:#B6C8EF;stroke-linecap:round;stroke-linejoin:round;stroke-miterlimit:10;" x1="616.759" y1="212.289" x2="625.741" y2="212.289"/>
				
					<line style="fill:none;stroke:#B6C8EF;stroke-linecap:round;stroke-linejoin:round;stroke-miterlimit:10;" x1="292.047" y1="143.092" x2="309.334" y2="143.092"/>
				
					<line style="fill:none;stroke:#B6C8EF;stroke-linecap:round;stroke-linejoin:round;stroke-miterlimit:10;" x1="305.855" y1="151.142" x2="319.418" y2="151.142"/>
				
					<line style="fill:none;stroke:#B6C8EF;stroke-linecap:round;stroke-linejoin:round;stroke-miterlimit:10;" x1="161.152" y1="118.166" x2="175.153" y2="118.166"/>
				
					<line style="fill:none;stroke:#B6C8EF;stroke-linecap:round;stroke-linejoin:round;stroke-miterlimit:10;" x1="172.23" y1="113.129" x2="181.18" y2="113.129"/>
				
					<line style="fill:none;stroke:#B6C8EF;stroke-linecap:round;stroke-linejoin:round;stroke-miterlimit:10;" x1="99.666" y1="251.681" x2="113.668" y2="251.681"/>
				<g>
					
						<line style="fill:none;stroke:#B6C8EF;stroke-linecap:round;stroke-linejoin:round;stroke-miterlimit:10;" x1="41.812" y1="247.776" x2="41.812" y2="253.502"/>
					
						<line style="fill:none;stroke:#B6C8EF;stroke-linecap:round;stroke-linejoin:round;stroke-miterlimit:10;" x1="44.675" y1="250.639" x2="38.949" y2="250.639"/>
					
						<line style="fill:none;stroke:#B6C8EF;stroke-linecap:round;stroke-linejoin:round;stroke-miterlimit:10;" x1="44.675" y1="250.639" x2="38.949" y2="250.639"/>
				</g>
				<g>
					
						<line style="fill:none;stroke:#B6C8EF;stroke-linecap:round;stroke-linejoin:round;stroke-miterlimit:10;" x1="137.917" y1="128.8" x2="137.917" y2="134.526"/>
					
						<line style="fill:none;stroke:#B6C8EF;stroke-linecap:round;stroke-linejoin:round;stroke-miterlimit:10;" x1="140.78" y1="131.663" x2="135.054" y2="131.663"/>
					
						<line style="fill:none;stroke:#B6C8EF;stroke-linecap:round;stroke-linejoin:round;stroke-miterlimit:10;" x1="140.78" y1="131.663" x2="135.054" y2="131.663"/>
				</g>
				<g>
					
						<line style="fill:none;stroke:#B6C8EF;stroke-linecap:round;stroke-linejoin:round;stroke-miterlimit:10;" x1="398.409" y1="194.662" x2="398.409" y2="200.388"/>
					
						<line style="fill:none;stroke:#B6C8EF;stroke-linecap:round;stroke-linejoin:round;stroke-miterlimit:10;" x1="401.272" y1="197.525" x2="395.546" y2="197.525"/>
					
						<line style="fill:none;stroke:#B6C8EF;stroke-linecap:round;stroke-linejoin:round;stroke-miterlimit:10;" x1="401.272" y1="197.525" x2="395.546" y2="197.525"/>
				</g>
				<g>
					
						<line style="fill:none;stroke:#B6C8EF;stroke-linecap:round;stroke-linejoin:round;stroke-miterlimit:10;" x1="529.323" y1="67.413" x2="529.323" y2="73.139"/>
					
						<line style="fill:none;stroke:#B6C8EF;stroke-linecap:round;stroke-linejoin:round;stroke-miterlimit:10;" x1="532.186" y1="70.276" x2="526.46" y2="70.276"/>
					
						<line style="fill:none;stroke:#B6C8EF;stroke-linecap:round;stroke-linejoin:round;stroke-miterlimit:10;" x1="532.186" y1="70.276" x2="526.46" y2="70.276"/>
				</g>
				<g>
					
						<line style="fill:none;stroke:#B6C8EF;stroke-linecap:round;stroke-linejoin:round;stroke-miterlimit:10;" x1="639.194" y1="184.77" x2="639.194" y2="190.496"/>
					
						<line style="fill:none;stroke:#B6C8EF;stroke-linecap:round;stroke-linejoin:round;stroke-miterlimit:10;" x1="642.057" y1="187.633" x2="636.331" y2="187.633"/>
					
						<line style="fill:none;stroke:#B6C8EF;stroke-linecap:round;stroke-linejoin:round;stroke-miterlimit:10;" x1="642.057" y1="187.633" x2="636.331" y2="187.633"/>
				</g>
				<g>
					
						<line style="fill:none;stroke:#B6C8EF;stroke-linecap:round;stroke-linejoin:round;stroke-miterlimit:10;" x1="702.283" y1="288.091" x2="702.283" y2="293.817"/>
					
						<line style="fill:none;stroke:#B6C8EF;stroke-linecap:round;stroke-linejoin:round;stroke-miterlimit:10;" x1="705.146" y1="290.954" x2="699.42" y2="290.954"/>
					
						<line style="fill:none;stroke:#B6C8EF;stroke-linecap:round;stroke-linejoin:round;stroke-miterlimit:10;" x1="705.146" y1="290.954" x2="699.42" y2="290.954"/>
				</g>
			</g>
			<g>
				<path style="fill:#E3F1FC;" d="M201.582,90.863c-0.014-0.015-0.119,0-0.138,0c-7.486,0-14.972,0-22.458,0
					c-13.284,0-26.569,0-39.853,0c-9.803,0-12.832-0.313-22.617-0.029c-0.111-6.037,1.571-11.727,4.459-14.775
					c2.371-2.503,6.454-3.871,9.786-2.989c4.22,1.116,7.083,3.941,9.82,6.037c0.968-8.316,4.404-15.895,8.097-17.549
					c6.357-2.847,13,1.666,15.982,6.051c2.457,3.613,3.805,7.906,4.304,12.246c3.991-4.41,12.915-7.776,16.13-0.781
					c1.263,2.748,1.16,5.902,1.032,8.923C191.358,86.588,197.196,87.689,201.582,90.863z"/>
			</g>
			<g>
				<path style="fill:#E3F1FC;" d="M555.086,162.057c1.402-5.693,14.631-14.003,21.697-8.986c0.329-6.77,3.488-14.097,11.29-18.326
					c9.576-5.191,18.772,5.133,20.818,11.646c1.896-6.014,11.56-14.105,19.324-7.275c7.183,6.319,7.9,16.911,7.154,22.942H555.086z"
					/>
			</g>
		</g>
		<g>
			<path style="fill:#C7D2EF;" d="M521.978,354.372l17.88-117.278c0.435-2.854,2.89-4.963,5.777-4.963h78.923l-20.122,129.531
				c-1.363,8.777-8.683,14.957-17.715,14.957H468.136c-3.277,0-5.934-2.657-5.934-5.934l0,0c0-3.277,2.657-5.934,5.934-5.934h41.587
				C515.982,364.751,521.05,360.459,521.978,354.372z"/>
			<path style="fill:#E3EDFF;" d="M601.426,354.372l17.947-117.716c0.404-2.654,2.614-4.525,5.343-4.525h0.164
				c3.823,0,6.951,3.579,6.374,7.295l-18.988,122.236c-1.364,8.777-8.683,14.957-17.715,14.957h-86.014
				c-3.277,0-5.934-2.657-5.934-5.934l0,0c0-3.277,2.657-5.934,5.934-5.934h80.634C595.43,364.751,600.498,360.459,601.426,354.372z
				"/>
			<g>
				<g>
					<g>
						<line style="fill:none;stroke:#114093;stroke-miterlimit:10;" x1="544.602" y1="376.619" x2="544.602" y2="448.344"/>
					</g>
					<g>
						<g>
							<path style="fill:none;stroke:#114093;stroke-miterlimit:10;" d="M582.006,454.238L582.006,454.238
								c0-3.255-2.639-5.894-5.894-5.894h-63.021c-3.255,0-5.894,2.639-5.894,5.894v0"/>
						</g>
						<g>
							<path style="fill:none;stroke:#114093;stroke-miterlimit:10;" d="M551.05,454.238L551.05,454.238
								c0-3.255-2.639-5.894-5.894-5.894"/>
						</g>
						<g>
							<g>
								<path style="fill:#E3EDFF;" d="M576.055,460.189c0,3.287,2.664,5.951,5.951,5.951c3.287,0,5.951-2.664,5.951-5.951
									c0-3.287-2.664-5.951-5.951-5.951C578.719,454.238,576.055,456.903,576.055,460.189z"/>
							</g>
							<g style="opacity:0.45;">
								<path style="fill:#B7C2CE;" d="M579.82,460.189c0,1.207,0.979,2.186,2.186,2.186c1.207,0,2.186-0.979,2.186-2.186
									c0-1.207-0.979-2.186-2.186-2.186C580.799,458.004,579.82,458.982,579.82,460.189z"/>
							</g>
						</g>
						<g>
							<path style="fill:#E3EDFF;" d="M545.099,460.189c0,3.287,2.664,5.951,5.951,5.951c3.287,0,5.951-2.664,5.951-5.951
								c0-3.287-2.664-5.951-5.951-5.951C547.763,454.238,545.099,456.903,545.099,460.189z"/>
						</g>
						<g style="opacity:0.45;">
							<path style="fill:#B7C2CE;" d="M548.864,460.189c0,1.207,0.979,2.186,2.186,2.186c1.207,0,2.186-0.979,2.186-2.186
								c0-1.207-0.979-2.186-2.186-2.186C549.843,458.004,548.864,458.982,548.864,460.189z"/>
						</g>
						<g>
							<g>
								<path style="fill:#E3EDFF;" d="M501.246,460.189c0,3.287,2.664,5.951,5.951,5.951c3.287,0,5.951-2.664,5.951-5.951
									c0-3.287-2.664-5.951-5.951-5.951C503.91,454.238,501.246,456.903,501.246,460.189z"/>
							</g>
							<g style="opacity:0.45;">
								<path style="fill:#B7C2CE;" d="M505.011,460.189c0,1.207,0.979,2.186,2.186,2.186c1.207,0,2.186-0.979,2.186-2.186
									c0-1.207-0.979-2.186-2.186-2.186C505.99,458.004,505.011,458.982,505.011,460.189z"/>
							</g>
						</g>
					</g>
				</g>
			</g>
		</g>
		<g>
			<g>
				<path style="fill:#C7D2EF;" d="M351.287,354.372l-17.881-117.278c-0.435-2.854-2.89-4.963-5.777-4.963h-78.922l20.121,129.531
					c1.363,8.777,8.683,14.957,17.715,14.957h118.585c3.277,0,5.934-2.657,5.934-5.934l0,0c0-3.277-2.657-5.934-5.934-5.934h-41.587
					C357.283,364.751,352.215,360.459,351.287,354.372z"/>
				<path style="fill:#E3EDFF;" d="M271.84,354.372l-17.947-117.716c-0.404-2.654-2.614-4.525-5.343-4.525h-0.164
					c-3.823,0-6.951,3.579-6.374,7.295l18.988,122.236c1.363,8.777,8.683,14.957,17.715,14.957h86.014
					c3.277,0,5.934-2.657,5.934-5.934l0,0c0-3.277-2.657-5.934-5.934-5.934h-80.634C277.836,364.751,272.768,360.459,271.84,354.372
					z"/>
				<g>
					<g>
						<g>
							<line style="fill:none;stroke:#114093;stroke-miterlimit:10;" x1="328.664" y1="376.619" x2="328.664" y2="448.344"/>
						</g>
						<g>
							<g>
								<path style="fill:none;stroke:#114093;stroke-miterlimit:10;" d="M291.259,454.238L291.259,454.238
									c0-3.255,2.639-5.894,5.894-5.894h63.021c3.255,0,5.894,2.639,5.894,5.894v0"/>
							</g>
							<g>
								<path style="fill:none;stroke:#114093;stroke-miterlimit:10;" d="M322.215,454.238L322.215,454.238
									c0-3.255,2.639-5.894,5.894-5.894"/>
							</g>
							<g>
								<g>
									<path style="fill:#E3EDFF;" d="M297.21,460.189c0,3.287-2.664,5.951-5.951,5.951c-3.287,0-5.951-2.664-5.951-5.951
										c0-3.287,2.664-5.951,5.951-5.951C294.546,454.238,297.21,456.903,297.21,460.189z"/>
								</g>
								<g style="opacity:0.45;">
									<path style="fill:#B7C2CE;" d="M293.445,460.189c0,1.207-0.979,2.186-2.186,2.186c-1.207,0-2.186-0.979-2.186-2.186
										c0-1.207,0.979-2.186,2.186-2.186C292.466,458.004,293.445,458.982,293.445,460.189z"/>
								</g>
							</g>
							<g>
								<path style="fill:#E3EDFF;" d="M328.166,460.189c0,3.287-2.664,5.951-5.951,5.951c-3.287,0-5.951-2.664-5.951-5.951
									c0-3.287,2.664-5.951,5.951-5.951C325.502,454.238,328.166,456.903,328.166,460.189z"/>
							</g>
							<g style="opacity:0.45;">
								<path style="fill:#B7C2CE;" d="M324.401,460.189c0,1.207-0.979,2.186-2.186,2.186c-1.207,0-2.186-0.979-2.186-2.186
									c0-1.207,0.979-2.186,2.186-2.186C323.422,458.004,324.401,458.982,324.401,460.189z"/>
							</g>
							<g>
								<g>
									<path style="fill:#E3EDFF;" d="M372.019,460.189c0,3.287-2.664,5.951-5.951,5.951c-3.287,0-5.951-2.664-5.951-5.951
										c0-3.287,2.664-5.951,5.951-5.951C369.355,454.238,372.019,456.903,372.019,460.189z"/>
								</g>
								<g style="opacity:0.45;">
									<path style="fill:#B7C2CE;" d="M368.254,460.189c0,1.207-0.979,2.186-2.186,2.186c-1.207,0-2.186-0.979-2.186-2.186
										c0-1.207,0.979-2.186,2.186-2.186C367.276,458.004,368.254,458.982,368.254,460.189z"/>
								</g>
							</g>
						</g>
					</g>
				</g>
			</g>
			<g>
				<g>
					<g>
						<g>
							<path style="fill:#F9A895;" d="M390.464,418.495l2.738,33.13l-0.291,10.867l42.608-0.217c1.04-0.005,1.879-0.853,1.874-1.894
								l0,0c-0.004-0.78-0.488-1.476-1.216-1.752l-18.376-8.45l-1.058-34.529"/>
							<path style="fill:#FF8D27;" d="M439.257,461.816c-0.435-1.365-1.235-2.898-2.041-3.245l-19.484-8.392
								c-10.74,4.353-24.642,1.026-24.642,1.026l-2.48,14.67c0.003,0.486,0.398,0.877,0.884,0.875h47.437
								C439.885,466.745,439.27,461.859,439.257,461.816z"/>
							<path style="fill:none;stroke:#DD5E17;stroke-width:0.75;stroke-miterlimit:10;" d="M421.949,451.02
								c-1.092,1.423-2.015,2.975-2.747,4.612"/>
							<path style="fill:none;stroke:#DD5E17;stroke-width:0.75;stroke-miterlimit:10;" d="M424.402,452.487
								c-1.131,1.566-1.583,2.47-2.258,3.922"/>
							<path style="fill:none;stroke:#DD5E17;stroke-width:0.75;stroke-miterlimit:10;" d="M426.475,453.557
								c-0.768,1.032-1.521,2.459-2.117,3.599"/>
						</g>
						
							<line style="fill:none;stroke:#DD5E17;stroke-width:0.75;stroke-miterlimit:10;" x1="390.861" y1="463.584" x2="439.457" y2="463.335"/>
						<path style="fill:none;stroke:#DD5E17;stroke-width:0.75;stroke-miterlimit:10;" d="M392.21,456.409
							c0,0,11.416,0.232,12.398,7.11"/>
						<path style="fill:none;stroke:#DD5E17;stroke-width:0.75;stroke-miterlimit:10;" d="M433.223,456.852
							c0,0-3.148,4.473-3.768,6.536"/>
					</g>
				</g>
				<g>
					<g>
						<g>
							<path style="fill:#FFCBBB;" d="M370.265,418.495l0.582,33.13l-0.291,10.867l42.608-0.217c1.04-0.005,1.879-0.853,1.874-1.894
								l0,0c-0.004-0.78-0.488-1.476-1.216-1.752l-18.376-8.45l1.098-34.529"/>
							<path style="fill:#FFB548;" d="M416.901,461.816c-0.435-1.365-1.235-2.898-2.041-3.245l-19.484-8.392
								c-10.74,4.353-24.642,1.026-24.642,1.026l-2.48,14.67c0.003,0.486,0.398,0.877,0.884,0.875h47.437
								C417.529,466.745,416.915,461.859,416.901,461.816z"/>
							<path style="fill:none;stroke:#ED841B;stroke-width:0.75;stroke-miterlimit:10;" d="M399.593,451.02
								c-1.092,1.423-2.015,2.975-2.747,4.612"/>
							<path style="fill:none;stroke:#ED841B;stroke-width:0.75;stroke-miterlimit:10;" d="M402.046,452.487
								c-1.131,1.566-1.583,2.47-2.258,3.922"/>
							<path style="fill:none;stroke:#ED841B;stroke-width:0.75;stroke-miterlimit:10;" d="M404.12,453.557
								c-0.768,1.032-1.521,2.459-2.117,3.599"/>
						</g>
						
							<line style="fill:none;stroke:#ED841B;stroke-width:0.75;stroke-miterlimit:10;" x1="368.505" y1="463.584" x2="417.102" y2="463.335"/>
						<path style="fill:none;stroke:#ED841B;stroke-width:0.75;stroke-miterlimit:10;" d="M369.855,456.409
							c0,0,11.416,0.232,12.398,7.11"/>
						<path style="fill:none;stroke:#ED841B;stroke-width:0.75;stroke-miterlimit:10;" d="M410.867,456.852
							c0,0-3.148,4.473-3.768,6.536"/>
					</g>
				</g>
				<path style="fill:#1A53E2;" d="M304.049,314.4c0,0-7.6,29.303,2.866,43.793c4.61,6.383,12.506,6.557,20.129,6.557h44.98
					c3.783,0,6.936,2.895,7.259,6.664l6.076,71.04h36.497c0,0-3.653-61.148-4.633-73.295c-0.792-9.818-2.578-23.099-6.423-31.689
					c-5.162-11.532-14.809-17.428-24.607-17.428h-16.89c-0.864,0-1.565-0.701-1.565-1.564v-3.671"/>
				
					<line style="fill:none;stroke:#2A36C6;stroke-width:0.75;stroke-miterlimit:10;" x1="385.823" y1="434.888" x2="421.383" y2="434.888"/>
				<path style="fill:#4868EF;" d="M282.443,314.4c0,0-7.6,29.303,2.866,43.793c4.61,6.383,12.506,6.557,20.129,6.557h44.98
					c3.783,0,6.936,2.895,7.259,6.664l6.076,71.04h36.497c0,0-3.946-61.128-4.633-73.295c-0.686-12.167-1.697-23.55-6.423-31.689
					c-7.387-12.72-20.323-17.229-34.544-17.229c-14.221,0-26.87,0-26.87,0v-7.096"/>
				<path style="fill:none;stroke:#1D2EA8;stroke-width:0.75;stroke-miterlimit:10;" d="M289.073,316.694
					c0,0-4.708,26.505,2.664,35.168c3.983,4.681,11.321,4.91,16.88,4.91h48.838c3.629,0,6.649,2.79,6.935,6.408l6.273,79.275"/>
				
					<line style="fill:none;stroke:#1D2EA8;stroke-width:0.75;stroke-miterlimit:10;" x1="363.104" y1="434.888" x2="399.761" y2="434.888"/>
				<path style="fill:none;stroke:#FFCBBB;stroke-miterlimit:10;" d="M391.358,325.939"/>
				<path style="fill:none;stroke:#1D2EA8;stroke-width:0.75;stroke-miterlimit:10;" d="M306.303,318.31
					c-3.609,8.266-18.363,7.629-18.363,7.629"/>
			</g>
			<g>
				<g>
					<path style="fill:#F9BBAF;" d="M317.561,196.603c-0.03-0.48-0.617-0.737-1.094-0.672c-0.678,0.092-1.245,0.606-1.553,1.217
						c-0.308,0.611-0.391,1.311-0.411,1.995c-0.018,0.636,0.021,1.297,0.313,1.861c0.521,1.005,1.878,1.474,2.908,1.005"/>
				</g>
				<path style="fill:#FFCBBB;" d="M318.324,188.36c0,0-3.96,15.101-1.784,18.198c3.259,4.639,11.011,4.996,14.279,2.855
					c2.74-1.796,4.99-11.419,4.99-13.916C335.809,188.717,321.892,184.792,318.324,188.36z"/>
				<g>
					<g>
						<g>
							<path style="fill:#00276F;" d="M318.224,193.852c-0.117,0.281-0.219,0.569-0.303,0.862c-0.141,0.489,0.619,0.697,0.761,0.21
								c0.085-0.292,0.154-0.589,0.205-0.889C318.964,193.592,318.393,193.446,318.224,193.852L318.224,193.852z"/>
						</g>
					</g>
					
						<path style="fill:none;stroke:#00276F;stroke-width:0.5;stroke-linecap:round;stroke-linejoin:round;stroke-miterlimit:10;" d="
						M319.82,192.307c0,0-1.022-1.408-2.534-0.329"/>
					<g>
						<g>
							<path style="fill:#00276F;" d="M326.258,195.705c-0.101,0.286-0.185,0.579-0.253,0.875c-0.113,0.494,0.647,0.705,0.761,0.21
								c0.075-0.327,0.129-0.66,0.167-0.993C326.981,195.39,326.379,195.362,326.258,195.705L326.258,195.705z"/>
						</g>
					</g>
					
						<path style="fill:none;stroke:#00276F;stroke-width:0.5;stroke-linecap:round;stroke-linejoin:round;stroke-miterlimit:10;" d="
						M325.905,193.055c0,0,1.66-0.546,3.355,1.427"/>
				</g>
				<path style="fill:#FFCBBB;" d="M320.755,208.343l-1.337,11.418c0,0,0.579,4.996,8.072,4.996c7.493,0,12.863-5.352,12.863-5.352
					l-2.612-19.583"/>
				<path style="fill:none;stroke:#F7A794;stroke-miterlimit:10;" d="M321.187,210.241c0,0,5.199,1.025,8.78-0.897
					c2.825-1.516,3.842-5.028,3.842-5.028"/>
				<path style="fill:none;stroke:#F7A794;stroke-width:0.5;stroke-linejoin:round;stroke-miterlimit:10;" d="M322.498,194.738
					c0,0-2.5,3.488-2.246,4.302c0.341,1.091,2.246,0.815,2.246,0.815"/>
				<g>
					<path style="fill:#011E3B;" d="M330.558,199.018c-0.673,1.191-2.352,2.044-4.192,2.244c-3.365,0.367-7.129-1.104-10.478-0.739
						c-0.748,0.082-0.795,3.538-0.784,4.641c0.014,1.309,0.29,2.699,0.957,3.826c0.651,1.1,1.856,1.754,3.065,2.168
						c2.548,0.874,5.299,0.895,7.934,0.454c1.291-0.216,2.396-0.353,3.515-1.035c1.132-0.689,2.156-1.44,3.019-2.459
						c0.97-1.146,1.729-2.546,3.002-3.398c1.492-0.999,3.095-0.926,3.927-2.804c0.505-1.139,0.57-2.418,0.625-3.663
						c0.109-2.451,0.082-4.911-0.065-7.38c-0.359-6.044-5.267-8.78-10.216-9.382c-2.227-0.271-5.471-0.354-7.712-0.427
						c-1.808-0.059-4.297-0.801-5.961,0.111c-2.9,1.589-1.9,6.626,1.035,7.555c3.207,1.014,8.194-0.099,11.532,0.319
						c2.326,0.291,2.317,3.647,2.367,4.055C332.406,195.336,331.561,197.244,330.558,199.018z"/>
				</g>
				<path style="fill:#FFFFFF;" d="M323.273,203.771l-5.036-0.599c0,0-0.835,3.627,2.208,3.872
					C323.257,207.271,323.273,203.771,323.273,203.771z"/>
				<g>
					<path style="fill:#FFCBBB;" d="M336.005,197.355c0.568,0.215,1.012,0.706,1.301,1.272c1.356,2.658-1.806,6.234-4.627,5.013
						c-1.036-0.448-0.654-3.21,1.387-5.867C334.519,197.183,335.437,197.14,336.005,197.355z"/>
				</g>
			</g>
			<g>
				<path style="fill:#FFCBBB;" d="M378.955,253.17c0,0,4.189,21.915,7.276,29.303c3.087,7.388,20.003,6.677,20.003,6.677
					l-5.377,14.771c0,0-28.138,2.687-34.115-7.204c-8.513-14.087-8.099-39.221-8.099-39.221"/>
				<g>
					<path style="fill:#FFCBBB;" d="M394.608,289.459c0,0,20.956-0.824,21.431,0.119c0.475,0.943-3.566,1.014-3.032,1.715
						c0.534,0.701,9.833,0.291,10.056,1.359c0.302,1.448-8.119,1.605-8.119,1.605s9.232,0.287,9.131,1.62
						c-0.072,0.944-7.128,1.048-9.82,1.426c2.969-0.039,7.787,0.469,7.692,1.447c-0.094,0.97-4.896,1.143-8.569,1.472
						c2.311,0.009,6.516,0.252,6.47,1.16c-0.045,0.905-16.659,2.193-27.67,2.925"/>
				</g>
				<path style="fill:#FFB548;" d="M340.146,216.397c33.194,5.839,41.22,40.413,41.22,40.413l-23.615,7.724L344.6,230.88"/>
				<path style="fill:#FFB548;" d="M341.687,216.397c0,0,18.809,6.642,23.475,28.309c4.667,21.667,4.915,48.91,2.517,72.686
					c-38.552,4.738-86.848,1.274-86.848,1.274s-2.82-60.141,10.331-78.627c13.15-18.486,26.814-22.801,26.814-22.801l12.428,4.703
					L341.687,216.397z"/>
				<g>
					<path style="fill:#91A9D8;" d="M316.556,302.518h43.242v2.422h-45.664l0,0C314.134,303.602,315.219,302.518,316.556,302.518z"
						/>
					<path style="fill:#91A9D8;" d="M412.491,304.94h-60.754l11.617-37.331c0.596-1.914,2.367-3.218,4.372-3.218h54.927
						c1.219,0,2.089,1.181,1.726,2.345L412.491,304.94z"/>
					<path style="fill:#C7D2EF;" d="M415.22,304.94h-60.754l11.617-37.331c0.596-1.914,2.367-3.218,4.372-3.218h54.927
						c1.219,0,2.089,1.181,1.726,2.345L415.22,304.94z"/>
					<path style="fill:#91A9D8;" d="M397.298,285.274c-0.356,1.742-2.467,3.154-4.715,3.154c-2.248,0-3.782-1.412-3.426-3.154
						c0.356-1.742,2.467-3.154,4.715-3.154C396.12,282.12,397.654,283.532,397.298,285.274z"/>
				</g>
				<g>
					<path style="fill:#FFCBBB;" d="M305.242,260.895c0,0-7.915,18.302-6.604,21.53c1.31,3.228,35.171,5.531,35.171,5.531
						l-1.069,16.686c0,0-37.896,0.297-54.299,0.297c-20.817,0-1.52-50.296-1.52-50.296"/>
					<g>
						<path style="fill:#FFCBBB;" d="M323.208,287.117c0,0,25.15,1.363,25.612,2.543c0.462,1.181-4.378,0.813-3.818,1.712
							c0.56,0.898,11.726,1.449,11.873,2.752c0.199,1.766-9.888,1.01-9.888,1.01s11.007,1.378,10.737,2.96
							c-0.192,1.12-8.64,0.455-11.901,0.605c3.554,0.286,9.259,1.433,9.035,2.592c-0.222,1.149-5.982,0.819-10.411,0.8
							c2.763,0.27,7.763,1.032,7.607,2.112c-0.155,1.077-20.165,0.756-33.414,0.398"/>
					</g>
				</g>
				<path style="fill:#FFB548;" d="M318.639,217.879c-36.119-2.2-45.011,40.217-45.011,40.217l32.767,6.439l5.434-22.081"/>
				<path style="fill:#FFFFFF;" d="M320.025,214.58c4.095,4.095,10.379,7.362,10.379,7.362c-0.044,0.106-2.059,4.039-4.213,7.748
					c0,0-8.251-6.526-11.236-11.875C314.954,217.814,318.826,215.101,320.025,214.58z"/>
				<path style="fill:#FFFFFF;" d="M330.404,221.942l4.954,7.086c0,0,4.549-2.553,7.94-12.114c0,0-1.845-2.479-3.749-3.54
					C337.296,216.361,330.404,221.942,330.404,221.942z"/>
				<line style="fill:none;stroke:#E2690E;stroke-miterlimit:10;" x1="305.437" y1="264.346" x2="311.797" y2="247.624"/>
				<path style="fill:none;stroke:#E2690E;stroke-miterlimit:10;" d="M368.223,261.016c-1.753-12.113-6.604-22.756-6.604-22.756"/>
			</g>
		</g>
		<g>
			<line style="fill:none;stroke:#114093;stroke-miterlimit:10;" x1="491.246" y1="312.305" x2="491.246" y2="467.103"/>
			<line style="fill:none;stroke:#114093;stroke-miterlimit:10;" x1="241.942" y1="312.305" x2="241.942" y2="467.103"/>
			<g>
				<g style="opacity:0.55;">
					<linearGradient id="SVGID_1_" gradientUnits="userSpaceOnUse" x1="438.4467" y1="289.1178" x2="438.4467" y2="270.4008">
						<stop  offset="0" style="stop-color:#FFFFFF;stop-opacity:0.1"/>
						<stop  offset="1" style="stop-color:#FFFFFF;stop-opacity:0.4"/>
					</linearGradient>
					<path style="fill:url(#SVGID_1_);" d="M429.853,289.118c0,0,0.6-0.111,0.844-0.45c0.504-0.699-0.33-1.441-0.873-1.787
						c-0.696-0.444-1.655-0.596-1.992-1.452c-0.38-0.966,0.278-2.033,1.074-2.56c0.67-0.443,1.456-0.667,2.208-0.949
						c0.838-0.315,1.686-0.819,2.178-1.605c0.613-0.981,0.49-2.244,0.57-3.35c0.315-4.328,4.738-6.473,8.465-6.561
						c1.863-0.044,4.709,0.623,5.948,2.071c0.415,0.485,0.731,1.062,0.85,1.693c0.184,0.976-0.194,1.877-0.828,2.607
						c-0.638,0.733-1.518,1.158-2.217,1.817c-0.722,0.681-0.208,1.398-0.373,2.209c-0.184,0.903-0.788,1.287-1.572,1.724
						c-1.654,0.922-3.6,1.152-5.399,1.654c-0.56,0.156-1.126,0.346-1.579,0.71c-0.587,0.472-0.921,1.182-1.366,1.79
						c-0.811,1.107-2.043,1.897-3.387,2.172"/>
				</g>
				<g>
					<g>
						<path style="fill:#E8EAEF;" d="M440.219,300.011h-3.535v-1.685h3.535c1.139,0,2.065-0.927,2.065-2.065v-2.905
							c0-1.139-0.927-2.065-2.065-2.065h-3.535v-1.685h3.535c2.068,0,3.751,1.683,3.751,3.75v2.905
							C443.97,298.328,442.287,300.011,440.219,300.011z"/>
					</g>
				</g>
				<path style="fill:#E8EAEF;" d="M433.21,304.447h-2.016c-3.382,0-6.124-2.742-6.124-6.124v-11.108h14.263v11.108
					C439.334,301.706,436.593,304.447,433.21,304.447z"/>
				<path style="fill:#CFDAE5;" d="M422.763,302.041c0,0,0.138,3.355,5.352,3.355h8.176c5.214,0,5.352-3.355,5.352-3.355H422.763z"
					/>
			</g>
			<g>
				<g>
					<rect x="230.879" y="304.94" style="fill:#F0F6FF;" width="268.824" height="8.926"/>
				</g>
			</g>
			<g>
				<path style="fill:#7D97D3;" d="M450.486,304.916l-2.94,0.024l-13.012-38.879c-0.303-0.735,0.234-1.544,1.029-1.55l0,0
					c0.772-0.006,1.47,0.457,1.764,1.171L450.486,304.916z"/>
				<path style="fill:#7D97D3;" d="M497.282,302.518h-48.287v2.422h50.709l0,0C499.704,303.602,498.619,302.518,497.282,302.518z"/>
			</g>
		</g>
		<g>
			<g>
				<path style="fill:#F49C84;" d="M192.328,168.551l1.147,11.497c0,0-0.915,3.254-7.281,3.957
					c-7.713,0.852-11.045-5.024-11.045-5.024l1.561-10.684"/>
				<path style="fill:#F49C84;" d="M196.635,154.325c0,0,4.539,14.41-1.902,18.202c-5.841,3.439-15.607-1.915-16.178-3.739
					c-0.571-1.824-3.16-17.336,0.557-18.499C185.718,148.221,194.696,148.131,196.635,154.325z"/>
				<path style="fill:none;stroke:#C45F47;stroke-width:0.75;stroke-miterlimit:10;" d="M192.74,173.983
					c0,0-6.122,1.592-10.683-2.436"/>
				<g>
					<path style="fill:#173789;" d="M200.837,146.113c-0.756-1.3-2.062-2.302-3.546-2.598c-1.422-0.283-3.008-0.02-4.237-0.788
						c-0.318-0.199-0.595-0.458-0.908-0.666c-1.016-0.675-2.348-0.743-3.522-0.414c-1.174,0.329-2.216,1.015-3.177,1.765
						c-0.704,0.549-1.399,1.15-2.245,1.438c-1.549,0.526-3.25-0.102-4.877,0.067c-1.858,0.192-3.551,1.52-4.182,3.278
						c-0.644,1.796-0.242,3.9-1.166,5.569c-0.48,0.869-1.289,1.549-1.631,2.481c-0.457,1.244,0.022,2.635,0.658,3.798
						c0.587,1.072,1.296,2.08,1.637,3.267c0.252,0.876,0.384,1.779,0.676,2.646c0.57,1.691,1.61,3.212,3.529,3.383
						c0.682,0.061,1.432,0.104,1.985-0.299c0.546-0.398,0.74-1.119,0.822-1.79c0.133-1.094,0.056-2.21-0.207-3.281
						c0.661,0.358,1.284,0.956,2.025,0.848c0.244-0.036,0.406-0.227,0.581-0.402c1.595-1.596-0.215-4.178-0.404-5.844
						c-0.207-1.829,1.508-3.625,3.344-3.503c0.798,0.053,1.569,0.408,2.366,0.344c1.561-0.125,2.603-1.762,4.122-2.146
						c1.402-0.355,2.884,0.039,4.295,0.067c2.438,0.049,4.654-2.153,4.746-4.59C201.556,147.816,201.299,146.909,200.837,146.113z"
						/>
				</g>
				<g>
					<path style="fill:#F49C84;" d="M181.348,163.723c-0.549-1.355-1.507-2.987-3.008-2.068c-0.531,0.325-0.826,1.019-1.033,1.692
						c-0.688,2.236,0.916,5.686,3.112,5.367c1.07-0.156,1.664-1.426,2.1-2.473"/>
				</g>
				<path style="fill:none;stroke:#C45F47;stroke-width:0.75;stroke-miterlimit:10;" d="M192.34,160.068
					c0,0,2.031,3.672,1.691,4.434c-0.455,1.021-2.274,0.535-2.274,0.535"/>
				<path style="fill:#FFFFFF;" d="M190.738,167.6l4.855-0.585c0,0,0.363,3.441-1.821,3.96
					C191.088,171.613,190.738,167.6,190.738,167.6z"/>
				<g>
					<g>
						<path style="fill:#00276F;" d="M195.363,159.289c0.052,0.299,0.121,0.597,0.205,0.889c0.141,0.487,0.903,0.28,0.761-0.21
							c-0.085-0.292-0.186-0.581-0.303-0.862C195.857,158.701,195.286,158.845,195.363,159.289L195.363,159.289z"/>
					</g>
				</g>
				<path style="fill:none;stroke:#00276F;stroke-width:0.5;stroke-linecap:round;stroke-linejoin:round;stroke-miterlimit:10;" d="
					M194.429,157.561c0,0,1.022-1.408,2.534-0.329"/>
				<g>
					<g>
						<path style="fill:#00276F;" d="M187.316,161.051c0.038,0.333,0.092,0.666,0.167,0.993c0.114,0.495,0.874,0.285,0.761-0.21
							c-0.068-0.296-0.152-0.589-0.253-0.875C187.872,160.62,187.268,160.641,187.316,161.051L187.316,161.051z"/>
					</g>
				</g>
				<path style="fill:none;stroke:#00276F;stroke-width:0.5;stroke-linecap:round;stroke-linejoin:round;stroke-miterlimit:10;" d="
					M188.344,158.31c0,0-1.66-0.546-3.355,1.427"/>
			</g>
			<g>
				<g>
					<g>
						<g>
							<path style="fill:#F49C84;" d="M199.091,418.495l4.115,33.13l-0.291,10.867l42.608-0.217c1.04-0.005,1.879-0.853,1.874-1.894
								l0,0c-0.004-0.78-0.488-1.476-1.216-1.752l-18.376-8.45l-2.436-34.529"/>
							<path style="fill:#2B88F7;" d="M249.147,461.816c-0.435-1.365-1.235-2.898-2.041-3.245l-19.484-8.392
								c-10.74,4.353-24.642,1.026-24.642,1.026l-2.48,14.67c0.003,0.486,0.398,0.877,0.884,0.875h47.437
								C249.775,466.745,249.16,461.859,249.147,461.816z"/>
							<path style="fill:none;stroke:#1340BF;stroke-width:0.75;stroke-miterlimit:10;" d="M231.839,451.02
								c-1.092,1.423-2.015,2.975-2.747,4.612"/>
							<path style="fill:none;stroke:#1340BF;stroke-width:0.75;stroke-miterlimit:10;" d="M234.292,452.487
								c-1.131,1.566-1.583,2.47-2.258,3.922"/>
							<path style="fill:none;stroke:#1340BF;stroke-width:0.75;stroke-miterlimit:10;" d="M236.365,453.557
								c-0.768,1.032-1.521,2.459-2.117,3.599"/>
						</g>
						
							<line style="fill:none;stroke:#1340BF;stroke-width:0.75;stroke-miterlimit:10;" x1="200.751" y1="463.584" x2="249.347" y2="463.335"/>
						<path style="fill:none;stroke:#1340BF;stroke-width:0.75;stroke-miterlimit:10;" d="M202.1,456.409
							c0,0,11.416,0.232,12.398,7.11"/>
						<path style="fill:none;stroke:#1340BF;stroke-width:0.75;stroke-miterlimit:10;" d="M243.113,456.852
							c0,0-3.148,4.473-3.768,6.536"/>
					</g>
				</g>
				<path style="fill:#223082;" d="M219.091,275.895c7.054,50.678,12.428,170.392,12.428,170.392h-38.753
					c0,0-6.099-88.093-12.389-143.014c-10.465-20.517-14.68-34.651-12.808-43.259"/>
				<path style="fill:none;stroke:#0D1735;stroke-width:0.75;stroke-miterlimit:10;" d="M197.766,446.286
					c0,0-6.099-88.093-12.389-143.014"/>
				<g>
					<g>
						<g>
							<path style="fill:#F49C84;" d="M146.394,418.495l-2.419,33.13l-0.291,10.867l42.608-0.217
								c1.04-0.005,1.879-0.853,1.874-1.894l0,0c-0.004-0.78-0.488-1.476-1.216-1.752l-18.376-8.45l4.098-34.529"/>
							<path style="fill:#2B88F7;" d="M189.916,461.816c-0.435-1.365-1.235-2.898-2.041-3.245l-19.484-8.392
								c-10.74,4.353-24.642,1.026-24.642,1.026l-2.48,14.67c0.003,0.486,0.398,0.877,0.884,0.875h47.437
								C190.544,466.745,189.929,461.859,189.916,461.816z"/>
							<path style="fill:none;stroke:#1340BF;stroke-width:0.75;stroke-miterlimit:10;" d="M172.607,451.02
								c-1.092,1.423-2.015,2.975-2.747,4.612"/>
							<path style="fill:none;stroke:#1340BF;stroke-width:0.75;stroke-miterlimit:10;" d="M175.061,452.487
								c-1.131,1.566-1.583,2.47-2.258,3.922"/>
							<path style="fill:none;stroke:#1340BF;stroke-width:0.75;stroke-miterlimit:10;" d="M177.134,453.557
								c-0.768,1.032-1.521,2.459-2.117,3.599"/>
						</g>
						
							<line style="fill:none;stroke:#1340BF;stroke-width:0.75;stroke-miterlimit:10;" x1="141.52" y1="463.584" x2="190.116" y2="463.335"/>
						<path style="fill:none;stroke:#1340BF;stroke-width:0.75;stroke-miterlimit:10;" d="M142.869,456.409
							c0,0,11.416,0.232,12.398,7.11"/>
						<path style="fill:none;stroke:#1340BF;stroke-width:0.75;stroke-miterlimit:10;" d="M183.881,456.852
							c0,0-3.148,4.473-3.768,6.536"/>
					</g>
				</g>
				<path style="fill:#223082;" d="M144.226,271.203c-3.179,8.689-3.929,24.038-0.472,38.751c0.233,0.99,0.34,1.999,0.289,3.014
					c-3.024,60.851-6.126,133.318-6.126,133.318h38.283c0,0,14.437-151.163,17.276-176.186"/>
				<path style="fill:none;stroke:#0D1735;stroke-width:0.75;stroke-miterlimit:10;" d="M150.226,271.203
					c-3.179,8.689-3.929,24.038-0.472,38.751c0.233,0.99,0.34,1.999,0.289,3.014c-3.024,60.851-6.126,133.318-6.126,133.318"/>
				<path style="fill:none;stroke:#0D1735;stroke-width:0.75;stroke-miterlimit:10;" d="M185.27,352.148
					c0,0,5.84-59.319,7.643-73.409"/>
				<path style="fill:none;stroke:#0D1735;stroke-width:0.75;stroke-miterlimit:10;" d="M147.855,298.192
					c0,0,10.763-2.195,16.351-13.172"/>
				<path style="fill:none;stroke:#0D1735;stroke-width:0.75;stroke-miterlimit:10;" d="M190.995,295.802c0,0,3.748-0.598,4.147-2
					c0.399-1.402,2.395-13.692,2.395-13.692"/>
				<path style="fill:none;stroke:#0D1735;stroke-width:0.75;stroke-miterlimit:10;" d="M209.713,282.425
					c0,0,2.538,12.077,11.648,12.525"/>
				
					<line style="fill:none;stroke:#0D1735;stroke-width:0.75;stroke-miterlimit:10;" x1="138.228" y1="439.072" x2="176.889" y2="439.072"/>
				
					<line style="fill:none;stroke:#0D1735;stroke-width:0.75;stroke-miterlimit:10;" x1="192.253" y1="439.072" x2="231.18" y2="439.072"/>
			</g>
			<g>
				<g>
					<path style="fill:#F49C84;" d="M228.494,207.945c0,0,8.587,13.175,11.767,13.524c5.052,0.554,29.595-17.984,29.595-17.984
						l12.471,14.311c0,0-23.523,27.727-42.952,28.956c-15.278,0.966-33.579-23.26-33.579-23.26"/>
					<g>
						<path style="fill:#F49C84;" d="M262.109,209.12c0,0,21.107-16.395,22.167-16.061c1.061,0.334-1.853,3.438-0.931,3.549
							c0.922,0.111,7.61-6.75,8.58-6.134c1.315,0.835-5.564,7.379-5.564,7.379s7.998-6.72,8.929-5.665
							c0.66,0.747-7.186,8.25-7.186,8.25s7.932-5.792,8.601-5.003c0.663,0.784-6.344,7.448-6.344,7.448s5.503-4.831,6.389-4.021
							c0.885,0.81-10.811,15.767-20.966,25.895"/>
					</g>
					<path style="fill:none;stroke:#C45F47;stroke-width:0.75;stroke-miterlimit:10;" d="M281.853,197.525
						c0,0-1.533,3.817-3.458,6.762"/>
					<path style="fill:none;stroke:#C45F47;stroke-width:0.75;stroke-miterlimit:10;" d="M280.977,206.076
						c2.251-2.298,5.242-2.7,8.051-2.569"/>
				</g>
				<path style="fill:#2B88F7;" d="M175.375,177.543c0,0,3.075,3.881,8.814,4.366c5.739,0.485,9.285-2.56,9.285-2.56
					s18.15,9.151,23.275,47.276s5.625,58.083,5.625,58.083h-81.12C141.255,284.708,131.09,189.251,175.375,177.543z"/>
				<path style="fill:#2B88F7;" d="M193.475,179.349c5.137,0,12.628,2.035,17.508,5.509c10.464,7.449,13.664,16.093,23.397,29.335
					l-23.489,16.579L193.475,179.349z"/>
				<g>
					<polygon style="fill:#FFEFAB;" points="178.606,307.147 143.431,289.99 166.39,242.545 201.565,259.702 					"/>
					<g>
						<path style="fill:#173789;" d="M193.773,257.408l-19.76-9.639l1.309-2.685c0.199-0.408,0.692-0.578,1.1-0.379l18.282,8.917
							c0.409,0.199,0.578,0.692,0.379,1.1L193.773,257.408z"/>
						<path style="fill:#173789;" d="M187.714,244.755c-1.646-0.803-3.583-0.217-4.327,1.308c-0.744,1.526-0.013,3.413,1.633,4.216
							c1.645,0.803,3.583,0.217,4.327-1.309C190.09,247.445,189.36,245.558,187.714,244.755z M185.728,248.826
							c-0.779-0.38-1.126-1.274-0.773-1.997c0.352-0.723,1.27-1,2.05-0.62c0.779,0.38,1.126,1.274,0.773,1.997
							C187.426,248.928,186.508,249.206,185.728,248.826z"/>
					</g>
				</g>
				<g>
					<path style="fill:#F49C84;" d="M157.309,227.012c0,0-6.895,15.279-7.346,19.567c-0.451,4.289,27.335,17.199,27.335,17.199
						l-7.251,17.135c0,0-44.439-10.905-48.511-24.257c-4.071-13.352,10.154-41.043,10.154-41.043"/>
					<g>
						<path style="fill:#F49C84;" d="M163.105,256.592c0,0,26.113,11.845,26.206,13.227c0.093,1.382-4.827-0.593-4.539,0.527
							c0.288,1.12,11.736,5.365,11.461,6.77c-0.373,1.904-9.724-2.199-9.724-2.199s10.104,5.054,9.302,6.613
							c-0.568,1.104-9.149-2.367-12.595-3.283c3.608,1.467,9.172,4.537,8.559,5.67c-0.609,1.124-6.5-1.114-11.107-2.589
							c2.788,1.19,7.746,3.627,7.228,4.7c-0.516,1.07-21.252-5.843-34.933-10.572"/>
					</g>
				</g>
				<path style="fill:#2B88F7;" d="M175.375,177.543c-11.608-0.186-23.008,3.318-29.485,9.472
					c-9.71,9.225-18.641,32.296-18.641,32.296l31,12l13.5-26.268"/>
				
					<line style="fill:none;stroke:#273B7A;stroke-width:0.75;stroke-miterlimit:10;" x1="156.099" y1="230.772" x2="166.546" y2="212.668"/>
				
					<line style="fill:none;stroke:#273B7A;stroke-width:0.75;stroke-miterlimit:10;" x1="159.046" y1="225.665" x2="129.191" y2="213.592"/>
				<path style="fill:none;stroke:#273B7A;stroke-width:0.75;stroke-miterlimit:10;" d="M216.877,226.372
					c-1.343-10.68-4.257-24.357-4.257-24.357"/>
				
					<line style="fill:none;stroke:#273B7A;stroke-width:0.75;stroke-miterlimit:10;" x1="216.136" y1="221.119" x2="231.519" y2="210.467"/>
			</g>
		</g>
		<g>
			<g>
				<g id="XMLID_31_">
					<path style="fill:#86ADA8;" d="M615.809,347.968c-2.873-0.919-6.164-1.22-8.927-0.067c-1.534,0.64-2.799,1.679-4.134,2.605
						c-2.415,1.675-5.634,3.055-8.469,2.016c-2.601-0.953-3.889-3.826-3.201-6.241c0.688-2.415,3.007-4.291,5.642-5.166
						c2.636-0.875,5.55-0.865,8.336-0.503"/>
				</g>
				<g id="XMLID_29_">
					<path style="fill:#BCDDCB;" d="M630.653,373.22c-14.556,0.193-14.982-19.493-20.998-27.206
						c-2.764-3.543-6.424-5.704-11.148-5.413c2.06-1.369,19.235-2.788,22.927-0.868c4.143,2.154,6.294,4.777,8.229,8.589
						C631.869,352.668,639.919,368.821,630.653,373.22"/>
				</g>
				<g id="XMLID_28_">
					<g>
						<path style="fill:#8EBCA1;" d="M602.791,340.017c28.572-0.877,27.732,40.017,31.71,59.179
							c0.067,0.324,0.531,0.178,0.486-0.134c-1.052-7.361-2.075-14.74-3.319-22.071c-1.172-6.909-2.563-13.938-5.298-20.423
							c-4.21-9.98-12.17-17.608-23.579-16.867C602.59,339.714,602.586,340.023,602.791,340.017L602.791,340.017z"/>
					</g>
				</g>
				<g>
					<path style="fill:#D6E8DD;" d="M637.216,357.87c-5.405-2.055-8.434-7.931-9.439-13.626c-1.818-10.3-3.168-20.72-5.962-30.819
						c-2.99-10.809-8.238-20.046-13.916-29.622c-2.507-4.228-5.052-10.002-1.671-13.571c1.339-1.413,3.333-2.028,5.273-2.19
						c6.784-0.566,13.209,3.833,16.992,9.492c3.783,5.659,5.43,12.438,7.01,19.059c1.07,4.485,2.141,8.969,3.211,13.454
						C642.46,325.748,646.472,348.158,637.216,357.87"/>
				</g>
				<g>
					<path style="fill:#86ADA8;" d="M670.294,325.007c3.52-2.191,7.887-2.716,11.998-2.174c4.111,0.542,8.021,2.077,11.808,3.766
						c1.626,0.725,3.275,1.491,5.045,1.672c1.771,0.181,3.724-0.338,4.792-1.761c1.246-1.661,0.924-4.128-0.294-5.809
						s-3.142-2.707-5.084-3.442c-4.889-1.851-10.208-2.201-15.435-2.285"/>
				</g>
				<g>
					<g>
						<path style="fill:#8EBCA1;" d="M684.782,318.091c6.423-0.703,11.859,2.886,14.247,8.795c0.085,0.211,0.419,0.134,0.35-0.096
							c-1.907-6.404-8.139-9.938-14.643-9.032C684.549,317.783,684.591,318.111,684.782,318.091L684.782,318.091z"/>
					</g>
				</g>
				<path style="fill:none;stroke:#8EBCA1;stroke-width:0.75;stroke-miterlimit:10;" d="M607.463,269.249
					c8.662,5.287,15.762,19.058,20.156,30.932c3.522,9.517,5.997,19.379,7.493,29.417c3.205,21.504,4.655,52.846,3.875,74.573"/>
				<g>
					<path style="fill:#D6E8DD;" d="M654.116,352.913c8.147-3.191,8.457-15.194,15.385-24.127
						c5.722-7.378,13.422-11.659,27.003-12.49c-5.914-2.035-12.067-3.577-18.321-3.651c-6.254-0.075-12.646,1.4-17.781,4.969
						C653.032,322.736,641.46,346.416,654.116,352.913"/>
				</g>
				<path style="fill:none;stroke:#8EBCA1;stroke-width:0.75;stroke-miterlimit:10;" d="M689.048,314.102
					c-9.235-0.712-18.424,3.162-24.971,9.592c-10.096,9.917-9.959,25.236-10.9,38.356c-1.222,17.041-2.297,34.092-3.223,51.152"/>
				<g id="XMLID_30_">
					<path style="fill:#BCDDCB;" d="M650.313,334.257c-7.222-3.529-6.516-13.508-6.159-19.718
						c0.864-15.058,4.231-33.087,13.187-45.917c6.918-9.912,17.177-15.451,29.252-11.599c3.987,1.272,10.491,6.144,7.933,11.097
						c-1.703,3.297-9.009,5.467-12,8.15c-3.829,3.435-6.89,7.635-9.386,12.114c-5.088,9.133-7.862,19.349-10.561,29.381
						C660.547,325.309,658.643,333.065,650.313,334.257"/>
				</g>
				<g id="XMLID_27_">
					<path style="fill:#86ADA8;" d="M685.843,351.79c2.664-0.75,7.394-1.086,10.148-0.543c1.248,0.657,3.541,2.061,5.132,4.641
						c1.828,2.966,2.068,11.376-3.574,9.926c-2.352-0.605-3.429-3.224-4.84-5.201c-1.76-2.466-4.49-4.218-7.465-4.79
						c-2.974-0.573-6.16,0.041-8.71,1.677"/>
				</g>
				<g id="XMLID_26_">
					<g>
						<path style="fill:#8EBCA1;" d="M698.618,362.176c-0.241-4.749-3.155-7.919-6.748-10.733c-1.761-1.379-3.275-2.442-5.546-2.705
							c-2.531-0.293-5.253,0.014-7.723,0.609c-0.138,0.033-0.103,0.237,0.033,0.242c4.575,0.159,8.312-1.138,12.31,1.876
							c3.669,2.766,6.941,5.854,7.264,10.711C698.225,362.437,698.631,362.441,698.618,362.176L698.618,362.176z"/>
					</g>
				</g>
				<g id="XMLID_25_">
					<path style="fill:#BCDDCB;" d="M697.8,352.366c-6.617-1.228-15.207,2.093-19.909,7.024c-2.212,2.32-4.336,5.31-7.488,5.594
						c-3.255,0.293-7.366,0.595-7.48-6.231c-0.087-5.18,3.044-6.513,5.793-8.325c2.749-1.812,6.075-2.465,9.334-2.711
						C681.868,347.429,691.993,346.093,697.8,352.366"/>
				</g>
				<g id="XMLID_24_">
					<g>
						<path style="fill:#8EBCA1;" d="M688.536,348.35c-10.633,0.071-19.478,6.966-24.078,16.27
							c-3.863,7.814-5.177,16.814-6.145,25.381c-1.022,9.041-1.734,18.319-1.52,27.419c0.007,0.3,0.442,0.295,0.463,0
							c0.924-13.247,0.886-26.524,3.614-39.588c1.47-7.038,3.74-13.904,8.403-19.5c4.879-5.855,11.585-9.452,19.264-9.643
							C688.754,348.684,688.755,348.349,688.536,348.35L688.536,348.35z"/>
					</g>
				</g>
				<g id="XMLID_8_">
					<g>
						<path style="fill:#8EBCA1;" d="M678.05,262.693c-7.045,3.826-11.846,11.11-15.484,18.038
							c-3.979,7.575-6.653,15.77-8.569,24.09c-4.36,18.935-6.078,38.761-6.861,58.139c-0.465,11.508-0.619,23.125,0.205,34.62
							c0.016,0.216,0.344,0.221,0.34,0c-0.396-19.464-0.32-38.772,1.602-58.17c1.785-18.021,3.948-36.832,11.271-53.581
							c3.755-8.59,9.141-18.284,17.565-23.017C678.194,262.767,678.127,262.652,678.05,262.693L678.05,262.693z"/>
					</g>
				</g>
				<path id="XMLID_2_" style="fill:#F2F5F9;" d="M678.184,395.109v15.313c0,33.901-12.65,55.719-12.65,55.719h-39.169
					c0,0-12.649-21.817-12.649-55.719v-15.313H678.184z"/>
			</g>
			<g>
				<g id="XMLID_588_">
					<path style="fill:#86ADA8;" d="M49.539,370.855c-1.751,1.562-3.538,3.169-4.64,5.24c-1.102,2.071-1.396,4.736-0.128,6.71
						c0.445,0.692,1.055,1.265,1.71,1.762c2.094,1.587,4.784,2.457,7.388,2.107c2.604-0.35,5.061-2.008,6.116-4.414
						c0.618-1.409,0.746-2.977,1.156-4.46c1.23-4.448,5.475-8.076,10.088-7.961"/>
				</g>
				<g id="XMLID_481_">
					<path style="fill:#BCDDCB;" d="M87.612,386.112c-3.751,3.24-10.391,2.986-14.446,0.472c-5.641-3.498-8.606-9.884-14.83-12.756
						c-2.322-1.072-4.971-1.574-7.418-0.867c-2.491,0.72-4.511,2.591-6.802,3.845c4.688-10.662,17.302-15.062,22.27-15.041
						c9.253,0.04,18.226,6.224,21.935,15.118C89.59,379.924,90.055,384.001,87.612,386.112z"/>
				</g>
				<g id="XMLID_9_">
					<path style="fill:#86ADA8;" d="M131.321,349.093c3.445-1.245,7.392-1.654,10.705-0.09c1.839,0.868,3.356,2.276,4.957,3.531
						c2.896,2.27,6.756,4.141,10.156,2.732c3.119-1.292,4.663-5.187,3.839-8.461c-0.825-3.274-3.605-5.817-6.766-7.003
						c-3.16-1.186-6.656-1.173-9.995-0.682"/>
				</g>
				<g id="XMLID_777_">
					<path style="fill:#BCDDCB;" d="M104.955,358.952c-7.222-3.529-6.516-13.509-6.159-19.718c0.569-9.917,0.946-20.012,3.253-29.71
						c3.12-13.117,11.67-25.793,26.268-28.151c4.268-0.689,8.77-0.978,12.917,0.345c4.146,1.323,7.857,4.577,8.405,8.579
						c0.129,0.944,0.069,1.949-0.462,2.748c-0.631,0.948-1.798,1.444-2.881,1.935c-10.604,4.81-18.701,13.971-21.715,24.568
						c-2.138,7.517-1.807,15.536-3.837,23.08C118.713,350.174,113.285,357.76,104.955,358.952"/>
				</g>
				<g id="XMLID_708_">
					<path style="fill:#D6E8DD;" d="M113.521,383.325c11.986,0.18,11.865-10.719,14.787-14.445
						c5.133-6.545,5.676-15.6,10.392-22.436c3.314-4.803,7.703-7.733,13.367-7.338c-2.47-1.855-23.064-3.779-27.491-1.177
						c-4.969,2.92-7.548,6.475-9.868,11.643C112.063,355.465,102.411,377.361,113.521,383.325"/>
				</g>
				<g id="XMLID_707_">
					<g>
						<path style="fill:#BCDDCB;" d="M146.93,337.942c-27.65-1.947-32.533,35.648-35.257,55.376
							c-1.156,8.369-2.212,16.753-3.31,25.129c-0.037,0.279,0.445,0.346,0.495,0.067c3.176-17.654,3.802-35.781,8.969-53.057
							c4.138-13.836,12.897-27.918,29.103-27.199C147.135,338.267,147.131,337.956,146.93,337.942L146.93,337.942z"/>
					</g>
				</g>
				<g id="XMLID_710_">
					<path style="fill:#D6E8DD;" d="M88.929,355.081c-4.58-0.366-8.226-4.188-10.111-8.379c-4.357-9.686-3.533-20.821-9.693-29.815
						c-3.201-4.674-7.556-8.44-11.005-12.934c-4.876-6.352-7.271-15.374-3.53-22.799c5.644-11.203,17.593-6.123,24.847,0.406
						c10.044,9.041,18.329,22.22,20.629,35.075C101.577,325.077,103.912,346.23,88.929,355.081"/>
				</g>
				<g id="XMLID_300_">
					<g>
						<path style="fill:#BCDDCB;" d="M62.361,284.911c6.584,0.338,11.838,8.196,14.705,13.339c4.006,7.183,5.945,15.802,7.567,23.8
							c3.683,18.164,4.609,36.971,5.496,55.445c0.514,10.695,0.786,21.4,0.969,32.105c0.006,0.362,0.562,0.363,0.563,0
							c0.053-20.393-0.982-40.81-2.761-61.123c-0.808-9.225-1.882-18.446-3.783-27.517c-1.697-8.098-3.758-16.753-8.024-23.934
							c-2.989-5.029-8.209-12.352-14.732-12.544C62.085,284.475,62.087,284.897,62.361,284.911L62.361,284.911z"/>
					</g>
				</g>
				<g id="XMLID_586_">
					<path style="fill:#86ADA8;" d="M48.486,331.216c-4.439-0.266-11.986,0.706-16.135,2.346c-1.743,1.34-4.878,4.089-6.516,8.329
						c-1.638,4.24-0.832,9.566,2.503,12.582c2.577,2.331,6.23,3.034,9.659,2.822c1.673-0.104,3.376-0.418,4.817-1.295
						c3.672-2.234,4.523-7.182,6.595-11.011c2.828-5.227,8.562-8.657,14.389-8.608"/>
				</g>
				<g id="XMLID_585_">
					<g>
						<path style="fill:#3F6D54;" d="M35.089,348.728c0.192-4.653,0.786-9.409,3.924-13.081c3.925-4.592,9.227-5.765,14.956-6.244
							c0.173-0.015,0.236-0.279,0.044-0.322c-5.481-1.241-11.719,1.677-15.324,5.766c-3.422,3.881-4.031,8.903-4.147,13.882
							C34.534,349.08,35.075,349.078,35.089,348.728L35.089,348.728z"/>
					</g>
				</g>
				<g id="XMLID_584_">
					<path style="fill:#BCDDCB;" d="M32.351,333.562c8.125-1.508,16.757,1.807,22.53,7.862c2.716,2.849,5.324,6.52,9.194,6.869
						c3.997,0.36,9.044,0.73,9.184-7.65c0.107-6.361-3.737-7.997-7.113-10.222c-3.376-2.225-7.459-3.026-11.461-3.329
						C49.999,326.737,38.611,327.075,32.351,333.562"/>
				</g>
				<g id="XMLID_572_">
					<g>
						<path style="fill:#8EBCA1;" d="M41.812,328.246c13.335,0.273,24.195,9.324,29.538,21.134
							c4.492,9.927,5.97,21.228,7.058,31.958c1.058,10.431,1.178,20.886,1.863,31.336c0.019,0.295,0.457,0.301,0.463,0
							c0.196-9.957-0.539-20.065-1.504-29.972c-0.655-6.726-1.536-13.456-3.006-20.057c-1.986-8.922-5.18-17.46-11.459-24.277
							c-6.008-6.524-14.032-10.411-22.954-10.462C41.593,327.905,41.593,328.242,41.812,328.246L41.812,328.246z"/>
					</g>
				</g>
				<g id="XMLID_660_">
					<g>
						<path style="fill:#8EBCA1;" d="M59.704,365.886c5.443-0.612,10.949-0.062,15.522,3.192c4.24,3.017,7.11,7.685,8.763,12.55
							c3.302,9.719,4.119,20.065,2.794,30.212c-0.026,0.203,0.314,0.247,0.357,0.048c2.229-10.415,0.735-22.967-3.531-32.756
							c-1.875-4.301-4.779-8.281-8.75-10.862c-4.54-2.952-9.947-3.341-15.181-2.574C59.571,365.712,59.596,365.898,59.704,365.886
							L59.704,365.886z"/>
					</g>
				</g>
				<g id="XMLID_466_">
					<g>
						<path style="fill:#8EBCA1;" d="M132.693,287.389c-7.045,3.826-11.846,11.11-15.484,18.038
							c-3.979,7.575-6.653,15.77-8.569,24.09c-4.36,18.935-6.078,38.761-6.861,58.139c-0.465,11.508-0.619,23.125,0.205,34.62
							c0.015,0.216,0.344,0.221,0.34,0c-0.396-19.464-0.32-38.772,1.602-58.171c1.785-18.021,3.948-36.832,11.271-53.581
							c3.756-8.59,9.141-18.284,17.565-23.017C132.836,287.462,132.769,287.347,132.693,287.389L132.693,287.389z"/>
					</g>
				</g>
				<path id="XMLID_7_" style="fill:#F2F5F9;" d="M67.234,407.413v9.638c0,38.218,13.395,49.09,13.395,49.09h29.492
					c0,0,13.395-10.871,13.395-49.09v-9.638H67.234z"/>
			</g>
		</g>
		
			<line style="fill:none;stroke:#91AFE5;stroke-linecap:round;stroke-linejoin:round;stroke-miterlimit:10;" x1="54.098" y1="467.103" x2="686.514" y2="467.103"/>
		<g>
			<g>
				<path style="fill:#AF5743;" d="M495.623,178.187l1.369,8.745c0,0,0.17,5.322,6.166,4.713c6.317-0.643,11.481-6.903,11.481-6.903
					l-5.601-15.681"/>
				<path style="fill:#AF5743;" d="M493.478,156.995c-3.791,4.182-9.066,21.111-1.883,23.981c6.583,2.631,15.832,0.093,18.295-9.816
					C512.479,160.747,503.444,146.001,493.478,156.995z"/>
				<path style="fill:none;stroke:#752D21;stroke-width:0.75;stroke-miterlimit:10;" d="M496.452,182.241
					c0,0,5.572,0.536,9.859-3.751"/>
				<g>
					<g>
						<path style="fill:#FF855A;" d="M509.103,170.043c0.005,0,0.005-0.008,0-0.008S509.098,170.043,509.103,170.043
							L509.103,170.043z"/>
					</g>
				</g>
				<g>
					<g>
						<path style="fill:#FF855A;" d="M509.06,170.014c-0.021,0.03-0.042,0.061-0.064,0.091c-0.037,0.053,0.05,0.103,0.086,0.05
							c0.021-0.03,0.042-0.061,0.064-0.091C509.183,170.011,509.096,169.961,509.06,170.014L509.06,170.014z"/>
					</g>
				</g>
				<path style="fill:none;stroke:#752D21;stroke-width:0.75;stroke-miterlimit:10;" d="M494.068,167.218
					c0,0-2.363,3.296-2.123,4.066c0.322,1.031,2.123,0.77,2.123,0.77"/>
				<path style="fill:#4A1A1A;" d="M498.199,168.281c-0.081,0.364,0.077,0.709,0.352,0.77c0.275,0.061,0.564-0.184,0.645-0.548
					c0.081-0.364-0.077-0.709-0.352-0.77C498.569,167.672,498.28,167.917,498.199,168.281z"/>
				<path style="fill:#4A1A1A;" d="M490.577,165.711c-0.081,0.364,0.077,0.709,0.352,0.77c0.275,0.061,0.564-0.184,0.645-0.548
					c0.081-0.364-0.077-0.709-0.352-0.77C490.947,165.101,490.658,165.347,490.577,165.711z"/>
				<path style="fill:#FFFFFF;" d="M494.957,174.773l-4.615-1.293c0,0-0.575,3.294,1.497,3.938
					C494.385,178.209,494.957,174.773,494.957,174.773z"/>
				<path style="fill:#011E3B;" d="M506.692,172.899c-5.347-5.347-3.416-9.951-3.416-9.951s-12.085-0.368-16.466-4.749
					c0,0,3.177-9.713,11.672-6.066c4.834-2.503,12.486-0.059,15.602,5.011c4.856,7.899-0.052,16.744-2.951,18.364"/>
				<g>
					<path style="fill:#011E3B;" d="M509.836,156.087c-0.797-1.396-0.072-3.618,0.656-4.621c1.351-1.865,4.115-2.512,6.178-1.489
						c2.063,1.023,3.219,3.57,2.684,5.81c-0.535,2.24-2.673,3.977-4.973,4.096c-0.907,0.047-1.941-0.215-2.372-1.015"/>
				</g>
				<g>
					<path style="fill:#AF5743;" d="M504.354,170.098c-0.006-0.338,0.389-1.317,1.409-1.688c1.796-0.652,2.902,1.713,2.695,3.587
						c-0.131,1.177-0.518,2.095-1.279,3.006c-1.003,1.2-2.319,1.464-3.038-0.02"/>
				</g>
				<path style="fill:none;stroke:#4A1A1A;stroke-width:0.5;stroke-linecap:round;stroke-miterlimit:10;" d="M498.178,165.151
					c2.883-0.188,3.417,2.687,3.417,2.687"/>
				<path style="fill:none;stroke:#4A1A1A;stroke-width:0.5;stroke-linecap:round;stroke-miterlimit:10;" d="M490.498,163.42
					c1.583-0.72,3.166,0.461,3.166,0.461"/>
			</g>
			<g>
				<g>
					<path style="fill:#AF5743;" d="M511.674,317.025l-12.709,134.584l-9.81,11.043c0,0,33.616-1.409,34.725-2.533
						c1.109-1.125-0.435-8.794-0.435-8.794l22.604-135.638L511.674,317.025z"/>
					<path style="fill:#011E3B;" d="M518.429,460.039l6.079-5.029l-0.73-2.63l-8.806,7.684l-3.771,0.027l-15.308-6.512
						l-16.391,9.078c-1.663,1.049-0.91,3.621,1.056,3.606l23.385-0.138l6.171-4.326l1.757-0.013l0.03,4.281l12.624-0.09
						l-0.043-5.982L518.429,460.039z"/>
				</g>
				<g>
					<path style="fill:#AF5743;" d="M550.728,317.025l6.02,134.584l-9.809,11.043c0,0,33.616-1.409,34.725-2.533
						c1.109-1.125-0.435-8.794-0.435-8.794l3.875-135.638L550.728,317.025z"/>
					<path style="fill:#011E3B;" d="M576.212,460.039l6.079-5.029l-0.73-2.63l-8.806,7.684l-3.771,0.027l-15.308-6.512
						l-16.391,9.078c-1.663,1.049-0.909,3.621,1.056,3.606l23.385-0.138l6.172-4.326l1.757-0.013l0.03,4.281l12.624-0.09
						l-0.043-5.982L576.212,460.039z"/>
				</g>
				<path style="fill:#223082;" d="M564.331,249.531c4.528,3.155,9.066,7.271,13.441,14.24c14.066,22.404,10.28,76.704,10.28,76.704
					h-86.868c0,0,8.481-69.284,13.878-84.758"/>
				<path style="fill:none;stroke:#121E3A;stroke-width:0.75;stroke-miterlimit:10;" d="M546.938,241.433
					c0,0,16.364,12.142,26.181,27.366c11.464,17.778,10.569,71.675,10.569,71.675"/>
				<path style="fill:none;stroke:#121E3A;stroke-width:0.75;stroke-miterlimit:10;" d="M544.85,258.597
					c11.238,9.945,20.472,0,20.472,0"/>
			</g>
			<g>
				<path style="fill:#AF5743;" d="M486.81,226.507c0,0-20.26,25.189-31.679,22.216c-11.419-2.973-28.656-40.895-28.656-40.895
					l13.365-5.838c0,0,15.113,19.771,17.299,19.866c2.186,0.095,16.609-15.844,16.609-15.844"/>
				<g>
					<path style="fill:#AF5743;" d="M443.371,206.527c0,0-11.437-16.724-12.304-16.724c-0.867,0,0.573,2.991-0.139,2.858
						c-0.712-0.133-4.079-6.805-4.945-6.574c-1.174,0.313,2.055,6.247,2.055,6.247s-0.924-1.133-1.864-0.567
						c-0.666,0.401-0.117,2.197-0.117,2.197s-0.991-0.685-1.673-0.254c-0.677,0.428-0.146,1.976-0.146,1.976s-0.924-1.294-1.7-0.338
						c-0.727,0.895,2.276,9.828,7.457,19.742"/>
				</g>
				<path style="fill:none;stroke:#752D21;stroke-width:0.75;stroke-miterlimit:10;" d="M431.666,194.148
					c0,0,0.246,3.199,0.988,5.841"/>
				<g>
					<path style="fill:#752D21;" d="M422.672,197.369c0.493,0.74,0.994,1.474,1.535,2.173c0.27,0.349,0.553,0.689,0.857,0.997
						c0.15,0.154,0.313,0.299,0.475,0.411c0.165,0.148,0.341,0.136,0.341,0.126c0.044-0.035,0.056-0.284,0.025-0.472
						c-0.027-0.203-0.076-0.412-0.132-0.62c-0.115-0.416-0.261-0.83-0.417-1.24c-0.311-0.82-0.682-1.626-1.042-2.424l0.58-0.278
						c0.456,0.877,0.946,1.751,1.476,2.581c0.267,0.412,0.545,0.821,0.851,1.178c0.149,0.172,0.321,0.349,0.46,0.43
						c0.076,0.054,0.1,0.016,0.014,0.044c-0.095,0.066-0.037,0.048-0.035-0.046c0.04-0.363-0.071-0.884-0.166-1.346
						c-0.106-0.476-0.237-0.953-0.378-1.428c-0.284-0.949-0.608-1.896-0.953-2.825l0.619-0.256c0.404,0.93,0.86,1.848,1.327,2.746
						c0.238,0.446,0.487,0.888,0.772,1.29c0.142,0.199,0.296,0.393,0.457,0.529c0.077,0.064,0.164,0.099,0.173,0.095
						c-0.015,0.012,0.007,0.016,0.038-0.088c0.082-0.405-0.016-0.949-0.1-1.434c-0.092-0.498-0.2-0.998-0.324-1.495
						c-0.248-0.994-0.538-1.979-0.833-2.964c0.405,0.946,0.764,1.911,1.09,2.89c0.161,0.49,0.316,0.984,0.441,1.49
						c0.104,0.517,0.253,1.002,0.169,1.617c-0.018,0.137-0.136,0.418-0.424,0.454c-0.251,0.021-0.4-0.092-0.527-0.175
						c-0.24-0.185-0.413-0.393-0.581-0.603c-0.329-0.422-0.605-0.865-0.873-1.313c-0.534-0.896-0.979-1.827-1.417-2.77l0.619-0.256
						c0.368,0.944,0.708,1.89,1.014,2.857c0.152,0.484,0.294,0.972,0.414,1.472c0.108,0.513,0.241,0.988,0.171,1.627
						c-0.032,0.145-0.051,0.404-0.378,0.59c-0.323,0.135-0.569-0.004-0.697-0.08c-0.289-0.184-0.456-0.388-0.634-0.592
						c-0.34-0.411-0.619-0.838-0.89-1.271c-0.536-0.868-1.014-1.753-1.468-2.661l0.58-0.278c0.37,0.822,0.677,1.66,0.965,2.512
						c0.14,0.427,0.27,0.859,0.372,1.305c0.049,0.224,0.092,0.45,0.113,0.689c-0.005,0.239,0.076,0.488-0.174,0.809
						c-0.15,0.154-0.391,0.134-0.513,0.089c-0.144-0.048-0.254-0.118-0.346-0.195c-0.198-0.148-0.35-0.321-0.499-0.494
						c-0.295-0.348-0.554-0.714-0.8-1.088C423.523,198.934,423.079,198.161,422.672,197.369z"/>
				</g>
				<path style="fill:#B9B5B2;" d="M497.145,185.503c-13.673,0-30.536,25.558-30.536,25.558l20.841,19.485l29.13-30.76"/>
				<path style="fill:#B9B5B2;" d="M516.513,182.814c0,0,12.035-0.551,19.769,4.82c14.371,9.979,28.049,61.898,28.049,61.898
					c-14.421,15.003-50.353,20.75-50.353,20.75s-11.181-20.252-19.576-28.647s-10.769-16.469-7.309-33.682L516.513,182.814z"/>
				<path style="fill:#FFFFFF;" d="M512.596,179.02l-9.437,10.941l5.841,6.286c0,0,4.137-7.058,7.512-13.433L512.596,179.02z"/>
				<path style="fill:#FFFFFF;" d="M503.159,189.961l-5.524,6.21c0,0-2.978-5.147-3.568-10.285l2.506-1.632L503.159,189.961z"/>
				<path style="fill:none;stroke:#846A6A;stroke-width:0.75;stroke-miterlimit:10;" d="M486.195,228.939
					c-1.765-7.5,1.255-20.536,1.255-20.536"/>
				<g>
					<path style="fill:#AF5743;" d="M537.707,228.165c-12.013,45.331-28.856,73.803-28.856,73.803l-14.628-6.432
						c14.817-46.569,18.839-73.468,18.839-73.468"/>
					<path style="fill:#B9B5B2;" d="M514.486,201.99l-4.946,23.233l29.52,5.279c0,0,3.035-10.509,4.32-19.989"/>
					
						<line style="fill:none;stroke:#846A6A;stroke-width:0.75;stroke-miterlimit:10;" x1="538.649" y1="230.546" x2="542.501" y2="215.09"/>
					
						<line style="fill:none;stroke:#846A6A;stroke-width:0.75;stroke-miterlimit:10;" x1="509.54" y1="225.224" x2="512.704" y2="209.443"/>
					<path style="fill:#AF5743;" d="M516.581,286.862c0,0-7.227,17.806-10.27,17.806c-3.044,0-29.721,0.171-37.427,0.171
						c0.147-1.382,6.533-4.141,11.94-5.796c3.235-0.99,13.399-3.507,13.399-3.507l5.668-18.59"/>
				</g>
			</g>
		</g>
	</g>
</g>
</svg>
