<?xml version="1.0" encoding="utf-8"?>
<!-- Generator: Adobe Illustrator 27.5.0, SVG Export Plug-In . SVG Version: 6.00 Build 0)  -->
<svg version="1.1" xmlns="http://www.w3.org/2000/svg" xmlns:xlink="http://www.w3.org/1999/xlink" x="0px" y="0px"
	 viewBox="0 0 750 500" style="enable-background:new 0 0 750 500;" xml:space="preserve">
<g id="BACKGROUND">
	<rect style="fill:#FFFFFF;" width="750" height="500"/>
</g>
<g id="OBJECTS">
	<g>
		<g>
			<g>
				<path style="fill:#E9F9FF;" d="M495.197,267.083c-0.926-14.255-4.97-29.334,4.354-41.824c5.155-6.906,14.482-7.565,22.148-9.756
					c13.117-3.749,21.404-13.131,24.65-26.271c1.298-5.256,3.996-10.701,8.974-12.829c7.407-3.168,16.169,2.339,23.864-0.047
					c4.132-1.282,7.249-4.592,10.667-7.246c8.265-6.419,19.809-7.154,19.809-7.154s-3.231,8.367-1.19,18.246
					c1.31,6.339,1.901,13.145,0.418,19.556c-1.158,5.01-3.949,8.592-7.992,11.604c-4.759,3.545-8.378,6.554-10.678,12.086
					c-3.55,8.538,1.603,30.958-10.404,32.285c-3.267,0.361-6.683-0.761-9.818,0.552c-5.681,2.381-3.466,9.574-5.233,14.183
					c-2.717,7.086-8.251,14.604-14.892,17.147c-15.841,6.069-36.825,3.831-53.051-1.85"/>
				<path style="fill:none;stroke:#FFFFFF;stroke-width:1.5;stroke-linejoin:round;stroke-miterlimit:10;" d="M609.375,162.81
					c-25.897,21.569-37.775,56.676-64.195,77.6c-7.926,6.278-16.919,11.064-25.166,16.915c-8.246,5.851-15.964,13.089-19.774,22.456
					"/>
				<path style="fill:none;stroke:#FFFFFF;stroke-width:1.5;stroke-linejoin:round;stroke-miterlimit:10;" d="M562.087,175.157
					c-2.24,12.29-3.472,31.143-1.658,50.13c0,0,22.883-2.541,31.801-5.624"/>
				<path style="fill:none;stroke:#FFFFFF;stroke-width:1.5;stroke-linejoin:round;stroke-miterlimit:10;" d="M569.556,176.237
					c-2.016,13.557-2.167,25.067-2.834,41.027"/>
				<path style="fill:none;stroke:#FFFFFF;stroke-width:1.5;stroke-linejoin:round;stroke-miterlimit:10;" d="M581.19,175.304
					c0,0-1.287,11.567-0.795,22.225"/>
				<path style="fill:none;stroke:#FFFFFF;stroke-width:1.5;stroke-linejoin:round;stroke-miterlimit:10;" d="M596.635,165.199
					c-0.163,0.069-0.855,3.669-1.404,12.028"/>
				<path style="fill:none;stroke:#FFFFFF;stroke-width:1.5;stroke-linejoin:round;stroke-miterlimit:10;" d="M583.431,193.082
					c-0.059,0.085,16.37-3.997,25.826-7.492"/>
				<path style="fill:none;stroke:#FFFFFF;stroke-width:1.5;stroke-linejoin:round;stroke-miterlimit:10;" d="M568.944,214.217
					c0.054-0.075,25.773-3.192,36.774-7.556"/>
				<path style="fill:none;stroke:#FFFFFF;stroke-width:1.5;stroke-linejoin:round;stroke-miterlimit:10;" d="M541.483,200.958
					c-0.247,0.396-3.571,23.625-1.299,43.148"/>
				<path style="fill:none;stroke:#FFFFFF;stroke-width:1.5;stroke-linejoin:round;stroke-miterlimit:10;" d="M547.075,238.86
					c0,0,27.236,0.055,41.345-2.441"/>
				<path style="fill:none;stroke:#FFFFFF;stroke-width:1.5;stroke-linejoin:round;stroke-miterlimit:10;" d="M568.918,259.501
					c-16.882,1.217-49.996-1.389-49.996-1.389s-1.414-30.438,2.777-42.609"/>
				<path style="fill:none;stroke:#FFFFFF;stroke-width:1.5;stroke-linejoin:round;stroke-miterlimit:10;" d="M506.148,269.918
					c0,0,37.366,4.446,57.154,3.856"/>
				<path style="fill:none;stroke:#FFFFFF;stroke-width:1.5;stroke-linejoin:round;stroke-miterlimit:10;" d="M514.091,217.039
					c0,0-5.134,23.961-0.174,45.002"/>
				<path style="fill:none;stroke:#FFFFFF;stroke-width:1.5;stroke-linejoin:round;stroke-miterlimit:10;" d="M502.774,274.633
					c0,0,29.003,9.642,55.368,6.859"/>
			</g>
			<g>
				<path style="fill:none;stroke:#D2EBFF;stroke-miterlimit:10;" d="M496.405,221.851c11.869-46.691,40.58-85.233,40.58-85.233"/>
				<path style="fill:#D2EBFF;" d="M535.77,138.093c0,0,4.327-21.539,13.572-18.34C558.587,122.954,535.77,138.093,535.77,138.093z"
					/>
				<path style="fill:#D2EBFF;" d="M529.831,147.126c0,0-11.465-20.222-1.855-24.07S529.831,147.126,529.831,147.126z"/>
				<path style="fill:#D2EBFF;" d="M524.453,156.947c0,0-18.454-14.137-11.11-21.432
					C520.687,128.219,524.453,156.947,524.453,156.947z"/>
				<path style="fill:#D2EBFF;" d="M515.525,172.149c0,0-17.37-13.307-10.458-20.174
					C511.98,145.108,515.525,172.149,515.525,172.149z"/>
				<path style="fill:#D2EBFF;" d="M515.525,172.149c0,0,19.769-9.381,22.724-0.095
					C541.203,181.339,515.525,172.149,515.525,172.149z"/>
				<path style="fill:#D2EBFF;" d="M508.144,187.898c0,0-17.371-13.307-10.458-20.174
					C504.599,160.857,508.144,187.898,508.144,187.898z"/>
				<path style="fill:#D2EBFF;" d="M508.144,187.898c0,0,19.769-9.38,22.724-0.095C533.822,197.088,508.144,187.898,508.144,187.898
					z"/>
				<path style="fill:#D2EBFF;" d="M501.605,203.944c0,0-17.371-13.307-10.458-20.174
					C498.06,176.902,501.605,203.944,501.605,203.944z"/>
				<path style="fill:#D2EBFF;" d="M501.605,203.944c0,0,19.769-9.38,22.724-0.095C527.283,213.134,501.605,203.944,501.605,203.944
					z"/>
				<path style="fill:#D2EBFF;" d="M524.293,156.474c0,0,21.806-8.056,24.054,2.048
					C550.595,168.627,524.293,156.474,524.293,156.474z"/>
				<path style="fill:#D2EBFF;" d="M529.831,147.126c0,0,18.645-13.884,23.654-4.825
					C558.494,151.361,529.831,147.126,529.831,147.126z"/>
			</g>
			<g>
				<path style="fill:#D2EBFF;" d="M201.529,326.758c-22.679,0.831-45.347-5.888-64.797-17.581
					c-19.451-11.693-48.222-42.71-57.57-74.601c64.342-5.055,108.391,39.588,124.385,70.784"/>
				<path style="fill:none;stroke:#FFFFFF;stroke-width:1.5;stroke-linejoin:round;stroke-miterlimit:10;" d="M79.163,234.576
					c0,0,38.1,70.78,120.661,86.241"/>
				<path style="fill:none;stroke:#FFFFFF;stroke-width:1.5;stroke-linejoin:round;stroke-miterlimit:10;" d="M79.163,234.576
					c0,0,66.522,55.465,126.204,81.823"/>
				<path style="fill:none;stroke:#FFFFFF;stroke-width:1.5;stroke-linejoin:round;stroke-miterlimit:10;" d="M79.163,234.576
					c0,0,75.92,23.852,127.326,76.674"/>
			</g>
			<g>
				<path style="fill:#D2EBFF;" d="M506.812,335.603c4.181-24.918,16.961-47.676,34.681-65.519
					c17.72-17.843,59.56-40.336,98.005-41.44c-11.811,59.947-69.609,106.704-108.765,115.24"/>
				<path style="fill:none;stroke:#FFFFFF;stroke-width:1.5;stroke-linejoin:round;stroke-miterlimit:10;" d="M639.498,228.644
					c0,0-89.25,21.338-125.532,106.792"/>
				<path style="fill:none;stroke:#FFFFFF;stroke-width:1.5;stroke-linejoin:round;stroke-miterlimit:10;" d="M639.498,228.644
					c0,0-78.229,56.624-121.752,114.081"/>
				<path style="fill:none;stroke:#FFFFFF;stroke-width:1.5;stroke-linejoin:round;stroke-miterlimit:10;" d="M639.498,228.644
					c0,0-44.34,75.841-116.141,116.765"/>
			</g>
			<g>
				<path style="fill:#E9F9FF;" d="M237.139,288.424c-19.473-14.469-33.339-35.344-40.844-58.292
					c-7.505-22.948-8.439-68.549,7.426-101.895c46.08,36.306,60.778,106.157,50.955,143.36"/>
				<path style="fill:none;stroke:#FFFFFF;stroke-width:1.5;stroke-linejoin:round;stroke-miterlimit:10;" d="M203.722,128.236
					c0,0-20.782,85.622,36.403,153.999"/>
				<path style="fill:none;stroke:#FFFFFF;stroke-width:1.5;stroke-linejoin:round;stroke-miterlimit:10;" d="M203.722,128.236
					c0,0,14.2,91.629,44.286,153.954"/>
				<path style="fill:none;stroke:#FFFFFF;stroke-width:1.5;stroke-linejoin:round;stroke-miterlimit:10;" d="M203.722,128.236
					c0,0,45.444,71.062,49.034,150.331"/>
			</g>
			<g>
				<path style="fill:#E9F9FF;" d="M414.134,427.846c37.803,6.908,86.197,4.155,122.21-8.729
					c36.013-12.884,91.893-42.232,116.807-88.253c-106.465-23.686-200.949,31.628-236.811,74.94"/>
				<path style="fill:none;stroke:#FFFFFF;stroke-width:1.5;stroke-linejoin:round;stroke-miterlimit:10;" d="M653.151,330.864
					c0,0-89.36,93.136-237.099,91.367"/>
				<path style="fill:none;stroke:#FFFFFF;stroke-width:1.5;stroke-linejoin:round;stroke-miterlimit:10;" d="M653.151,330.864
					c0,0-124.527,71.425-239.368,88.093"/>
				<path style="fill:none;stroke:#FFFFFF;stroke-width:1.5;stroke-linejoin:round;stroke-miterlimit:10;" d="M653.151,330.864
					c0,0-136.827-2.773-239.751,78.43"/>
				<path style="fill:none;stroke:#FFFFFF;stroke-width:1.5;stroke-linejoin:round;stroke-miterlimit:10;" d="M653.151,330.864
					c0,0-132.576,32.262-240.014,83.784"/>
			</g>
			<g>
				<path style="fill:#D2EBFF;" d="M443.312,240.463c21.618-12.114,38.393-31.45,48.995-53.719
					c10.602-22.268,17.506-68.344,5.791-104.2c-51.428,30.761-75.445,99.605-70.354,138.579"/>
				<path style="fill:none;stroke:#FFFFFF;stroke-width:1.5;stroke-linejoin:round;stroke-miterlimit:10;" d="M498.098,82.544
					c0,0,9.866,89.459-57.002,151.259"/>
				<path style="fill:none;stroke:#FFFFFF;stroke-width:1.5;stroke-linejoin:round;stroke-miterlimit:10;" d="M498.098,82.544
					c0,0-26.358,90.974-64.983,150.184"/>
				<path style="fill:none;stroke:#FFFFFF;stroke-width:1.5;stroke-linejoin:round;stroke-miterlimit:10;" d="M498.098,82.544
					c0,0-55.324,66.055-69.319,145.893"/>
			</g>
			<g>
				<path style="fill:#E9F9FF;" d="M233.81,376.048c-6.421-16.487-9.773-35.531-26.777-44.673
					c-9.401-5.054-20.217-0.913-29.969,0.639c-16.688,2.657-30.901-3.539-41.421-16.591c-4.208-5.221-10.087-9.921-16.789-9.705
					c-9.973,0.321-16.927,11.088-26.814,12.436c-5.31,0.724-10.541-1.361-15.766-2.551c-12.638-2.88-25.982,2.336-25.982,2.336
					s8.006,7.702,10.885,19.86c1.847,7.801,4.746,15.751,9.766,22.172c3.922,5.018,8.93,7.579,15.045,8.844
					c7.198,1.489,12.835,2.973,18.313,7.979c8.454,7.727,14.403,35.592,28.577,30.798c3.857-1.304,7.104-4.352,11.311-4.518
					c7.623-0.301,8.902,8.934,13.298,13.183c6.759,6.533,16.906,12.075,25.692,11.456c20.96-1.478,43.344-14.972,58.586-29.842"/>
				<path style="fill:none;stroke:#FFFFFF;stroke-width:1.5;stroke-linejoin:round;stroke-miterlimit:10;" d="M51.06,318.749
					c40.36,10.659,72.069,43.853,112.679,53.516c12.184,2.899,24.784,3.566,37.104,5.818c12.32,2.253,24.771,6.339,33.951,14.859"/>
				<path style="fill:none;stroke:#FFFFFF;stroke-width:1.5;stroke-linejoin:round;stroke-miterlimit:10;" d="M110.608,307.861
					c8.947,12.625,20.196,33.144,28.098,55.408c0,0-27.018,9.124-38.644,10.331"/>
				<path style="fill:none;stroke:#FFFFFF;stroke-width:1.5;stroke-linejoin:round;stroke-miterlimit:10;" d="M102.789,312.982
					c9.359,14.164,15.552,27.005,24.654,44.574"/>
				<path style="fill:none;stroke:#FFFFFF;stroke-width:1.5;stroke-linejoin:round;stroke-miterlimit:10;" d="M89.24,318.023
					c0,0,7.499,12.312,12.525,24.533"/>
				<path style="fill:none;stroke:#FFFFFF;stroke-width:1.5;stroke-linejoin:round;stroke-miterlimit:10;" d="M66.613,314.763
					c0.219-0.008,2.88,3.672,7.871,12.768"/>
				<path style="fill:none;stroke:#FFFFFF;stroke-width:1.5;stroke-linejoin:round;stroke-miterlimit:10;" d="M96.029,339.153
					c0.111,0.065-20.469,4.081-32.913,5.106"/>
				<path style="fill:none;stroke:#FFFFFF;stroke-width:1.5;stroke-linejoin:round;stroke-miterlimit:10;" d="M123.354,355.297
					c-0.1-0.056-30.603,9.905-45.237,10.765"/>
				<path style="fill:none;stroke:#FFFFFF;stroke-width:1.5;stroke-linejoin:round;stroke-miterlimit:10;" d="M147.242,326.04
					c0.485,0.316,16.374,24.652,24.04,47.757"/>
				<path style="fill:none;stroke:#FFFFFF;stroke-width:1.5;stroke-linejoin:round;stroke-miterlimit:10;" d="M160.8,371.516
					c0,0-30.546,14.316-47.691,18.899"/>
				<path style="fill:none;stroke:#FFFFFF;stroke-width:1.5;stroke-linejoin:round;stroke-miterlimit:10;" d="M147.083,406.12
					c19.589-7.469,55.398-27.726,55.398-27.726s-14.344-34.909-25.418-46.38"/>
				<path style="fill:none;stroke:#FFFFFF;stroke-width:1.5;stroke-linejoin:round;stroke-miterlimit:10;" d="M223,384.962
					c0,0-39.619,24.547-62.143,34.241"/>
				<path style="fill:none;stroke:#FFFFFF;stroke-width:1.5;stroke-linejoin:round;stroke-miterlimit:10;" d="M186.409,329.757
					c0,0,18.303,24.212,23.747,50.428"/>
				<path style="fill:none;stroke:#FFFFFF;stroke-width:1.5;stroke-linejoin:round;stroke-miterlimit:10;" d="M229.255,388.489
					c0,0-27.512,26.004-58.566,36.678"/>
			</g>
			<g>
				<path style="fill:none;stroke:#D2EBFF;stroke-miterlimit:10;" d="M200.804,289.721c-12.57-56.846-61.323-86.137-61.323-86.137"
					/>
				<path style="fill:#D2EBFF;" d="M140.945,204.532c0,0-9.708-17.551-16.87-12.216
					C116.912,197.652,140.945,204.532,140.945,204.532z"/>
				<path style="fill:#D2EBFF;" d="M149.391,210.64c0,0,4.399-20.762-5.026-21.459C134.94,188.484,149.391,210.64,149.391,210.64z"
					/>
				<path style="fill:#D2EBFF;" d="M157.439,217.342c0,0,12.16-17.394,3.756-21.717
					C152.791,191.302,157.439,217.342,157.439,217.342z"/>
				<path style="fill:#D2EBFF;" d="M167.974,227.575c0,0,11.446-16.373,3.535-20.442
					C163.599,203.063,167.974,227.575,167.974,227.575z"/>
				<path style="fill:#D2EBFF;" d="M168.592,227.416c0,0-18.724-6.963-20.674,1.716
					C145.967,237.812,168.592,227.416,168.592,227.416z"/>
				<path style="fill:#D2EBFF;" d="M176.413,237.403c0,0,11.446-16.373,3.535-20.442
					C172.039,212.892,176.413,237.403,176.413,237.403z"/>
				<path style="fill:#D2EBFF;" d="M177.032,237.245c0,0-18.724-6.963-20.674,1.717
					C154.407,247.641,177.032,237.245,177.032,237.245z"/>
				<path style="fill:#D2EBFF;" d="M183.46,248.995c0,0,13.469-14.753,6.152-19.812C182.295,224.123,183.46,248.995,183.46,248.995z
					"/>
				<path style="fill:#D2EBFF;" d="M184.093,248.918c0,0-17.665-9.328-20.723-0.975
					C160.313,256.297,184.093,248.918,184.093,248.918z"/>
				<path style="fill:#D2EBFF;" d="M190.163,259.345c0,0,13.469-14.753,6.152-19.812
					C188.998,234.473,190.163,259.345,190.163,259.345z"/>
				<path style="fill:#D2EBFF;" d="M190.796,259.268c0,0-17.665-9.328-20.723-0.975
					C167.016,266.647,190.796,259.268,190.796,259.268z"/>
				<path style="fill:#D2EBFF;" d="M195.645,273.418c0,0,13.469-14.753,6.152-19.812
					C194.481,248.546,195.645,273.418,195.645,273.418z"/>
				<path style="fill:#D2EBFF;" d="M196.279,273.341c0,0-17.665-9.328-20.723-0.975C172.499,280.72,196.279,273.341,196.279,273.341
					z"/>
				<path style="fill:#D2EBFF;" d="M157.129,217.324c0,0-21.199-0.996-20.368,8.418
					C137.591,235.156,157.129,217.324,157.129,217.324z"/>
				<path style="fill:#D2EBFF;" d="M149.033,209.888c0,0-20.056-6.939-21.916,2.327C125.256,221.48,149.033,209.888,149.033,209.888
					z"/>
			</g>
			<g>
				<path style="fill:#E9F9FF;" d="M378.772,216.199c-6.198-11.024-15.201-21.512-12.542-35.053
					c1.47-7.487,8.663-11.585,13.943-16.269c9.035-8.016,12.057-18.679,9.615-30.411c-0.977-4.693-0.908-10.072,2.25-13.678
					c4.7-5.365,13.802-4.325,19.03-9.177c2.808-2.606,4.028-6.442,5.74-9.869c4.139-8.289,13.072-13.297,13.072-13.297
					s0.626,7.916,6.038,15.02c3.473,4.558,6.551,9.765,7.823,15.45c0.994,4.443,0.139,8.371-1.936,12.323
					c-2.441,4.652-4.177,8.44-3.895,13.737c0.436,8.175,13.135,24.098,4.06,29.755c-2.47,1.54-5.626,1.952-7.625,4.201
					c-3.623,4.076,0.9,8.97,1.254,13.325c0.545,6.697-0.994,14.817-5.32,19.391c-10.321,10.911-27.927,17.161-43.055,18.84"/>
				<path style="fill:none;stroke:#FFFFFF;stroke-width:1.5;stroke-linejoin:round;stroke-miterlimit:10;" d="M429.98,89.238
					c-12.412,27.134-8.449,59.707-21.525,86.527c-3.923,8.047-9.268,15.311-13.61,23.14c-4.342,7.829-7.73,16.562-7.184,25.497"/>
				<path style="fill:none;stroke:#FFFFFF;stroke-width:1.5;stroke-linejoin:round;stroke-miterlimit:10;" d="M396.962,117.204
					c2.919,10.668,9.155,26.189,17.875,40.65c0,0,17.293-10.791,23.231-16.668"/>
				<path style="fill:none;stroke:#FFFFFF;stroke-width:1.5;stroke-linejoin:round;stroke-miterlimit:10;" d="M403.337,115.206
					c3.583,11.594,7.87,20.839,13.45,33.834"/>
				<path style="fill:none;stroke:#FFFFFF;stroke-width:1.5;stroke-linejoin:round;stroke-miterlimit:10;" d="M412.266,110.006
					c0,0,3.403,9.726,7.876,18.045"/>
				<path style="fill:none;stroke:#FFFFFF;stroke-width:1.5;stroke-linejoin:round;stroke-miterlimit:10;" d="M420.725,96.025
					c-0.104,0.117,0.723,3.256,3.486,10.139"/>
				<path style="fill:none;stroke:#FFFFFF;stroke-width:1.5;stroke-linejoin:round;stroke-miterlimit:10;" d="M420.863,123.338
					c-0.014,0.09,11.537-9.46,17.746-15.871"/>
				<path style="fill:none;stroke:#FFFFFF;stroke-width:1.5;stroke-linejoin:round;stroke-miterlimit:10;" d="M417.393,145.757
					c0.014-0.081,19.35-12.418,26.461-20.115"/>
				<path style="fill:none;stroke:#FFFFFF;stroke-width:1.5;stroke-linejoin:round;stroke-miterlimit:10;" d="M390.395,145.69
					c-0.045,0.411,6.197,20.226,15.487,34.939"/>
				<path style="fill:none;stroke:#FFFFFF;stroke-width:1.5;stroke-linejoin:round;stroke-miterlimit:10;" d="M409.374,173.802
					c0,0,21.762-10.386,32.068-17.782"/>
				<path style="fill:none;stroke:#FFFFFF;stroke-width:1.5;stroke-linejoin:round;stroke-miterlimit:10;" d="M434.715,181.914
					c-13.009,7.437-40.44,18.038-40.44,18.038s-12.785-23.755-14.101-35.076"/>
				<path style="fill:none;stroke:#FFFFFF;stroke-width:1.5;stroke-linejoin:round;stroke-miterlimit:10;" d="M388.599,214.268
					c0,0,31.529-10.76,47.099-18.81"/>
				<path style="fill:none;stroke:#FFFFFF;stroke-width:1.5;stroke-linejoin:round;stroke-miterlimit:10;" d="M374.689,169.016
					c0,0,5.078,21.092,17.095,35.988"/>
				<path style="fill:none;stroke:#FFFFFF;stroke-width:1.5;stroke-linejoin:round;stroke-miterlimit:10;" d="M387.712,219.323
					c0,0,26.844-3.41,46.823-15.729"/>
			</g>
			<g>
				<g>
					<path style="fill:#E9F9FF;" d="M220.823,95.568c-0.017-0.017-0.139,0-0.161,0c-8.73,0-17.459,0-26.189,0
						c-15.491,0-30.982,0-46.473,0c-11.431,0-14.964-0.366-26.374-0.034c-0.129-7.04,1.833-13.675,5.2-17.229
						c2.765-2.918,7.525-4.514,11.412-3.486c4.921,1.301,8.26,4.595,11.451,7.04c1.129-9.697,5.135-18.535,9.442-20.464
						c7.413-3.32,15.16,1.942,18.637,7.056c2.865,4.213,4.437,9.219,5.019,14.28c4.654-5.143,15.061-9.068,18.81-0.91
						c1.473,3.204,1.352,6.882,1.203,10.405C208.901,90.583,215.708,91.868,220.823,95.568z"/>
				</g>
				<g>
					<path style="fill:#E9F9FF;" d="M591.136,144.687c1.402-5.693,14.631-14.003,21.697-8.986c0.329-6.77,3.488-14.097,11.29-18.326
						c9.576-5.191,18.772,5.133,20.818,11.646c1.896-6.014,11.56-14.105,19.324-7.275c7.183,6.319,7.9,16.911,7.154,22.942H591.136z
						"/>
				</g>
			</g>
		</g>
		<g>
			<path style="fill:none;stroke:#97CBFF;stroke-linejoin:round;stroke-miterlimit:10;" d="M376.599,171.098
				c1.106-2.245,1.977-4.649,2.557-7.196c0.58-2.547,0.834-5.091,0.809-7.594l-6.922-0.545c-0.08-2.32-0.479-4.586-1.157-6.749
				l6.358-2.812c-1.649-4.848-4.421-9.254-8.078-12.838l-5.287,4.515c-1.657-1.547-3.527-2.887-5.584-3.963l2.504-6.477
				c-2.245-1.106-4.649-1.977-7.196-2.557c-2.547-0.579-5.091-0.834-7.594-0.809l-0.545,6.923c-2.32,0.08-4.586,0.479-6.749,1.157
				l-2.812-6.358c-4.848,1.649-9.254,4.421-12.838,8.079l4.515,5.286c-1.547,1.657-2.887,3.528-3.963,5.584l-6.477-2.504
				c-1.106,2.245-1.977,4.649-2.557,7.196c-0.58,2.547-0.834,5.091-0.809,7.594l6.922,0.545c0.081,2.32,0.479,4.586,1.157,6.749
				l-6.358,2.812c1.649,4.848,4.421,9.254,8.078,12.838l5.287-4.515c1.657,1.547,3.527,2.887,5.584,3.963l-2.504,6.477
				c2.245,1.106,4.649,1.977,7.196,2.557c2.547,0.579,5.091,0.834,7.594,0.809l0.545-6.923c2.32-0.08,4.586-0.479,6.749-1.157
				l2.812,6.358c4.848-1.649,9.254-4.421,12.838-8.078l-4.515-5.286c1.547-1.657,2.887-3.527,3.963-5.584L376.599,171.098z
				 M343.884,171.986c-8.459-1.925-13.757-10.343-11.832-18.802c1.925-8.459,10.343-13.756,18.802-11.832
				c8.459,1.925,13.757,10.343,11.832,18.802C360.762,168.614,352.344,173.911,343.884,171.986z"/>
			<path style="fill:none;stroke:#97CBFF;stroke-linejoin:round;stroke-miterlimit:10;" d="M261.981,164.104
				c-0.157-1.782-0.517-3.574-1.108-5.346c-0.591-1.771-1.38-3.42-2.324-4.94l-4.432,2.236c-0.91-1.387-1.995-2.624-3.212-3.695
				l2.841-4.078c-2.807-2.351-6.136-4.014-9.701-4.846l-1.554,4.721c-1.587-0.33-3.227-0.455-4.883-0.349l-0.874-4.887
				c-1.782,0.157-3.574,0.517-5.346,1.108c-1.771,0.591-3.42,1.38-4.94,2.324l2.236,4.432c-1.387,0.91-2.624,1.995-3.694,3.212
				l-4.078-2.841c-2.35,2.807-4.013,6.136-4.846,9.701l4.721,1.554c-0.33,1.587-0.455,3.227-0.349,4.883l-4.887,0.874
				c0.157,1.782,0.517,3.574,1.108,5.346c0.591,1.771,1.38,3.42,2.324,4.94l4.432-2.236c0.91,1.387,1.995,2.624,3.212,3.694
				l-2.841,4.078c2.807,2.35,6.136,4.014,9.701,4.846l1.555-4.721c1.587,0.33,3.227,0.455,4.883,0.349l0.873,4.887
				c1.782-0.157,3.574-0.517,5.346-1.108c1.772-0.591,3.421-1.38,4.94-2.324l-2.236-4.432c1.387-0.91,2.624-1.995,3.694-3.212
				l4.078,2.841c2.35-2.807,4.013-6.136,4.846-9.701l-4.721-1.554c0.33-1.587,0.455-3.227,0.349-4.883L261.981,164.104z
				 M242.321,176.788c-5.883,1.963-12.244-1.214-14.208-7.098c-1.963-5.883,1.214-12.244,7.097-14.208
				c5.883-1.963,12.244,1.214,14.208,7.098C251.382,168.464,248.204,174.825,242.321,176.788z"/>
			<path style="fill:none;stroke:#97CBFF;stroke-linejoin:round;stroke-miterlimit:10;" d="M321.935,109.722
				c-0.182-2.94-0.697-5.906-1.594-8.847c-0.897-2.941-2.124-5.689-3.613-8.232l-7.392,3.49c-1.438-2.323-3.17-4.405-5.128-6.22
				l4.852-6.59c-4.519-3.99-9.927-6.871-15.76-8.395l-2.762,7.704c-2.597-0.612-5.292-0.888-8.022-0.785l-1.228-8.081
				c-2.94,0.182-5.906,0.698-8.847,1.594c-2.941,0.897-5.69,2.124-8.232,3.613l3.49,7.392c-2.323,1.438-4.405,3.17-6.22,5.127
				l-6.59-4.852c-3.99,4.519-6.871,9.927-8.395,15.76l7.704,2.762c-0.612,2.598-0.888,5.292-0.785,8.022l-8.082,1.228
				c0.182,2.941,0.698,5.906,1.594,8.847c0.897,2.941,2.124,5.69,3.613,8.232l7.391-3.49c1.438,2.323,3.17,4.405,5.128,6.219
				l-4.852,6.59c4.519,3.99,9.927,6.871,15.759,8.395l2.762-7.704c2.597,0.612,5.292,0.888,8.022,0.785l1.227,8.081
				c2.94-0.182,5.906-0.698,8.847-1.594c2.942-0.897,5.69-2.124,8.232-3.613l-3.49-7.392c2.323-1.438,4.405-3.17,6.22-5.127
				l6.59,4.852c3.99-4.519,6.871-9.927,8.395-15.76l-7.704-2.762c0.612-2.598,0.888-5.292,0.785-8.022L321.935,109.722z
				 M289.027,129.755c-9.769,2.979-20.102-2.526-23.081-12.295c-2.979-9.769,2.526-20.102,12.295-23.081
				c9.769-2.978,20.103,2.526,23.081,12.295C304.301,116.443,298.796,126.776,289.027,129.755z"/>
			<path style="fill:none;stroke:#97CBFF;stroke-linejoin:round;stroke-miterlimit:10;" d="M327.84,52.078
				c0,1.809-1.466,3.275-3.275,3.275c-1.809,0-3.275-1.466-3.275-3.275c0-1.808,1.466-3.275,3.275-3.275
				C326.374,48.804,327.84,50.27,327.84,52.078z"/>
			<circle style="fill:none;stroke:#97CBFF;stroke-linejoin:round;stroke-miterlimit:10;" cx="466.163" cy="77.963" r="3.275"/>
			<path style="fill:none;stroke:#97CBFF;stroke-linejoin:round;stroke-miterlimit:10;" d="M218.189,115.342
				c0,1.809-1.466,3.275-3.275,3.275c-1.809,0-3.275-1.466-3.275-3.275s1.466-3.275,3.275-3.275
				C216.723,112.067,218.189,113.533,218.189,115.342z"/>
			<path style="fill:none;stroke:#97CBFF;stroke-linejoin:round;stroke-miterlimit:10;" d="M548.212,348.413
				c0,1.809-1.466,3.275-3.275,3.275c-1.809,0-3.275-1.466-3.275-3.275c0-1.809,1.466-3.275,3.275-3.275
				C546.745,345.139,548.212,346.605,548.212,348.413z"/>
			<path style="fill:none;stroke:#97CBFF;stroke-linejoin:round;stroke-miterlimit:10;" d="M382.09,97.076l-7.941-2.833
				c-0.671-0.239-1.387,0.545-1.225,1.342l1.625,7.991c0.134,0.659,0.803,0.898,1.324,0.472l6.316-5.157
				C382.818,98.376,382.76,97.316,382.09,97.076z"/>
			<path style="fill:none;stroke:#97CBFF;stroke-linejoin:round;stroke-miterlimit:10;" d="M216.119,372.631l0.452-8.419
				c0.038-0.711-0.918-1.174-1.635-0.792l-7.196,3.835c-0.594,0.316-0.632,1.025-0.075,1.403l6.744,4.584
				C215.081,373.7,216.081,373.342,216.119,372.631z"/>
			<path style="fill:none;stroke:#97CBFF;stroke-linejoin:round;stroke-miterlimit:10;" d="M66.039,204.916l-8.145,2.176
				c-0.688,0.184-0.832,1.236-0.246,1.8l5.874,5.655c0.485,0.466,1.17,0.283,1.358-0.363l2.271-7.831
				C67.377,205.572,66.727,204.732,66.039,204.916z"/>
			<path style="fill:none;stroke:#97CBFF;stroke-linejoin:round;stroke-miterlimit:10;" d="M670.378,286.562l5.677-6.234
				c0.48-0.527,0.032-1.49-0.766-1.647l-7.999-1.583c-0.66-0.131-1.138,0.394-0.946,1.039l2.322,7.816
				C668.898,286.733,669.899,287.089,670.378,286.562z"/>
			
				<line style="fill:none;stroke:#97CBFF;stroke-linejoin:round;stroke-miterlimit:10;" x1="516.188" y1="104.141" x2="545.167" y2="104.141"/>
			
				<line style="fill:none;stroke:#97CBFF;stroke-linejoin:round;stroke-miterlimit:10;" x1="67.829" y1="297.289" x2="96.809" y2="297.289"/>
			
				<line style="fill:none;stroke:#97CBFF;stroke-linejoin:round;stroke-miterlimit:10;" x1="510.186" y1="97.775" x2="524.188" y2="97.775"/>
			
				<line style="fill:none;stroke:#97CBFF;stroke-linejoin:round;stroke-miterlimit:10;" x1="129.479" y1="152.886" x2="143.481" y2="152.886"/>
			
				<line style="fill:none;stroke:#97CBFF;stroke-linejoin:round;stroke-miterlimit:10;" x1="140.558" y1="147.85" x2="149.507" y2="147.85"/>
			
				<line style="fill:none;stroke:#97CBFF;stroke-linejoin:round;stroke-miterlimit:10;" x1="667.146" y1="350.463" x2="681.148" y2="350.463"/>
			
				<line style="fill:none;stroke:#97CBFF;stroke-linejoin:round;stroke-miterlimit:10;" x1="679.745" y1="344.678" x2="689.509" y2="344.678"/>
			
				<line style="fill:none;stroke:#97CBFF;stroke-linejoin:round;stroke-miterlimit:10;" x1="86.945" y1="304.121" x2="100.947" y2="304.121"/>
			<path style="fill:none;stroke:#97CBFF;stroke-linejoin:round;stroke-miterlimit:10;" d="M647.855,193.635
				c-0.124-1.992-0.473-4.001-1.08-5.994c-0.607-1.993-1.439-3.855-2.448-5.577l-5.008,2.364c-0.974-1.574-2.148-2.984-3.474-4.214
				l3.287-4.465c-3.061-2.703-6.725-4.655-10.676-5.687l-1.871,5.219c-1.76-0.415-3.585-0.602-5.435-0.532l-0.832-5.475
				c-1.992,0.124-4.001,0.473-5.994,1.08c-1.993,0.608-3.855,1.439-5.577,2.448l2.365,5.008c-1.574,0.974-2.984,2.148-4.214,3.474
				l-4.465-3.287c-2.703,3.062-4.655,6.725-5.687,10.677l5.219,1.871c-0.415,1.76-0.601,3.585-0.532,5.435l-5.475,0.832
				c0.124,1.992,0.473,4.001,1.08,5.994c0.608,1.993,1.439,3.855,2.448,5.577l5.008-2.364c0.974,1.574,2.148,2.984,3.474,4.213
				l-3.287,4.465c3.061,2.703,6.725,4.655,10.677,5.687l1.871-5.219c1.76,0.415,3.585,0.601,5.435,0.532l0.832,5.475
				c1.992-0.124,4.001-0.473,5.994-1.08c1.993-0.608,3.855-1.439,5.577-2.448l-2.364-5.008c1.574-0.974,2.984-2.148,4.214-3.474
				l4.465,3.287c2.703-3.062,4.655-6.725,5.687-10.677l-5.219-1.871c0.415-1.76,0.602-3.585,0.532-5.435L647.855,193.635z
				 M625.561,207.206c-6.618,2.018-13.619-1.711-15.637-8.329s1.711-13.619,8.329-15.637c6.618-2.018,13.619,1.711,15.637,8.329
				C635.909,198.188,632.179,205.189,625.561,207.206z"/>
		</g>
		<g>
			<path style="fill:#B8E1FF;" d="M421.29,391.234H328.71c0,0,3.839,58.971-14.492,58.971c5.865,0,115.7,0,121.564,0
				C417.451,450.204,421.29,391.234,421.29,391.234z"/>
			<path style="fill:#82C9F9;" d="M327.66,426.682l93.334-18.911c-0.171-9.352,0.296-16.538,0.296-16.538H328.71
				C328.71,391.234,329.947,410.247,327.66,426.682z"/>
			<path style="fill:#B8E1FF;" d="M555.204,409.013H194.796c-3.074,0-5.566-2.492-5.566-5.566V170.775
				c0-3.074,2.492-5.566,5.566-5.566h360.407c3.074,0,5.566,2.492,5.566,5.566v232.673
				C560.77,406.521,558.278,409.013,555.204,409.013z"/>
			<path style="fill:#FFFFFF;stroke:#86BFEF;stroke-miterlimit:10;" d="M547.748,400.372H202.253c-1.43,0-2.589-1.159-2.589-2.589
				V176.439c0-1.43,1.159-2.589,2.589-2.589h345.495c1.43,0,2.589,1.159,2.589,2.589v221.344
				C550.337,399.213,549.177,400.372,547.748,400.372z"/>
			<path style="fill:#E3F2FF;" d="M538.525,395.796H221.311c-3.809,0-6.897-3.088-6.897-6.897V221.117
				c0-3.809,3.088-6.897,6.897-6.897h317.214c3.809,0,6.897,3.088,6.897,6.897V388.9
				C545.422,392.709,542.334,395.796,538.525,395.796z"/>
			<path style="fill:#FFFFFF;stroke:#86BFEF;stroke-miterlimit:10;" d="M532.624,386.716H215.41c-3.809,0-6.897-3.088-6.897-6.897
				V212.036c0-3.809,3.088-6.897,6.897-6.897h317.214c3.809,0,6.897,3.088,6.897,6.897v167.783
				C539.521,383.628,536.433,386.716,532.624,386.716z"/>
			<line style="fill:none;stroke:#86BFEF;stroke-miterlimit:10;" x1="199.664" y1="195.42" x2="550.337" y2="195.42"/>
			<path style="fill:#E3F2FF;" d="M508.223,190.522H266.633c-3.31,0-5.994-2.684-5.994-5.994l0,0c0-3.31,2.683-5.994,5.994-5.994
				h241.589c3.31,0,5.994,2.684,5.994,5.994l0,0C514.216,187.839,511.533,190.522,508.223,190.522z"/>
			<g>
				<path style="fill:#FFFFFF;stroke:#86BFEF;stroke-miterlimit:10;" d="M222.092,184.528c0,1.766-1.432,3.198-3.198,3.198
					c-1.766,0-3.198-1.432-3.198-3.198c0-1.766,1.432-3.198,3.198-3.198C220.661,181.331,222.092,182.762,222.092,184.528z"/>
				<path style="fill:#FFFFFF;stroke:#86BFEF;stroke-miterlimit:10;" d="M234.406,184.528c0,1.766-1.432,3.198-3.198,3.198
					c-1.766,0-3.198-1.432-3.198-3.198c0-1.766,1.432-3.198,3.198-3.198C232.975,181.331,234.406,182.762,234.406,184.528z"/>
				<path style="fill:#FFFFFF;stroke:#86BFEF;stroke-miterlimit:10;" d="M246.72,184.528c0,1.766-1.432,3.198-3.198,3.198
					c-1.766,0-3.198-1.432-3.198-3.198c0-1.766,1.432-3.198,3.198-3.198C245.288,181.331,246.72,182.762,246.72,184.528z"/>
			</g>
			<path style="fill:#B8E1FF;" d="M452.315,457.126h-154.63l0,0c0-4.752,3.853-8.605,8.605-8.605h137.42
				C448.463,448.521,452.315,452.374,452.315,457.126L452.315,457.126z"/>
			<g>
				<circle style="fill:#86BFEF;" cx="540.652" cy="180.534" r="1.262"/>
				<circle style="fill:#86BFEF;" cx="540.652" cy="184.528" r="1.262"/>
				<path style="fill:#86BFEF;" d="M541.914,188.522c0,0.697-0.565,1.262-1.262,1.262c-0.697,0-1.262-0.565-1.262-1.262
					c0-0.697,0.565-1.262,1.262-1.262C541.349,187.26,541.914,187.825,541.914,188.522z"/>
			</g>
			<line style="fill:none;stroke:#66ADF2;stroke-miterlimit:10;" x1="431.563" y1="448.981" x2="352.438" y2="448.981"/>
			<line style="fill:none;stroke:#66ADF2;stroke-miterlimit:10;" x1="343.561" y1="448.981" x2="317.729" y2="448.981"/>
			<g>
				<rect x="88.514" y="456.376" style="fill:#66ADF2;" width="572.971" height="1.5"/>
			</g>
			<g>
				<g>
					<path style="fill:#FDD305;" d="M323.582,275.413c0-28.402,23.024-51.426,51.426-51.426s51.426,23.024,51.426,51.426
						c0,11.322-3.661,21.786-9.861,30.281h0c-7.341,11.061-26.414,23.55-26.414,31.033v8.548c0,1.706-1.383,3.09-3.089,3.09h-8.265
						h-7.595h-8.265c-1.706,0-3.09-1.383-3.09-3.09v-8.548c0-7.482-19.074-19.971-26.414-31.033h0
						C327.243,297.199,323.582,286.734,323.582,275.413z"/>
					<path style="fill:none;stroke:#FFFFFF;stroke-width:2;stroke-miterlimit:10;" d="M381.301,347.49
						c0,0-2.208-47.299,5.507-62.371c3.633-7.098,10.443-10.209,14.871-7.561c2.945,1.761,4.304,6.502,3.654,10.822
						c-1.28,8.516-9.103,19.021-30.325,19.021s-29.045-10.505-30.325-19.021c-0.65-4.32,0.71-9.062,3.654-10.822
						c4.428-2.648,11.238,0.464,14.871,7.561c7.715,15.072,5.507,62.371,5.507,62.371"/>
					
						<path style="fill:none;stroke:#FFEE99;stroke-width:5.5;stroke-linecap:round;stroke-linejoin:bevel;stroke-miterlimit:10;" d="
						M385.561,233.857c18.57,4.701,32.312,21.524,32.312,41.556"/>
					<path style="fill:#FFEE99;" d="M374.017,232.467c0,1.63,1.321,2.951,2.951,2.951c1.63,0,2.951-1.321,2.951-2.951
						c0-1.63-1.321-2.951-2.951-2.951C375.338,229.517,374.017,230.838,374.017,232.467z"/>
					<path style="opacity:0.55;fill:#FFC043;" d="M426.335,278.453c-2.838,21.087-19.863,42.918-51.327,42.918
						s-47.854-22.852-51.327-42.918c0.593,10.151,4.122,19.512,9.762,27.24h0c7.341,11.061,26.414,23.55,26.414,31.033v8.548
						c0,1.706,1.383,3.09,3.09,3.09h8.265h7.595h8.265c1.706,0,3.089-1.383,3.089-3.09v-8.548c0-7.482,19.074-19.971,26.414-31.033
						h0C422.213,297.966,425.742,288.604,426.335,278.453z"/>
					<path style="fill:#28364C;" d="M391.375,340.376h-32.734v15.601c0,2.548,0.725,5.042,2.09,7.193l0,0
						c2.581,4.066,7.062,6.529,11.877,6.529h4.799c4.816,0,9.297-2.463,11.877-6.529l0,0c1.365-2.151,2.09-4.646,2.09-7.193V340.376
						z"/>
					<g>
						<g>
							<path style="fill:#475577;" d="M391.378,351.882c-0.094,0-0.188-0.007-0.283-0.02l-32.733-4.536
								c-1.117-0.155-1.898-1.186-1.743-2.304c0.155-1.118,1.189-1.899,2.304-1.743l32.734,4.536
								c1.117,0.155,1.898,1.186,1.743,2.304C393.257,351.141,392.381,351.882,391.378,351.882z"/>
						</g>
					</g>
					<g>
						<g>
							<path style="fill:#475577;" d="M391.378,359.022c-0.094,0-0.188-0.007-0.283-0.02l-32.733-4.536
								c-1.117-0.155-1.898-1.186-1.743-2.304c0.155-1.117,1.189-1.897,2.304-1.743l32.734,4.536
								c1.117,0.155,1.898,1.186,1.743,2.304C393.257,358.281,392.381,359.022,391.378,359.022z"/>
						</g>
					</g>
					<g>
						<g>
							<path style="fill:#475577;" d="M390.07,366.043c-0.094,0-0.188-0.007-0.283-0.02l-31.027-4.3
								c-1.117-0.155-1.898-1.186-1.743-2.304c0.155-1.118,1.19-1.899,2.304-1.743l31.027,4.3c1.117,0.155,1.898,1.186,1.743,2.304
								C391.949,365.303,391.074,366.043,390.07,366.043z"/>
						</g>
					</g>
				</g>
				<g>
					<g>
						<g>
							<polyline style="fill:none;stroke:#86BFEF;stroke-miterlimit:10;" points="456.518,375.257 456.518,377.257 454.518,377.257 
															"/>
							
								<line style="fill:none;stroke:#86BFEF;stroke-miterlimit:10;stroke-dasharray:4.0783,4.0783;" x1="450.44" y1="377.257" x2="297.505" y2="377.257"/>
							<polyline style="fill:none;stroke:#86BFEF;stroke-miterlimit:10;" points="295.466,377.257 293.466,377.257 293.466,375.257 
															"/>
							
								<line style="fill:none;stroke:#86BFEF;stroke-miterlimit:10;stroke-dasharray:4.0783,4.0783;" x1="293.466" y1="371.179" x2="293.466" y2="218.244"/>
							<polyline style="fill:none;stroke:#86BFEF;stroke-miterlimit:10;" points="293.466,216.205 293.466,214.205 295.466,214.205 
															"/>
							
								<line style="fill:none;stroke:#86BFEF;stroke-miterlimit:10;stroke-dasharray:4.0783,4.0783;" x1="299.545" y1="214.205" x2="452.479" y2="214.205"/>
							<polyline style="fill:none;stroke:#86BFEF;stroke-miterlimit:10;" points="454.518,214.205 456.518,214.205 456.518,216.205 
															"/>
							
								<line style="fill:none;stroke:#86BFEF;stroke-miterlimit:10;stroke-dasharray:4.0783,4.0783;" x1="456.518" y1="220.283" x2="456.518" y2="373.218"/>
						</g>
					</g>
					<rect x="291.345" y="212.084" style="fill:#86BFEF;" width="4.242" height="4.242"/>
					<rect x="454.429" y="212.084" style="fill:#86BFEF;" width="4.242" height="4.242"/>
					<rect x="291.345" y="375.136" style="fill:#86BFEF;" width="4.242" height="4.242"/>
					<rect x="454.429" y="375.136" style="fill:#86BFEF;" width="4.242" height="4.242"/>
				</g>
			</g>
			<g>
				<rect x="222.092" y="212.084" style="fill:#CCE4FF;" width="26.167" height="20.322"/>
				<rect x="252.367" y="212.084" style="fill:#CCE4FF;" width="26.167" height="20.322"/>
				<rect x="222.092" y="235.898" style="fill:#D9EDFF;" width="26.167" height="20.322"/>
				<rect x="252.367" y="235.898" style="fill:#D9EDFF;" width="26.167" height="20.322"/>
				<rect x="222.092" y="259.711" style="fill:#E3F2FF;" width="26.167" height="20.322"/>
				<rect x="252.367" y="259.711" style="fill:#E3F2FF;" width="26.167" height="20.322"/>
				<rect x="222.092" y="283.525" style="fill:#E9F6FF;" width="26.167" height="20.322"/>
				<rect x="252.367" y="283.525" style="fill:#E9F6FF;" width="26.167" height="20.322"/>
				<rect x="222.092" y="307.339" style="fill:#EEF8FF;" width="26.167" height="20.322"/>
				<rect x="252.367" y="307.339" style="fill:#EEF8FF;" width="26.167" height="20.322"/>
				<rect x="222.092" y="331.152" style="fill:#F3FAFF;" width="26.167" height="20.322"/>
				<rect x="252.367" y="331.152" style="fill:#F3FAFF;" width="26.167" height="20.322"/>
			</g>
			<g>
				<path style="fill:#E3F2FF;" d="M530.94,274.861h-64.777v-58.865c0-2.161,1.752-3.912,3.912-3.912h56.952
					c2.161,0,3.912,1.752,3.912,3.912V274.861z"/>
				<line style="fill:none;stroke:#86BFEF;stroke-miterlimit:10;" x1="466.163" y1="220.245" x2="530.94" y2="220.245"/>
				<line style="fill:none;stroke:#CCE4FF;stroke-miterlimit:10;" x1="466.163" y1="233.857" x2="530.94" y2="233.857"/>
				<line style="fill:none;stroke:#CCE4FF;stroke-miterlimit:10;" x1="466.163" y1="247.469" x2="530.94" y2="247.469"/>
				<line style="fill:none;stroke:#CCE4FF;stroke-miterlimit:10;" x1="466.163" y1="261.082" x2="530.94" y2="261.082"/>
				
					<line style="fill:none;stroke:#86BFEF;stroke-width:0.75;stroke-miterlimit:10;" x1="524.382" y1="218.169" x2="527.692" y2="214.86"/>
				
					<line style="fill:none;stroke:#86BFEF;stroke-width:0.75;stroke-miterlimit:10;" x1="524.382" y1="214.86" x2="527.692" y2="218.169"/>
				<polygon style="fill:#86BFEF;" points="517.551,218.54 515.526,216.515 517.551,214.489 				"/>
				<polygon style="fill:#86BFEF;" points="519.463,218.54 517.437,216.515 519.463,214.489 				"/>
				<g>
					<path style="fill:none;stroke:#CCE4FF;stroke-miterlimit:10;" d="M477.106,227.051c0,0-1.628,2.383-3.636,2.383
						c-2.008,0-3.635-2.383-3.635-2.383s1.628-2.383,3.635-2.383C475.478,224.668,477.106,227.051,477.106,227.051z"/>
					<circle style="fill:#CCE4FF;" cx="473.47" cy="227.051" r="1.208"/>
				</g>
				<g>
					<path style="fill:none;stroke:#CCE4FF;stroke-miterlimit:10;" d="M477.106,240.651c0,0-1.628,2.383-3.636,2.383
						c-2.008,0-3.635-2.383-3.635-2.383s1.628-2.383,3.635-2.383C475.478,238.268,477.106,240.651,477.106,240.651z"/>
					<circle style="fill:#CCE4FF;" cx="473.47" cy="240.651" r="1.208"/>
				</g>
				<g>
					<path style="fill:none;stroke:#CCE4FF;stroke-miterlimit:10;" d="M477.106,254.252c0,0-1.628,2.383-3.636,2.383
						c-2.008,0-3.635-2.383-3.635-2.383s1.628-2.383,3.635-2.383C475.478,251.869,477.106,254.252,477.106,254.252z"/>
					<path style="fill:#CCE4FF;" d="M474.678,254.252c0,0.667-0.541,1.208-1.208,1.208s-1.208-0.541-1.208-1.208
						c0-0.667,0.541-1.208,1.208-1.208S474.678,253.585,474.678,254.252z"/>
				</g>
				<g>
					<path style="fill:none;stroke:#CCE4FF;stroke-miterlimit:10;" d="M477.106,267.852c0,0-1.628,2.383-3.636,2.383
						c-2.008,0-3.635-2.383-3.635-2.383s1.628-2.383,3.635-2.383C475.478,265.469,477.106,267.852,477.106,267.852z"/>
					<path style="fill:#CCE4FF;" d="M474.678,267.852c0,0.667-0.541,1.208-1.208,1.208s-1.208-0.541-1.208-1.208
						c0-0.667,0.541-1.208,1.208-1.208S474.678,267.185,474.678,267.852z"/>
				</g>
				<line style="fill:none;stroke:#CCE4FF;stroke-miterlimit:10;" x1="482.468" y1="221.398" x2="482.468" y2="232.703"/>
				<line style="fill:none;stroke:#CCE4FF;stroke-miterlimit:10;" x1="482.468" y1="234.999" x2="482.468" y2="246.304"/>
				<line style="fill:none;stroke:#CCE4FF;stroke-miterlimit:10;" x1="482.468" y1="248.6" x2="482.468" y2="259.904"/>
				<line style="fill:none;stroke:#CCE4FF;stroke-miterlimit:10;" x1="482.468" y1="262.2" x2="482.468" y2="273.504"/>
			</g>
		</g>
		<g>
			<polygon style="fill:#FFFFFF;stroke:#86BFEF;stroke-miterlimit:10;" points="242.893,294.877 173.975,294.877 173.975,199.622 
				226.374,199.622 242.893,216.141 			"/>
			<g>
				<rect x="180.428" y="210.91" style="fill:#C0E3FF;" width="48.982" height="2.119"/>
				<rect x="180.428" y="218.75" style="fill:#C0E3FF;" width="56.011" height="2.119"/>
				<rect x="180.428" y="226.59" style="fill:#C0E3FF;" width="56.011" height="2.119"/>
				<rect x="180.428" y="234.43" style="fill:#C0E3FF;" width="56.011" height="2.119"/>
				<rect x="180.428" y="242.27" style="fill:#C0E3FF;" width="56.011" height="2.119"/>
				<rect x="180.428" y="250.11" style="fill:#C0E3FF;" width="56.011" height="2.119"/>
				<rect x="180.428" y="257.95" style="fill:#C0E3FF;" width="56.011" height="2.119"/>
				<rect x="180.428" y="265.79" style="fill:#C0E3FF;" width="56.011" height="2.119"/>
				<rect x="180.428" y="273.63" style="fill:#C0E3FF;" width="56.011" height="2.119"/>
				<rect x="180.428" y="281.47" style="fill:#C0E3FF;" width="28.006" height="2.119"/>
			</g>
			<polygon style="fill:#FFFFFF;stroke:#86BFEF;stroke-linejoin:round;stroke-miterlimit:10;" points="226.374,216.141 
				242.893,216.141 226.374,199.622 			"/>
			<polygon style="fill:#86BFEF;" points="209.239,190.824 208.479,191.684 207.719,190.824 206.958,191.684 206.198,190.824 
				205.438,191.684 204.678,190.824 203.848,191.763 203.848,203.882 204.678,204.821 205.438,203.961 206.198,204.821 
				206.958,203.961 207.719,204.821 208.479,203.961 209.239,204.821 210.069,203.882 210.069,191.763 			"/>
		</g>
		<g>
			<g>
				<g>
					<g>
						<g>
							<path style="fill:#FFA897;" d="M131.051,423.065l-1.546,24.53l-0.198,7.387l28.963-0.148c0.707-0.004,1.277-0.58,1.273-1.287
								l0,0c-0.003-0.53-0.331-1.003-0.827-1.191l-12.491-5.744l2.687-25.482"/>
							<path style="fill:#18277A;" d="M160.811,454.523c-0.296-0.928-0.839-1.97-1.387-2.205l-13.244-5.704
								c-7.3,2.959-16.75,0.697-16.75,0.697l-1.686,9.972c0.002,0.33,0.271,0.596,0.601,0.595l32.244-0.165
								C161.238,457.708,160.82,454.552,160.811,454.523z"/>
							<path style="fill:none;stroke:#5288FF;stroke-width:0.75;stroke-miterlimit:10;" d="M149.046,447.184
								c-0.742,0.967-1.37,2.022-1.867,3.135"/>
							<path style="fill:none;stroke:#5288FF;stroke-width:0.75;stroke-miterlimit:10;" d="M150.714,448.181
								c-0.769,1.064-1.076,1.679-1.535,2.666"/>
							<path style="fill:none;stroke:#5288FF;stroke-width:0.75;stroke-miterlimit:10;" d="M152.123,448.909
								c-0.522,0.702-1.034,1.672-1.439,2.446"/>
						</g>
						
							<line style="fill:none;stroke:#5288FF;stroke-width:0.75;stroke-miterlimit:10;" x1="127.914" y1="455.724" x2="160.947" y2="455.555"/>
						<path style="fill:none;stroke:#5288FF;stroke-width:0.75;stroke-miterlimit:10;" d="M128.832,450.847
							c0,0,7.76,0.158,8.427,4.833"/>
						<path style="fill:none;stroke:#5288FF;stroke-width:0.75;stroke-miterlimit:10;" d="M156.709,451.148
							c0,0-2.139,3.04-2.561,4.443"/>
					</g>
				</g>
				<path style="fill:#5288FF;" d="M148.86,333.395c0,0,5.916,22.487,5.87,51.098c-0.037,22.441-1.894,57.167-1.894,57.167
					l-25.317-0.489c0,0,2.976-49.461,2.553-61.471c-0.422-12.009-3.447-33.44-3.447-33.44s-9.019-8.074-5.136-21.85"/>
				<path style="fill:none;stroke:#0D40BF;stroke-width:0.75;stroke-miterlimit:10;" d="M131.518,441.17
					c0,0,1.976-49.461,1.553-61.471c-0.422-12.009-2.447-33.44-2.447-33.44"/>
				<polygon style="fill:#7BC0FF;" points="153.828,443.867 126.459,443.867 126.779,438.057 154.148,438.057 				"/>
				<g>
					<g>
						<g>
							<path style="fill:#FFA897;" d="M101.701,410.85l-12.376,21.236l-3.488,6.515l25.957,12.849
								c0.634,0.314,1.402,0.054,1.715-0.58l0,0c0.235-0.475,0.153-1.045-0.205-1.435l-8.592-10.733l13.823-21.574"/>
							<path style="fill:#18277A;" d="M114.205,452.309c0.151-0.962,0.132-2.137-0.251-2.593l-9.283-11.035
								c-7.852-0.627-15.286-6.884-15.286-6.884l-5.976,8.159c-0.146,0.296-0.025,0.654,0.271,0.801l28.898,14.304
								C113.159,455.348,114.201,452.34,114.205,452.309z"/>
							<path style="fill:none;stroke:#5288FF;stroke-width:0.75;stroke-miterlimit:10;" d="M106.978,440.476
								c-1.097,0.532-2.131,1.194-3.074,1.966"/>
							<path style="fill:none;stroke:#5288FF;stroke-width:0.75;stroke-miterlimit:10;" d="M108.021,442.115
								c-1.164,0.607-1.714,1.019-2.567,1.695"/>
							<path style="fill:none;stroke:#5288FF;stroke-width:0.75;stroke-miterlimit:10;" d="M108.955,443.397
								c-0.781,0.393-1.674,1.031-2.383,1.542"/>
						</g>
						
							<line style="fill:none;stroke:#5288FF;stroke-width:0.75;stroke-miterlimit:10;" x1="84.259" y1="438.639" x2="113.865" y2="453.293"/>
						<path style="fill:none;stroke:#5288FF;stroke-width:0.75;stroke-miterlimit:10;" d="M87.266,434.691
							c0,0,6.866,3.619,5.368,8.097"/>
						<path style="fill:none;stroke:#5288FF;stroke-width:0.75;stroke-miterlimit:10;" d="M112.051,447.454
							c0,0-3.275,1.759-4.281,2.823"/>
					</g>
				</g>
				<path style="fill:#5288FF;" d="M135.068,334.133c0,0,2.461,28.905-1.153,53.452c-3.497,23.75-20.55,48.42-20.55,48.42
					l-22.643-9.968c0,0,14.445-29.365,17.226-41.544c2.236-9.793,2.211-30.893,1.546-36.476c-0.113-0.948-0.417-1.851-0.863-2.695
					c-1.138-2.153-3.212-7.56-1.61-16.371"/>
				<path style="fill:none;stroke:#0D40BF;stroke-width:0.75;stroke-miterlimit:10;" d="M94.722,426.036
					c0,0,14.478-29.357,17.226-41.544c1.916-8.499,2.211-30.893,1.546-36.476c-0.113-0.948-0.417-1.851-0.863-2.695
					c-1.138-2.153-3.212-7.56-1.61-16.371"/>
				<polygon style="fill:#7BC0FF;" points="112.739,439.654 88.273,427.388 91.163,422.337 115.629,434.604 				"/>
				<path style="fill:none;stroke:#0D40BF;stroke-width:0.75;stroke-miterlimit:10;" d="M136.068,334.133
					c0,0,2.948,29.889-2.153,53.452c-1.153,5.327-2.287,10.833-4.121,16.021"/>
				<path style="fill:none;stroke:#0D40BF;stroke-width:0.75;stroke-miterlimit:10;" d="M111.186,341.464
					c0.043,0.164,8.689,0.009,11.288-5.148"/>
				<path style="fill:none;stroke:#0D40BF;stroke-width:0.75;stroke-miterlimit:10;" d="M136.916,348.026
					c0,0,2.738-0.002,2.778-1.222c0.063-1.918,0-12.454,0-12.454"/>
				<path style="fill:none;stroke:#0D40BF;stroke-width:0.75;stroke-miterlimit:10;" d="M144.111,335.097
					c0,0,1.079,5.029,6.273,5.924"/>
			</g>
			<g>
				<path style="fill:#91351D;" d="M139.166,257.855c0.332,2.951,3.997,4.614,4.46,7.547c0.285,1.809-0.703,3.872,0.328,5.386
					c0.321,0.471,0.807,0.818,1.098,1.308c0.443,0.747,0.352,1.721-0.034,2.5c-0.386,0.779-1.027,1.397-1.681,1.97
					c-1.367,1.196-2.89,2.286-4.646,2.752c-1.755,0.465-3.786,0.209-5.119-1.025c-0.671-0.621-1.123-1.44-1.517-2.265
					c-1.378-2.89-2.173-6.096-2.004-9.293c0.169-3.198,1.346-6.381,3.521-8.731"/>
			</g>
			<g>
				<path style="fill:#91351D;" d="M127.324,254.911c-2.13-0.637-2.835-2.946-1.403-4.197c0.693-0.606,1.591-1.037,2.508-0.962
					c2.621,0.212,2.574,4.546,0.074,4.876"/>
			</g>
			<g>
				<g>
					<path style="fill:#FFA897;" d="M133.523,291.74c0,0,9.606,9.452,18.697,16.231c8.004,5.969,26.982,12.903,26.982,12.903
						l4.566-10.089c0,0-10.129-4.516-21.356-14.178c-7.234-6.225-13.589-13.018-13.589-13.018"/>
					<g>
						<path style="fill:#FFA897;" d="M173.236,305.493c4.965,2.412,19.841,9.877,19.838,10.652
							c-0.003,0.775-2.423-0.061-2.306,0.576c0.117,0.636,5.674,2.971,5.465,3.744c-0.284,1.048-5.847-1.647-5.847-1.647
							s5.947,3.256,5.438,4.094c-0.361,0.594-5.013-1.683-6.9-2.329c1.956,0.961,4.941,2.894,4.553,3.503
							c-0.384,0.603-3.584-0.879-6.098-1.884c1.51,0.774,4.181,2.33,3.849,2.909c-0.33,0.577-9.727-2.901-16.869-6.091"/>
					</g>
				</g>
				<path style="fill:#18277A;" d="M134.447,276.801c0,0,5.569-0.878,10.902,2.449c3.93,2.451,8.949,6.671,14.784,14.274
					l-14.785,11.316l-12.21-17.145"/>
				<path style="fill:#18277A;" d="M150.053,285.734l1.332,53.313c0,0-32.423,2.287-46.939-5.297
					c6.186-41.699,11.271-52.28,11.271-52.28l11.577-5.03L150.053,285.734z"/>
				<path style="fill:none;stroke:#5565AA;stroke-width:0.75;stroke-miterlimit:10;" d="M123.474,278.419
					c0,0,1.406,3.051,7.216,3.051c5.81,0,6.707-2.26,6.707-2.26"/>
				<g>
					<polygon style="fill:#FF8D27;" points="190.316,287.697 205.441,301.256 153.849,358.273 138.724,344.714 					"/>
					<polygon style="fill:#FFBC45;" points="194.833,291.746 200.923,297.206 149.332,354.223 143.242,348.764 					"/>
					
						<rect x="134.887" y="351.018" transform="matrix(-0.7446 -0.6675 0.6675 -0.7446 17.4919 712.4527)" style="fill:#91351D;" width="20.313" height="3.724"/>
					<path style="fill:#FFEE99;" d="M133.204,358.539l7.504,6.727c2.104,1.887,5.34,1.71,7.226-0.395l3.429-3.825l-15.125-13.559
						l-3.429,3.825C130.922,353.417,131.099,356.652,133.204,358.539z"/>
					<path style="fill:#FFDACF;" d="M205.441,301.256l4.216-17.84c0.288-1.217-0.887-2.271-2.066-1.852l-17.275,6.133
						L205.441,301.256z"/>
					<path style="opacity:0.55;fill:#FFDACF;" d="M200.923,297.206l8.117-14.344c0.554-0.979,0.081-1.403-0.832-0.746l-13.375,9.63
						L200.923,297.206z"/>
					<path style="fill:#5288FF;" d="M206.734,284.598c0.695,0.623,1.523,0.995,2.375,1.136l0.548-2.318
						c0.288-1.217-0.887-2.271-2.066-1.852l-2.245,0.797C205.579,283.192,206.039,283.975,206.734,284.598z"/>
				</g>
				<g>
					<g>
						<path style="fill:#FFA897;" d="M113.802,300.048c0,0,6.691,11.973,15.329,20.105c7.605,7.16,26.499,16.634,26.499,16.634
							l5.951-9.939c0,0-12.888-8.088-23.401-19.47c-6.774-7.334-11.647-16.674-11.647-16.674"/>
						<g>
							<path style="fill:#FFA897;" d="M151.267,320.09c4.872,3.1,19.438,12.636,19.343,13.441c-0.095,0.805-2.511-0.353-2.465,0.323
								c0.045,0.675,5.542,3.765,5.232,4.544c-0.42,1.055-5.88-2.41-5.88-2.41s5.791,4.094,5.162,4.904
								c-0.446,0.574-5.009-2.348-6.893-3.245c1.918,1.232,4.789,3.598,4.314,4.185c-0.471,0.581-3.62-1.342-6.111-2.686
								c1.476,0.985,4.066,2.921,3.652,3.483c-0.412,0.56-9.762-4.178-16.803-8.347"/>
						</g>
					</g>
					<path style="fill:#18277A;" d="M119.102,277.728c-3.941,2.17-8.854,6.348-8.857,13.697c-0.004,9.186,8.858,18.923,8.858,18.923
						l14.943-9.202l-6.56-10.871"/>
					
						<line style="fill:none;stroke:#5565AA;stroke-width:0.75;stroke-miterlimit:10;" x1="134.046" y1="301.146" x2="128.444" y2="291.863"/>
					<path style="fill:none;stroke:#5565AA;stroke-width:0.75;stroke-miterlimit:10;" d="M119.103,310.348
						c0,0-5.301-6.506-8.03-13.142"/>
				</g>
				
					<line style="fill:none;stroke:#5565AA;stroke-width:0.75;stroke-miterlimit:10;" x1="150.438" y1="301.146" x2="150.175" y2="290.641"/>
			</g>
			<g>
				<g>
					<path style="fill:#FFA897;" d="M136.026,271.215l-0.126,7.681c0,0-1.416,1.49-5.57,1.053c-3.956-0.416-4.788-1.951-4.788-1.951
						l1.225-11.328"/>
					<path style="fill:#FFA897;" d="M138.74,259.9c2.179,7.054,2.575,12.972-2.199,14.01c-5.031,1.094-9.896-1.855-9.785-7.898
						C126.872,259.66,137.109,255.94,138.74,259.9z"/>
					<path style="fill:none;stroke:#E86D5D;stroke-width:0.75;stroke-linejoin:round;stroke-miterlimit:10;" d="M136.026,274.194
						c-2.515,0.324-5.337,0.099-7.582-2.785"/>
					<g>
						<g>
							<polygon style="fill:#FF855A;" points="127.419,265.488 127.419,265.483 127.419,265.488 							"/>
						</g>
					</g>
					<g>
						<g>
							<path style="fill:#FF855A;" d="M127.383,265.496c0.008,0.02,0.016,0.041,0.024,0.062c0.017,0.044,0.09,0.025,0.072-0.02
								c-0.008-0.021-0.016-0.041-0.024-0.062C127.438,265.431,127.366,265.45,127.383,265.496L127.383,265.496z"/>
						</g>
					</g>
					<g>
						<path style="fill:#91351D;" d="M132.467,260.182c2.221,0.354,5.283,0.495,8.227-0.85c-1.14-2.264-2.086-5.839-6.572-4.602
							c-4.559-2.394-11.404,0.609-13.173,5.129c-0.419,1.07-0.668,2.24-1.382,3.14c-0.555,0.699-1.344,1.171-2.143,1.569
							c-1.762,0.878-3.69,1.494-5.212,2.742c-1.522,1.249-2.553,3.411-1.744,5.207c0.214,0.475,0.542,0.894,0.726,1.381
							c0.393,1.039,0.075,2.193,0.024,3.302c-0.134,2.943,1.894,5.851,4.702,6.742c2.808,0.891,6.142-0.316,7.729-2.798
							c0.493-0.77,0.841-1.656,1.519-2.27c1.077-0.975,2.083-1.362,3.253-2.224c1.819-1.341,1.841-4.043,1.374-6.254
							C129.136,267.282,129.235,262.693,132.467,260.182z"/>
					</g>
					<g>
						<path style="fill:#FFA897;" d="M130.324,266.997c-0.012-0.199-0.307-0.758-0.968-0.928c-1.164-0.298-1.75,1.15-1.531,2.246
							c0.138,0.688,0.426,1.211,0.949,1.712c0.69,0.66,1.532,0.752,1.916-0.158"/>
					</g>
					<path style="fill:none;stroke:#E86D5D;stroke-width:0.75;stroke-linejoin:round;stroke-miterlimit:10;" d="M136.196,264.766
						c0,0,1.629,2.455,1.484,3.144c-0.145,0.689-1.779,0.785-1.779,0.785"/>
					<path style="fill:#FFFFFF;" d="M137.699,269.524l-4.456,0.666c0,0,0.873,2.295,3.294,1.761
						C138.265,271.57,137.699,269.524,137.699,269.524z"/>
					<g>
						<g>
							<path style="fill:#00276F;" d="M137.407,264.052c0.028,0.232,0.069,0.457,0.13,0.683c0.133,0.49,0.91,0.277,0.761-0.21
								c-0.068-0.222-0.151-0.437-0.25-0.646C137.906,263.581,137.366,263.715,137.407,264.052L137.407,264.052z"/>
						</g>
					</g>
					
						<path style="fill:none;stroke:#00276F;stroke-width:0.5;stroke-linecap:round;stroke-linejoin:round;stroke-miterlimit:10;" d="
						M136.563,262.935c0,0,0.677-0.927,1.673-0.213"/>
					<g>
						<g>
							<path style="fill:#00276F;" d="M132.339,265.287c0.014,0.232,0.049,0.464,0.097,0.691c0.104,0.494,0.882,0.286,0.761-0.21
								c-0.048-0.196-0.106-0.386-0.182-0.573C132.881,264.868,132.313,264.865,132.339,265.287L132.339,265.287z"/>
						</g>
					</g>
					
						<path style="fill:none;stroke:#00276F;stroke-width:0.5;stroke-linecap:round;stroke-linejoin:round;stroke-miterlimit:10;" d="
						M133.138,263.48c0,0-1.095-0.363-2.216,0.937"/>
				</g>
			</g>
		</g>
		<g>
			<g>
				<path style="fill:#FFA897;" d="M633.236,347.248c0,0,2.409,33.42,5.22,45.475c4.824,20.685,20.532,43.457,20.532,43.457
					l-4.705,4.661l-6.98,3.324c0,0-20.149-22.232-27.067-41.167c-7.949-21.759-9.825-53.876-9.825-53.876"/>
				<g>
					<g>
						<path style="fill:#2E7EFA;" d="M638.29,455.551c-0.223-0.842-0.313-1.89-0.013-2.332l7.254-10.673
							c6.933-1.276,12.978-7.527,12.978-7.527l6.066,6.716c0.157,0.25,0.082,0.58-0.168,0.738l-24.417,15.378
							C639.5,458.16,638.297,455.577,638.29,455.551z"/>
						<path style="fill:none;stroke:#1A3987;stroke-width:0.75;stroke-linejoin:round;stroke-miterlimit:10;" d="M643.642,444.355
							c1.025,0.373,2.006,0.868,2.917,1.469"/>
						<path style="fill:none;stroke:#1A3987;stroke-width:0.75;stroke-linejoin:round;stroke-miterlimit:10;" d="M642.863,445.91
							c1.092,0.434,1.619,0.75,2.44,1.274"/>
						<path style="fill:none;stroke:#1A3987;stroke-width:0.75;stroke-linejoin:round;stroke-miterlimit:10;" d="M642.149,447.137
							c0.731,0.279,1.584,0.765,2.263,1.154"/>
					</g>
					
						<line style="fill:none;stroke:#1A3987;stroke-width:0.75;stroke-linejoin:round;stroke-miterlimit:10;" x1="663.698" y1="440.641" x2="638.684" y2="456.395"/>
					<path style="fill:none;stroke:#1A3987;stroke-width:0.75;stroke-linejoin:round;stroke-miterlimit:10;" d="M660.66,437.401
						c0,0-5.781,3.85-4.037,7.699"/>
					<path style="fill:none;stroke:#1A3987;stroke-width:0.75;stroke-linejoin:round;stroke-miterlimit:10;" d="M639.764,451.032
						c0,0,3.077,1.266,4.069,2.122"/>
				</g>
			</g>
			<g>
				<path style="fill:#FFA897;" d="M610.126,360.128c0,0-1.362,20.768-2.308,36.653c-0.947,15.885-2.8,52.144-2.8,52.144
					l-6.874,1.624l-7.626-1.272c0,0-1.98-31.305-1.98-52.046c0-21.452,0.827-51.855,0.827-51.855"/>
				<g>
					<g>
						<path style="fill:#2E7EFA;" d="M577,454.875c0.265-0.83,0.751-1.762,1.241-1.974l11.852-5.104
							c6.533,2.648,14.99,0.624,14.99,0.624l1.509,8.924c-0.002,0.295-0.242,0.533-0.538,0.532l-28.856-0.148
							C576.618,457.726,576.992,454.902,577,454.875z"/>
						<path style="fill:none;stroke:#1A3987;stroke-width:0.75;stroke-linejoin:round;stroke-miterlimit:10;" d="M587.528,448.308
							c0.664,0.866,1.226,1.81,1.671,2.806"/>
						<path style="fill:none;stroke:#1A3987;stroke-width:0.75;stroke-linejoin:round;stroke-miterlimit:10;" d="M586.036,449.2
							c0.688,0.952,0.963,1.502,1.374,2.386"/>
						<path style="fill:none;stroke:#1A3987;stroke-width:0.75;stroke-linejoin:round;stroke-miterlimit:10;" d="M584.775,449.852
							c0.467,0.628,0.925,1.496,1.288,2.189"/>
					</g>
					
						<line style="fill:none;stroke:#1A3987;stroke-width:0.75;stroke-linejoin:round;stroke-miterlimit:10;" x1="606.439" y1="455.951" x2="576.878" y2="455.799"/>
					<path style="fill:none;stroke:#1A3987;stroke-width:0.75;stroke-linejoin:round;stroke-miterlimit:10;" d="M605.618,451.586
						c0,0-6.944,0.141-7.542,4.325"/>
					<path style="fill:none;stroke:#1A3987;stroke-width:0.75;stroke-linejoin:round;stroke-miterlimit:10;" d="M580.671,451.856
						c0,0,1.915,2.721,2.292,3.976"/>
				</g>
			</g>
			<g>
				<path style="fill:#FFA897;" d="M592.844,300.388c0,0-12.339,14.922-21.127,13.93c-10.792-1.217-21.127-31.423-21.127-31.423
					s1.366-14.104,6.586-10.607c0,0,12.864,23.106,17.079,24.868c1.764,0.737,8.039-8.772,8.039-8.772"/>
				<g>
					<path style="fill:#FFA897;" d="M562.957,282.156c-2.34-4.482-9.035-19.658-9.934-19.604c-0.898,0.054,0.816,4.259,0.069,4.165
						c-0.746-0.093-3.821-6.384-4.704-6.09c-1.197,0.399,2.297,6.672,2.297,6.672s-1.139-1.521-2.078-0.875
						c-0.665,0.458,0.128,2.689,0.128,2.689s-1.095-1.016-1.775-0.526c-0.674,0.486,0,2.424,0,2.424s-1.001-0.781-1.39-0.111
						c-0.658,1.136,3.101,8.215,7.091,17.45"/>
				</g>
				<path style="fill:none;stroke:#E86D5D;stroke-width:0.75;stroke-linejoin:round;stroke-miterlimit:10;" d="M553.715,267.831
					c0,2.552-1.477,4.081-0.527,6.982"/>
				<g>
					<path style="fill:#E86D5D;" d="M546.193,273.779c0.373,0.507,0.77,0.998,1.213,1.428c0.221,0.213,0.465,0.408,0.719,0.529
						c0.25,0.133,0.528,0.108,0.563-0.048c0.072-0.172,0.009-0.494-0.073-0.767c-0.082-0.284-0.209-0.566-0.332-0.844
						c-0.258-0.556-0.571-1.098-0.88-1.623c-0.091-0.154-0.039-0.353,0.115-0.444c0.147-0.087,0.336-0.044,0.431,0.095l0.007,0.011
						c0.369,0.538,0.796,1.074,1.267,1.501c0.232,0.212,0.489,0.403,0.723,0.483c0.115,0.046,0.217,0.037,0.275,0.026
						c-0.024-0.015,0.017,0.022,0.027-0.114c0.05-0.485-0.162-1.2-0.37-1.81c-0.215-0.631-0.484-1.258-0.755-1.868l0.631-0.302
						c0.305,0.663,0.656,1.323,1.036,1.939c0.19,0.303,0.402,0.609,0.632,0.815c0.121,0.098,0.201,0.117,0.185,0.111
						c0.023-0.018,0.098-0.178,0.103-0.343c0.054-0.684-0.083-1.443-0.193-2.172c-0.125-0.736-0.287-1.467-0.448-2.201
						c0.278,0.699,0.508,1.415,0.717,2.14c0.202,0.73,0.396,1.455,0.387,2.271c-0.018,0.202-0.008,0.438-0.25,0.695
						c-0.148,0.11-0.343,0.147-0.491,0.096c-0.145-0.038-0.245-0.107-0.34-0.172c-0.348-0.274-0.579-0.585-0.811-0.899
						c-0.444-0.635-0.809-1.297-1.158-1.981c-0.088-0.172-0.019-0.383,0.153-0.471c0.172-0.088,0.383-0.02,0.471,0.153l0.001,0.003
						l0.007,0.013c0.314,0.63,0.578,1.268,0.819,1.93c0.214,0.678,0.495,1.305,0.404,2.192c-0.014,0.208-0.19,0.564-0.534,0.677
						c-0.272,0.073-0.526,0.04-0.731-0.036c-0.414-0.154-0.705-0.4-0.977-0.648c-0.527-0.515-0.939-1.076-1.326-1.68l0.554-0.338
						c0.318,0.564,0.579,1.143,0.818,1.743c0.111,0.304,0.224,0.606,0.296,0.933c0.057,0.325,0.163,0.665-0.019,1.078
						c-0.088,0.221-0.366,0.325-0.557,0.329c-0.207-0.01-0.386-0.081-0.533-0.173c-0.296-0.185-0.524-0.419-0.731-0.665
						C546.823,274.876,546.481,274.34,546.193,273.779z"/>
				</g>
			</g>
			<g>
				<path style="fill:#18277A;" d="M592.654,322.514c0,0-6.053,10.682-6.409,22.432c-0.356,11.75,0,32.223,0,32.223
					c14.271,2.728,46.217,2.388,52.869,0c0,0-2.327-27.944-4.649-37.743c-2.858-12.063-9.771-16.912-9.771-16.912l-16.195-11.394
					L592.654,322.514z"/>
				<path style="fill:none;stroke:#5565AA;stroke-width:0.75;stroke-miterlimit:10;" d="M619.367,321.93
					c5.301,4.915,12.097,9.587,15.023,56.193"/>
				<path style="fill:none;stroke:#5565AA;stroke-width:0.75;stroke-miterlimit:10;" d="M614.163,323.736
					c0,0,3.626,6.237,11.474,5.77"/>
				<path style="fill:none;stroke:#5565AA;stroke-width:0.75;stroke-miterlimit:10;" d="M604.088,323.153c0,0-0.294,8.139,0,12.846"
					/>
				<path style="fill:none;stroke:#5565AA;stroke-width:0.75;stroke-miterlimit:10;" d="M603.98,333.155c0,0-2.148,0.509-2.54-0.961
					c-0.392-1.471,0-9.923,0-9.923"/>
			</g>
			<g>
				<path style="fill:#FFA897;" d="M629.171,331.771c0.127,5.596-1.722,16.669-0.974,17.084c0.748,0.414,1.551-3.54,2.106-3.076
					c0.554,0.463,0.009,7.454,0.859,7.655c1.152,0.272,1.354-6.92,1.354-6.92s0.146,7.889,1.209,7.815
					c0.753-0.052,0.9-6.079,1.226-8.374c-0.058,2.536-0.017,7.747,0.764,7.675c0.774-0.072,1.218-4.648,1.514-7.782
					c-0.014,1.975-0.005,6.28,0.72,6.25c0.722-0.03,2.295-12.588,2.813-21.675"/>
			</g>
			<path style="fill:#2E7EFA;" d="M610.274,275.983l-11.201,0.62c0,0-7.664,0.514-12.015,5.276
				c-3.716,4.068-8.112,9.971-8.112,9.971l12.284,10.51l8.596-10.51"/>
			<path style="fill:#2E7EFA;" d="M592.654,287.111c-4.384,6.74-5.697,10.045-2.492,19.202l2.492,16.201c0,0,13.657,5.819,32.04,0
				c0,0,2.676-21.639,0.896-36.01l-12.316-10.521l-14.201,0.62L592.654,287.111z"/>
			<g>
				<g>
					<path style="fill:#FFA897;" d="M601.239,257.047c0,0-4.115,10.695-1.03,13.955c1.604,1.694,7.169,0.753,9.265-0.847
						c1.555-1.188,3.609-8.305,2.77-9.646C609.043,255.381,601.239,257.047,601.239,257.047z"/>
					<path style="fill:#FFA897;" d="M612.854,266.461l0.419,9.522c-0.834,2.652-9.773,5.174-11.201,0.62l0.892-6.894
						L612.854,266.461z"/>
					<g>
						<path style="fill:#0B0B3A;" d="M617.924,263.999c0.829-2.171,0.406-4.988-0.161-6.589c-0.764-2.155-2.421-3.974-4.489-4.948
							c-2.068-0.975-6.358-1.151-9.564,0.744c-1.638-0.167-3.369,0.292-4.585,1.402c-1.216,1.11-1.835,2.896-1.389,4.481
							c3.047-0.348,6.094-0.697,9.141-1.045c0.617,1.649,1.754,3.1,3.208,4.093c1.411,0.964,2.963,2.167,2.379,4.135
							c-0.244,0.82,0.526,3.595,0.526,3.595S615.96,269.144,617.924,263.999z"/>
					</g>
					<path style="fill:#FFA897;" d="M611.462,264.76c0.971-1.501,1.885-1.363,2.444-0.642c0.746,0.962-0.356,3.212-0.929,3.633
						c-1.16,0.851-2.163,0.868-2.352-0.122"/>
					<path style="fill:none;stroke:#E86D5D;stroke-width:0.75;stroke-linejoin:round;stroke-miterlimit:10;" d="M602.72,272.197
						c3.955,0.163,6.754-2.042,6.754-2.042"/>
					<path style="fill:none;stroke:#E86D5D;stroke-width:0.75;stroke-linejoin:round;stroke-miterlimit:10;" d="M603.501,262.46
						c0,0-2.625,2.278-2.564,2.992c0.061,0.714,1.701,1.014,1.701,1.014"/>
					<path style="fill:#FFFFFF;" d="M600.717,267.081l4.42,1.225c0,0-1.167,2.21-3.547,1.371
						C599.891,269.078,600.717,267.081,600.717,267.081z"/>
					<g>
						<g>
							<path style="fill:#00276F;" d="M601.047,261.372c-0.109,0.172-0.201,0.351-0.284,0.537c-0.231,0.519,0.504,0.835,0.721,0.304
								c0.077-0.189,0.142-0.379,0.191-0.577C601.77,261.257,601.256,261.041,601.047,261.372L601.047,261.372z"/>
						</g>
					</g>
					
						<path style="fill:none;stroke:#00276F;stroke-width:0.5;stroke-linecap:round;stroke-linejoin:round;stroke-miterlimit:10;" d="
						M602.683,260.564c0,0-0.569-1.021-1.664-0.423"/>
					<g>
						<g>
							<path style="fill:#00276F;" d="M606.015,263.249c-0.115,0.207-0.208,0.423-0.291,0.645c-0.178,0.472,0.596,0.691,0.761,0.21
								c0.066-0.194,0.121-0.388,0.159-0.589C606.712,263.15,606.215,262.888,606.015,263.249L606.015,263.249z"/>
						</g>
					</g>
					
						<path style="fill:none;stroke:#00276F;stroke-width:0.5;stroke-linecap:round;stroke-linejoin:round;stroke-miterlimit:10;" d="
						M606.076,261.54c0,0,1.151-0.231,2.123,1.222"/>
				</g>
				<g>
					<path style="fill:#0B0B3A;" d="M614.641,254.669c-1.761-1.977,0.593-4.905,2.838-4.976c3.069-0.097,4.953,3.085,2.944,5.625
						c-1.125,1.423-3.345,1.83-4.902,0.9"/>
				</g>
				<g>
					<path style="fill:#0B0B3A;" d="M620.984,252.836c-0.121-0.161-0.004-0.389,0.124-0.545c0.636-0.771,1.642-1.256,2.637-1.159
						c1.115,0.109,2.037,1.12,2.294,2.187c0.337,1.4-0.637,2.522-1.906,2.985c-0.773,0.282-1.945,0.1-2.668-0.294
						c-0.723-0.394-1.202-1.271-0.987-2.066"/>
				</g>
				<g>
					<path style="fill:#0B0B3A;" d="M625.35,254.007c0.691-0.475,1.161-1.229,2.343-0.802c0.871,0.314,1.82,1.406,1.429,2.615
						c-0.274,0.848-0.991,1.359-1.827,1.454c-1.059,0.121-1.743-0.3-2.38-1.098c-0.205-0.257-0.313-0.612-0.206-0.923"/>
				</g>
				<g>
					<path style="fill:#0B0B3A;" d="M629.074,255.605c-0.112,0.078-0.198-0.142-0.139-0.266c0.168-0.35,0.627-0.487,1.002-0.385
						c0.375,0.102,0.967,0.417,1.195,0.731c0.483,0.664,0.417,1.602-0.069,2.264c-0.47,0.64-1.466,0.722-2.148,0.315
						c-0.682-0.406-1.074-1.181-1.222-1.96"/>
				</g>
				<g>
					<path style="fill:#0B0B3A;" d="M630.325,257.441c0.236,1.106,0.351,2.238,0.344,3.369c0.765-0.071,1.53-0.141,2.294-0.212
						c0.189-0.017,0.423-0.072,0.463-0.258c0.026-0.122-0.049-0.239-0.121-0.341c-0.948-1.341-2.02-2.771-3.602-3.21"/>
				</g>
			</g>
			<path style="fill:none;stroke:#1A3987;stroke-width:0.75;stroke-linejoin:round;stroke-miterlimit:10;" d="M588.386,299.927
				c0,0-0.174-6.879,3.474-11.577"/>
			<path style="fill:#FFA897;" d="M632.635,289.349c0,0,4.827,8.239,7.148,17.035c3.197,12.117-0.143,34.612-0.143,34.612
				l-10.27-5.337c0,0-0.68-21.282-4.044-28.072c-2.646-5.34-5.959-12.521-5.959-12.521"/>
			<path style="fill:#2E7EFA;" d="M613.274,275.983c0,0,11.394,0.786,16.978,8.03c6.469,8.392,8.862,17.495,8.862,17.495
				l-15.626,6.217l-7.305-10.569"/>
			
				<line style="fill:none;stroke:#1A3987;stroke-width:0.75;stroke-linejoin:round;stroke-miterlimit:10;" x1="623.488" y1="307.725" x2="617.64" y2="297.156"/>
			<path style="fill:none;stroke:#1A3987;stroke-width:0.75;stroke-linejoin:round;stroke-miterlimit:10;" d="M622.298,305.574
				c-0.02-0.037,16.123-6.326,16.123-6.326"/>
			
				<line style="fill:none;stroke:#1A3987;stroke-width:0.75;stroke-linejoin:round;stroke-miterlimit:10;" x1="588.567" y1="297.156" x2="580.512" y2="289.794"/>
		</g>
		<g>
			<g>
				<path style="fill:#FFA897;" d="M518.495,259.854l2.279,11.462c0,0-6.418,6.497-13.141,0.449l0.076-7.684L518.495,259.854z"/>
				<path style="fill:#FFA897;" d="M506.347,249.052c0,0-5.478,10.959-2.086,14.583c1.763,1.884,4.346,2.601,6.673,0.844
					c1.727-1.304,8.347-9.161,7.428-10.65C514.853,248.139,506.347,249.052,506.347,249.052z"/>
				<path style="fill:#FFA897;" d="M504.164,255.227c0,0-2.021,2.013-2.021,3.347c0,0.59,2.021,0.68,2.021,0.68"/>
				<path style="fill:#FFFFFF;" d="M504.261,260.377l3.56-0.523C507.994,261.203,505.343,264.57,504.261,260.377z"/>
				<g>
					<g>
						<path style="fill:#00276F;" d="M506.332,255.039c-0.076,0.278-0.202,0.552-0.196,0.84c0.004,0.198,0.232,0.352,0.411,0.236
							c0.363-0.236,0.428-0.669,0.349-1.076C506.841,254.746,506.405,254.773,506.332,255.039L506.332,255.039z"/>
					</g>
				</g>
				<path style="fill:none;stroke:#00276F;stroke-width:0.5;stroke-linecap:round;stroke-linejoin:round;stroke-miterlimit:10;" d="
					M508.571,254.388c-0.374-0.568-1.017-0.949-1.695-1.004c-0.291-0.023-0.603,0.017-0.83,0.201"/>
				<g>
					<path style="fill:#0B0B3A;" d="M519.922,249.362c-0.261-0.146-0.533-0.273-0.809-0.381c-0.299-0.117-0.615-0.222-0.849-0.442
						c-0.146-0.137-0.252-0.311-0.367-0.476c-1.084-1.555-3.024-2.314-4.91-2.503c-1.039-0.104-7.996-0.002-9.958,6.422
						c1.208-0.089,2.416-0.166,3.626-0.23c0.81-0.043,1.633-0.079,2.421,0.114c0.194,0.047,0.392,0.113,0.533,0.255
						c0.099,0.1,0.162,0.229,0.222,0.356c0.513,1.074,1.062,2.115,1.399,3.253c0.339,1.146,0.869,2.238,1.236,3.379
						c0.341,1.06,0.377,2.584,1.235,3.304c0.93,0.781,3.232,3.07,5.746,2.224c1.454-3.686,3.166-8.135,2.62-12.059
						c-0.071-0.509-0.178-1.02-0.401-1.483C521.302,250.343,520.658,249.774,519.922,249.362z"/>
				</g>
				<path style="fill:#FFA897;" d="M510.801,257.241c0.388-2.288,2.539-1.351,3.153-0.55c0.819,1.069-0.414,3.55-1.05,4.012
					c-1.288,0.934-2.397,0.946-2.6-0.15"/>
				<path style="fill:none;stroke:#E86D5D;stroke-width:0.75;stroke-linejoin:round;stroke-miterlimit:10;" d="M507.821,265.64
					c2.484-0.772,4.038-2.005,4.038-2.005"/>
			</g>
			<g>
				<g>
					<g>
						<g>
							<path style="fill:#FFA897;" d="M536.208,419.681l1.58,26.915l0.203,8.105l-29.607-0.162
								c-0.723-0.004-1.305-0.637-1.302-1.412l0,0c0.003-0.581,0.339-1.101,0.845-1.306l12.769-6.302l-2.747-27.958"/>
							<path style="fill:#DD6B0E;" d="M505.786,454.197c0.303-1.018,0.858-2.161,1.418-2.42l13.539-6.259
								c7.463,3.247,17.123,0.765,17.123,0.765l1.723,10.941c-0.002,0.362-0.277,0.654-0.614,0.652l-32.962-0.181
								C505.35,457.692,505.777,454.229,505.786,454.197z"/>
							<path style="fill:none;stroke:#992913;stroke-width:0.75;stroke-miterlimit:10;" d="M517.813,446.145
								c0.759,1.061,1.401,2.219,1.909,3.44"/>
							<path style="fill:none;stroke:#992913;stroke-width:0.75;stroke-miterlimit:10;" d="M516.108,447.239
								c0.786,1.168,1.1,1.842,1.569,2.925"/>
							<path style="fill:none;stroke:#992913;stroke-width:0.75;stroke-miterlimit:10;" d="M514.668,448.037
								c0.534,0.77,1.057,1.834,1.471,2.684"/>
						</g>
						
							<line style="fill:none;stroke:#992913;stroke-width:0.75;stroke-miterlimit:10;" x1="539.415" y1="455.515" x2="505.647" y2="455.329"/>
						<path style="fill:none;stroke:#992913;stroke-width:0.75;stroke-miterlimit:10;" d="M538.477,450.164
							c0,0-7.933,0.173-8.615,5.302"/>
						<path style="fill:none;stroke:#992913;stroke-width:0.75;stroke-miterlimit:10;" d="M509.979,450.494
							c0,0,2.187,3.336,2.618,4.874"/>
					</g>
				</g>
				<path style="fill:#142251;" d="M513.426,333.337c0,0-1.272,30.458-0.042,55.753c1.109,22.808,4.44,50.753,4.44,50.753h21.619
					c0,0-3.624-36.72-4.342-50.753c-0.83-16.212-0.85-36.391-0.85-36.391s2.052-11.371,0.02-19.358"/>
				<path style="fill:none;stroke:#182E6B;stroke-width:0.75;stroke-miterlimit:10;" d="M516.221,333.337
					c0,0-1.272,30.458-0.042,55.753c1.109,22.808,4.44,50.753,4.44,50.753"/>
				<g>
					<g>
						<g>
							<path style="fill:#FFA897;" d="M510.559,419.681l1.58,26.915l0.202,8.105l-29.607-0.162
								c-0.723-0.004-1.306-0.637-1.302-1.412l0,0c0.003-0.581,0.339-1.101,0.845-1.306l12.769-6.302l-2.747-27.958"/>
							<path style="fill:#FF8D27;" d="M480.137,454.197c0.303-1.018,0.858-2.161,1.418-2.42l13.539-6.259
								c7.463,3.247,17.123,0.765,17.123,0.765l1.723,10.941c-0.002,0.362-0.277,0.654-0.614,0.652l-32.962-0.181
								C479.701,457.692,480.128,454.229,480.137,454.197z"/>
							<path style="fill:none;stroke:#C44220;stroke-width:0.75;stroke-miterlimit:10;" d="M492.164,446.145
								c0.759,1.061,1.401,2.219,1.909,3.44"/>
							<path style="fill:none;stroke:#C44220;stroke-width:0.75;stroke-miterlimit:10;" d="M490.459,447.239
								c0.786,1.168,1.1,1.842,1.569,2.925"/>
							<path style="fill:none;stroke:#C44220;stroke-width:0.75;stroke-miterlimit:10;" d="M489.018,448.037
								c0.534,0.77,1.057,1.834,1.471,2.684"/>
						</g>
						
							<line style="fill:none;stroke:#C44220;stroke-width:0.75;stroke-miterlimit:10;" x1="513.766" y1="455.515" x2="479.998" y2="455.329"/>
						<path style="fill:none;stroke:#C44220;stroke-width:0.75;stroke-miterlimit:10;" d="M512.828,450.164
							c0,0-7.933,0.173-8.615,5.302"/>
						<path style="fill:none;stroke:#C44220;stroke-width:0.75;stroke-miterlimit:10;" d="M484.33,450.494
							c0,0,2.187,3.336,2.618,4.874"/>
					</g>
				</g>
				<path style="fill:#18277A;" d="M491.589,333.337c0,0-2.179,36.352-1.312,59.171c0.867,22.818,2.104,47.335,2.104,47.335h22.6
					c0,0-0.654-38.272-0.126-52.314c0.528-14.042,2.81-36.417,2.81-36.417s4.989-6.026,2.075-19.615"/>
				<path style="fill:none;stroke:#304DC6;stroke-width:0.75;stroke-miterlimit:10;" d="M495.375,333.337
					c0,0-2.264,36.352-1.363,59.171c0.901,22.818,2.186,47.335,2.186,47.335"/>
				<path style="fill:none;stroke:#304DC6;stroke-width:0.75;stroke-miterlimit:10;" d="M502.996,339.851c0,0,6.617,0.232,9.832,0"
					/>
				<path style="fill:none;stroke:#304DC6;stroke-width:0.75;stroke-miterlimit:10;" d="M527.677,339.851c0,0,3.899,0.103,6.525,0"
					/>
			</g>
			<g>
				<path style="fill:#FFA897;" d="M536.417,287.112c0,0,6.212,9.173,7.42,18.319c1.208,9.146-8.271,26.246-8.271,26.246
					l-14.792,1.61c0,0,6.602-19.228,6.602-24.75c0-7.269-4.419-15.358-4.419-15.358"/>
				<path style="fill:#FFA897;" d="M493.475,297.645c0,0-12.302,16.787-22.886,11.25c-9.623-5.034-22.08-17.442-22.08-17.442
					s3.963-12.452,9.183-8.954c6.125,4.885,11.157,9.498,15.372,11.26c1.764,0.737,12.541-11.221,12.541-11.221"/>
				<g>
					<path style="fill:#FFA897;" d="M460.489,284.781c-3.797-2.738-13.495-12.476-14.361-12.065
						c-0.866,0.411,2.501,3.882,1.727,4.086c-0.774,0.205-6.315-4.784-7.07-4.142c-1.023,0.87,4.925,5.675,4.925,5.675
						s-6.778-4.938-7.447-3.927c-0.474,0.717,4.525,4.723,6.243,6.494c-2.106-1.682-5.843-4.004-6.32-3.25
						c-0.473,0.748,2.873,3.548,5.322,5.831c-1.662-1.282-4.81-3.45-5.284-2.774c-0.472,0.674,7.189,8.051,14.674,14.712"/>
				</g>
				<g>
					<path style="fill:#FF8D27;" d="M520.832,267.811c0,0,9.957,4.218,13.026,19.944c1.365,6.995,1.741,46.617,1.739,46.586
						c-21.547,4.203-44.748-0.004-44.748-0.004s-0.343-28.523,0.869-37.761c2.795-21.313,15.948-28.085,15.948-28.085
						L520.832,267.811z"/>
				</g>
				<path style="fill:#FF8D27;" d="M507.666,268.491c0,0-10.756,1.352-19.196,9.251c-5.285,4.947-13.092,13.764-13.092,13.764
					l14.359,13.013l17.327-16.309"/>
				
					<line style="fill:none;stroke:#C44220;stroke-width:0.75;stroke-miterlimit:10;" x1="489.737" y1="304.518" x2="505.657" y2="289.795"/>
				
					<line style="fill:none;stroke:#C44220;stroke-width:0.75;stroke-miterlimit:10;" x1="477.845" y1="288.764" x2="492.029" y2="302.361"/>
				<path style="fill:none;stroke:#C44220;stroke-width:0.75;stroke-miterlimit:10;" d="M535.566,331.677
					c0,0-21.079,4.154-44.742-0.16"/>
				<path style="fill:#FF8D27;" d="M520.832,267.811c0,0,9.393,1.19,20.244,26.749l-16.411,7.802l-6.216-13.597"/>
				<path style="fill:none;stroke:#C44220;stroke-width:0.75;stroke-miterlimit:10;" d="M534.694,297.594
					c0,0,0.432-11.669-3.037-17.18"/>
			</g>
		</g>
		<g>
			<g>
				<g>
					<g>
						<g>
							<path style="fill:#FFA897;" d="M256.482,419.681l-1.696,26.915l-0.217,8.105l30.778-0.162
								c0.776-0.004,1.401-0.637,1.397-1.412l0,0c-0.003-0.581-0.364-1.101-0.907-1.306l-12.705-6.302l2.949-27.958"/>
							<path style="fill:#1A65D3;" d="M289.135,454.197c-0.325-1.018-1.921-2.161-2.522-2.42l-13.532-6.259
								c-8.01,3.247-18.378,0.765-18.378,0.765l-1.85,10.941c0.002,0.362,0.297,0.654,0.659,0.652l34.379-0.181
								C289.935,457.696,289.145,454.229,289.135,454.197z"/>
							
								<line style="fill:none;stroke:#1A3987;stroke-width:0.75;stroke-linejoin:round;stroke-miterlimit:10;" x1="275.226" y1="446.145" x2="273.529" y2="449.585"/>
							<path style="fill:none;stroke:#1A3987;stroke-width:0.75;stroke-linejoin:round;stroke-miterlimit:10;" d="M277.056,447.239
								c-0.844,1.168-1.18,1.842-1.684,2.925"/>
							<path style="fill:none;stroke:#1A3987;stroke-width:0.75;stroke-linejoin:round;stroke-miterlimit:10;" d="M278.602,448.037
								c-0.573,0.77-1.135,1.834-1.579,2.684"/>
						</g>
						
							<line style="fill:none;stroke:#1A3987;stroke-width:0.75;stroke-linejoin:round;stroke-miterlimit:10;" x1="253.04" y1="455.515" x2="289.284" y2="455.329"/>
						<path style="fill:none;stroke:#1A3987;stroke-width:0.75;stroke-linejoin:round;stroke-miterlimit:10;" d="M283.634,450.494
							c0,0-2.347,3.336-2.81,4.874"/>
						<path style="fill:none;stroke:#1A3987;stroke-width:0.75;stroke-linejoin:round;stroke-miterlimit:10;" d="M254.047,450.164
							c0,0,8.514,0.173,9.247,5.302"/>
					</g>
				</g>
				<path style="fill:#22252D;" d="M248.654,334.352c0,0-2.479,9.536,0,20.192l3.209,86.872h24.527c0,0,1.666-75.444-0.087-107.064"
					/>
				<g>
					<g>
						<g>
							<path style="fill:#FFA897;" d="M228.953,419.681l-1.696,26.915l-0.217,8.105l31.778-0.162
								c0.776-0.004,1.401-0.637,1.397-1.412l0,0c-0.003-0.581-0.364-1.101-0.907-1.306l-13.705-6.302l2.949-27.958"/>
							<path style="fill:#2E7EFA;" d="M261.605,454.197c-0.325-1.018-0.921-2.161-1.522-2.42l-14.532-6.259
								c-8.01,3.247-18.378,0.765-18.378,0.765l-1.849,10.941c0.002,0.362,0.297,0.654,0.659,0.652l35.379-0.181
								C262.073,457.692,261.615,454.229,261.605,454.197z"/>
							<path style="fill:none;stroke:#1A3987;stroke-width:0.75;stroke-linejoin:round;stroke-miterlimit:10;" d="M248.697,446.145
								c-0.814,1.061-1.503,2.219-2.049,3.44"/>
							<path style="fill:none;stroke:#1A3987;stroke-width:0.75;stroke-linejoin:round;stroke-miterlimit:10;" d="M250.526,447.239
								c-0.843,1.168-1.18,1.842-1.684,2.925"/>
							<path style="fill:none;stroke:#1A3987;stroke-width:0.75;stroke-linejoin:round;stroke-miterlimit:10;" d="M252.073,448.037
								c-0.573,0.77-1.135,1.834-1.579,2.684"/>
						</g>
						
							<line style="fill:none;stroke:#1A3987;stroke-width:0.75;stroke-linejoin:round;stroke-miterlimit:10;" x1="225.511" y1="455.515" x2="261.755" y2="455.329"/>
						<path style="fill:none;stroke:#1A3987;stroke-width:0.75;stroke-linejoin:round;stroke-miterlimit:10;" d="M226.518,450.164
							c0,0,8.514,0.173,9.247,5.302"/>
						<path style="fill:none;stroke:#1A3987;stroke-width:0.75;stroke-linejoin:round;stroke-miterlimit:10;" d="M257.105,450.494
							c0,0-2.347,3.336-2.81,4.874"/>
					</g>
				</g>
				<path style="fill:#22252D;" d="M232.628,334.352c0,0-2.31,8.884-0.241,19.084c0.149,0.736,0.212,1.488,0.154,2.236
					l-6.822,85.744h24.527c0,0,10.692-79.713,10.031-107.064"/>
				<path style="fill:none;stroke:#4C5360;stroke-width:0.75;stroke-linejoin:round;stroke-miterlimit:10;" d="M235.628,334.352
					c0,0-2.31,8.884-0.241,19.084c0.149,0.736,0.212,1.488,0.154,2.236l-6.822,85.744"/>
				<path style="fill:none;stroke:#4C5360;stroke-width:0.75;stroke-linejoin:round;stroke-miterlimit:10;" d="M251.283,433.162
					c2.668-21.617,9.528-76.739,8.994-98.811"/>
				<path style="fill:none;stroke:#4C5360;stroke-width:0.75;stroke-linejoin:round;stroke-miterlimit:10;" d="M234.599,341.94
					c6.072,0,11.736-1.121,12.386-7.589"/>
				<path style="fill:none;stroke:#4C5360;stroke-width:0.75;stroke-linejoin:round;stroke-miterlimit:10;" d="M260.021,347.262
					c0,0,1.856,0.244,2.309-0.754c0.921-2.031,0.921-7.939,0.921-12.156"/>
				<path style="fill:none;stroke:#4C5360;stroke-width:0.75;stroke-linejoin:round;stroke-miterlimit:10;" d="M269.815,333.821
					c0.108,0.325,0.483,5.798,6.841,5.748"/>
				
					<line style="fill:none;stroke:#4C5360;stroke-width:0.75;stroke-linejoin:round;stroke-miterlimit:10;" x1="226.057" y1="437.024" x2="250.803" y2="437.024"/>
				
					<line style="fill:none;stroke:#4C5360;stroke-width:0.75;stroke-linejoin:round;stroke-miterlimit:10;" x1="251.741" y1="437.024" x2="276.486" y2="437.024"/>
			</g>
			<g>
				<path style="fill:#2E7EFA;" d="M250.246,273.37c-28.154,16.184-19.509,59.537-17.618,60.981c6.817,2.273,38.688,1.965,44.417,0
					c-0.39-9.177-1.958-39.24-4.545-48.516c-1.491-3.479-10.703-11.792-10.703-11.792L250.246,273.37z"/>
				<path style="fill:#FFA897;" d="M279.05,282.413c0,0,15.232,17.016,21.427,21.421c5.182,3.685,18.862,10.989,18.862,10.989
					s-4.701,10.631-4.713,10.621c-0.011-0.01-18.196-5.971-24.838-10.793c-8.449-6.133-21.479-19.774-21.479-19.774"/>
				<path style="fill:#FFA897;" d="M225.604,292.633c0,0-5.16,9.108-5.165,18.407c-0.006,12.81,9.71,33.848,9.71,33.848l9.297-8.264
					c0,0-5.165-21.039-3.512-28.683c1.3-6.012,5.165-13.635,5.165-13.635"/>
				<path style="fill:#2E7EFA;" d="M250.246,273.37c0,0-11.833-2.822-18.651,5.648c-6.817,8.47-9.503,17.973-9.503,17.973
					l15.869,7.354l7.27-14.378"/>
				<path style="fill:#2E7EFA;" d="M261.797,274.044c0,0,6.332,0.592,10.464,2.56c4.132,1.968,16.253,15.16,16.253,15.16
					L276.047,303.7l-9.165-9.6"/>
				<g>
					<path style="fill:#FFA897;" d="M238.58,332.757c1.413,5.517,6.387,16.392,5.717,17.02c-0.67,0.627-2.582-3.587-3.036-2.969
						c-0.453,0.617,2.05,7.301,1.214,7.749c-1.133,0.607-3.331-6.375-3.331-6.375s2.025,7.768,0.89,8.01
						c-0.804,0.171-2.623-5.686-3.599-7.837c0.761,2.466,1.52,6.607,0.681,6.768c-0.832,0.159-2.155-3.802-3.33-6.783
						c0.56,1.929,1.389,5.494,0.621,5.679c-0.765,0.184-5.302-10.408-8.355-19.152"/>
				</g>
				<g>
					<path style="fill:#FFA897;" d="M311.546,311.617c4.423,1.79,21.266,8.671,21.297,9.52c0.031,0.849-4.074-0.379-3.919,0.314
						c0.155,0.692,6.344,3.008,6.148,3.865c-0.265,1.16-6.476-1.551-6.476-1.551s1.532,0.932,1.011,1.872
						c-0.369,0.666-2.537,0.125-2.537,0.125s1.054,0.936,0.656,1.62c-0.395,0.677-2.277,0.221-2.277,0.221s0.825,0.869,0.23,1.295
						c-1.007,0.722-10.983-3.741-20.019-6.647"/>
				</g>
				<path style="fill:none;stroke:#E86D5D;stroke-width:0.75;stroke-linejoin:round;stroke-miterlimit:10;" d="M327.821,320.968
					c-2.397,0.232-3.699,1.759-6.51,1.131"/>
				<g>
					<path style="fill:#E86D5D;" d="M322.919,328.575c-0.555-0.218-1.09-0.488-1.591-0.829c-0.25-0.171-0.493-0.364-0.695-0.626
						c-0.1-0.13-0.186-0.293-0.214-0.489c-0.014-0.182,0.059-0.458,0.263-0.564c0.378-0.212,0.707-0.142,1.019-0.119
						c0.314,0.038,0.609,0.116,0.905,0.192c0.586,0.169,1.155,0.36,1.715,0.608l-0.284,0.584c-0.604-0.309-1.17-0.644-1.704-1.093
						c-0.259-0.234-0.518-0.486-0.703-0.865c-0.092-0.188-0.147-0.428-0.102-0.696c0.076-0.345,0.405-0.547,0.601-0.579
						c0.836-0.168,1.448,0.04,2.107,0.18c0.645,0.166,1.268,0.356,1.889,0.595l0.015,0.006c0.18,0.07,0.27,0.272,0.201,0.452
						c-0.069,0.18-0.272,0.27-0.452,0.201l-0.003-0.001c-0.676-0.267-1.33-0.55-1.968-0.911c-0.316-0.19-0.629-0.379-0.921-0.685
						c-0.07-0.084-0.146-0.173-0.195-0.309c-0.062-0.138-0.045-0.33,0.048-0.483c0.226-0.257,0.451-0.268,0.64-0.303
						c0.77-0.082,1.467,0.035,2.172,0.161c0.7,0.132,1.393,0.285,2.074,0.486c-0.705-0.081-1.407-0.165-2.109-0.213
						c-0.694-0.035-1.421-0.092-2.055,0.022c-0.154,0.019-0.295,0.106-0.304,0.123c-0.001-0.025,0.018,0.042,0.121,0.146
						c0.212,0.194,0.519,0.364,0.82,0.514c0.613,0.299,1.264,0.568,1.914,0.793l-0.24,0.658c-0.597-0.197-1.21-0.393-1.822-0.538
						c-0.59-0.14-1.282-0.271-1.723-0.182c-0.125,0.022-0.076,0.052-0.091,0.02c-0.004,0.049-0.005,0.142,0.048,0.243
						c0.094,0.207,0.295,0.431,0.514,0.628c0.442,0.402,0.984,0.754,1.52,1.052l0.011,0.006c0.157,0.087,0.213,0.284,0.126,0.441
						c-0.083,0.15-0.268,0.207-0.421,0.137c-0.521-0.243-1.058-0.489-1.602-0.681c-0.272-0.091-0.548-0.185-0.821-0.236
						c-0.262-0.053-0.57-0.082-0.719-0.003c-0.135,0.039-0.138,0.295,0.008,0.518c0.135,0.227,0.339,0.439,0.559,0.627
						C321.914,327.938,322.41,328.268,322.919,328.575z"/>
				</g>
				<g>
					
						<line style="fill:none;stroke:#1A3987;stroke-width:0.75;stroke-linejoin:round;stroke-miterlimit:10;" x1="237.961" y1="304.345" x2="244.064" y2="292.275"/>
					
						<line style="fill:none;stroke:#1A3987;stroke-width:0.75;stroke-linejoin:round;stroke-miterlimit:10;" x1="274.908" y1="302.506" x2="272.929" y2="287.584"/>
					<path style="fill:none;stroke:#1A3987;stroke-width:0.75;stroke-linejoin:round;stroke-miterlimit:10;" d="M247.906,273.074
						c0,0,2.38,5.133,10.05,4.465c4.686-0.408,5.302-3.316,5.302-3.316"/>
				</g>
				
					<line style="fill:none;stroke:#1A3987;stroke-width:0.75;stroke-linejoin:round;stroke-miterlimit:10;" x1="239.372" y1="301.517" x2="223.399" y2="293.461"/>
				
					<line style="fill:none;stroke:#1A3987;stroke-width:0.75;stroke-linejoin:round;stroke-miterlimit:10;" x1="274.672" y1="300.725" x2="286.172" y2="289.268"/>
			</g>
			<g>
				<path style="fill:#FFA897;" d="M263.635,255.914c0,0,3.671,10.173,0.404,13.478c-1.698,1.718-6.71,2.018-8.844,0.315
					c-1.583-1.264-3.927-9.086-3.03-10.456C255.595,254.015,263.635,255.914,263.635,255.914z"/>
				<path style="fill:none;stroke:#E86D5D;stroke-width:0.75;stroke-linejoin:round;stroke-miterlimit:10;" d="M261.585,260.711
					c0,0,1.968,2.402,1.889,3.14c-0.079,0.738-1.783,1.012-1.783,1.012"/>
				<path style="fill:#FFFFFF;" d="M263.666,265.541l-4.602,1.17c0,0,1.158,2.314,3.641,1.498
					C264.476,267.628,263.666,265.541,263.666,265.541z"/>
				<g>
					<g>
						<path style="fill:#00276F;" d="M262.809,259.889c0.048,0.206,0.111,0.405,0.187,0.602c0.182,0.474,0.955,0.254,0.761-0.21
							c-0.094-0.226-0.194-0.446-0.319-0.657C263.235,259.284,262.721,259.511,262.809,259.889L262.809,259.889z"/>
					</g>
				</g>
				<path style="fill:none;stroke:#00276F;stroke-width:0.5;stroke-linecap:round;stroke-linejoin:round;stroke-miterlimit:10;" d="
					M261.776,258.751c0,0,0.611-1.044,1.732-0.401"/>
				<g>
					<g>
						<path style="fill:#00276F;" d="M257.625,261.721c0.036,0.209,0.088,0.412,0.153,0.614c0.154,0.484,0.929,0.268,0.761-0.21
							c-0.081-0.229-0.174-0.454-0.285-0.669C258.061,261.087,257.562,261.36,257.625,261.721L257.625,261.721z"/>
					</g>
				</g>
				<path style="fill:none;stroke:#00276F;stroke-width:0.5;stroke-linecap:round;stroke-linejoin:round;stroke-miterlimit:10;" d="
					M258.242,259.686c0,0-1.186-0.265-2.224,1.217"/>
				<path style="fill:#FFA897;" d="M251.853,265.217l-1.606,8.153c1.214,1.405,7.106,4.457,11.551,0.673l0.131-5.665
					L251.853,265.217z"/>
				<g>
					<path style="fill:#0B0B3A;" d="M248.183,263.461c-0.087-0.363-0.187-0.723-0.318-1.087c-0.309-0.861-0.781-1.622-1.119-2.468
						c-0.675-1.692-0.114-3.795,1.313-4.926c0.254-0.201,0.531-0.374,0.756-0.607c0.505-0.523,0.681-1.27,0.974-1.935
						c0.239-0.544,0.589-1.069,1.114-1.349c1.204-0.642,2.808,0.228,4.012-0.415c0.261-0.139,0.481-0.341,0.717-0.519
						c1.726-1.305,3.685-1.001,5.567-0.321c0.881,0.318,1.169,0.665,1.902,1.236c0.801,0.623,1.909,0.581,2.714,1.191
						c0.845,0.64,1.058,1.816,1.067,2.876c0.003,0.384-0.015,0.781-0.177,1.129c-0.209,0.447-0.634,0.76-1.083,0.965
						c-1.079,0.491-2.292,0.302-3.436,0.216c-1.118-0.084-2.416-0.872-3.509-0.464c-1.067,0.398-1.339,1.706-2.652,1.808
						c-0.518,0.04-1.147-0.054-1.456,0.363c-0.349,0.471-0.165,1.245-0.441,1.79c-0.26,0.514-0.715,0.977-1.049,1.451
						c-0.663,0.942-1.604,1.588-1.268,2.817c0.234,0.854,1.183,2.226,0.791,3.131c-0.259,0.596-1.571,0.586-2.565-0.169
						c-1.023-0.779-1.328-2.263-1.579-3.445C248.366,264.296,248.283,263.876,248.183,263.461z"/>
				</g>
				<path style="fill:#FFA897;" d="M252.882,263.67c-0.972-1.576-1.921-1.453-2.516-0.719c-0.794,0.98,0.297,3.333,0.881,3.781
					c1.182,0.907,2.22,0.947,2.437-0.074"/>
				<path style="fill:none;stroke:#E86D5D;stroke-width:0.75;stroke-linejoin:round;stroke-miterlimit:10;" d="M261.529,270.924
					c-3.656,0.126-6.711-1.625-6.711-1.625"/>
			</g>
		</g>
	</g>
</g>
</svg>
